<svg id="Layer_1" data-name="Layer 1" xmlns="http://www.w3.org/2000/svg" viewBox="0 0 44 44"><title>actions-external-site</title><path d="M22,44A22,22,0,1,1,44,22,22,22,0,0,1,22,44ZM22,2.1A19.9,19.9,0,1,0,41.9,22,19.93,19.93,0,0,0,22,2.1ZM14.67,29.33h-2.1v-2.1h-2.1v2.1H8.38v2.1h2.1v2.1h2.1v-2.1h2.1ZM28.29,10.48H15.71a5.24,5.24,0,0,0-5.24,5.24v9.43a1,1,0,0,0,2.1,0V18.86H31.43v9.43a3.15,3.15,0,0,1-3.14,3.14H16.76a1,1,0,0,0,0,2.1H28.29a5.24,5.24,0,0,0,5.24-5.24V15.71A5.24,5.24,0,0,0,28.29,10.48ZM12.57,16.76v-1a3.15,3.15,0,0,1,3.14-3.14H28.29a3.15,3.15,0,0,1,3.14,3.14v1Z"/></svg>