<svg xmlns="http://www.w3.org/2000/svg" viewBox="0 0 13.45 13.45"><title>instagram</title><path d="M6.74,3.26a3.45,3.45,0,1,0,3.45,3.45A3.45,3.45,0,0,0,6.74,3.26Zm0,5.7A2.25,2.25,0,0,1,4.49,6.71,2.24,2.24,0,1,1,6.74,9Zm4.38-5.82a.81.81,0,1,0-.81.81A.81.81,0,0,0,11.12,3.14Zm2.28.81a4,4,0,0,0-1.08-2.82A4,4,0,0,0,9.5,0C8.39,0,5.06,0,3.95,0A4.1,4.1,0,0,0,1.13,1.13,4,4,0,0,0,0,3.95C0,5.06,0,8.39,0,9.5a4.1,4.1,0,0,0,1.08,2.82A4.1,4.1,0,0,0,3.95,13.4c1.11.06,4.44.06,5.55,0a4,4,0,0,0,2.82-1.08A4.1,4.1,0,0,0,13.4,9.5C13.46,8.39,13.46,5.06,13.4,3.95ZM12,10.67A2.23,2.23,0,0,1,10.7,12a14.53,14.53,0,0,1-4,.27,14.36,14.36,0,0,1-4-.27,2.28,2.28,0,0,1-1.29-1.29,14.37,14.37,0,0,1-.27-4,14.53,14.53,0,0,1,.27-4A2.31,2.31,0,0,1,2.78,1.49a14.37,14.37,0,0,1,4-.27,14.53,14.53,0,0,1,4,.27A2.26,2.26,0,0,1,12,2.75a14.53,14.53,0,0,1,.27,4A14.37,14.37,0,0,1,12,10.67Z"/></svg>