<svg xmlns="http://www.w3.org/2000/svg" viewBox="0 0 44.4 40.56"><title>actions-internal-arrow</title><path d="M38.41,5.94A20.49,20.49,0,0,0,4.29,14.75,1.07,1.07,0,0,0,5,16.07a1.08,1.08,0,0,0,1.33-.74,18.3,18.3,0,0,1,35.87,4.95A18.3,18.3,0,0,1,6.37,25.22,1.08,1.08,0,0,0,5,24.48a1.07,1.07,0,0,0-.75,1.33,20.51,20.51,0,0,0,34.12,8.81,20.16,20.16,0,0,0,0-28.68Z"/><path d="M19.68,28.25a1.07,1.07,0,0,0,0,1.52,1.08,1.08,0,0,0,1.53,0L30,21h0a1.08,1.08,0,0,0,.23-.34,1.06,1.06,0,0,0,0-.83,1.08,1.08,0,0,0-.23-.34h0l-8.8-8.73a1.09,1.09,0,0,0-1.53,0,1.07,1.07,0,0,0,0,1.52l7,6.9H1.08a1.07,1.07,0,1,0,0,2.15H26.63Z"/></svg>