<svg width="305" height="76" viewBox="0 0 305 76" fill="none" xmlns="http://www.w3.org/2000/svg">
<path d="M43.1338 40.8063C43.1464 41.4849 43.0104 42.1581 42.7352 42.7795C42.4581 43.3672 42.035 43.8753 41.5056 44.2562C40.8672 44.7046 40.1473 45.0261 39.3856 45.2029C38.3801 45.4471 37.3467 45.5602 36.3116 45.5394C35.3753 45.551 34.4407 45.4565 33.5259 45.2576C32.7944 45.0956 32.0961 44.8111 31.4611 44.4161C30.9025 44.0672 30.4254 43.6038 30.0619 43.0572C29.6924 42.479 29.4324 41.8388 29.2944 41.1681L32.5084 40.638C32.5929 40.9701 32.7242 41.2888 32.8984 41.5846C33.0784 41.8837 33.3214 42.1406 33.6108 42.3377C33.9574 42.5696 34.344 42.7364 34.7513 42.83C35.2935 42.9531 35.8488 43.0096 36.4049 42.9983C37.2979 43.0482 38.1891 42.8731 38.9956 42.4892C39.2806 42.3339 39.5155 42.1018 39.673 41.8196C39.8306 41.5374 39.9044 41.2167 39.8859 40.8946C39.8865 40.5373 39.7621 40.1908 39.534 39.9143C39.272 39.6204 38.9477 39.3876 38.5843 39.2328C38.1434 39.0416 37.6847 38.8936 37.2148 38.791L35.5908 38.4418L34.2383 38.1178C33.7986 38.0051 33.3666 37.8646 32.9451 37.6971C32.5486 37.547 32.1668 37.3611 31.8045 37.1417C31.089 36.7093 30.55 36.0404 30.2824 35.2527C30.1283 34.777 30.0525 34.2798 30.0576 33.7801C30.0391 33.0818 30.2027 32.3905 30.5325 31.7733C30.8473 31.2136 31.2994 30.7418 31.8469 30.4017C32.4699 30.0246 33.1566 29.7623 33.8736 29.6276C34.7106 29.4578 35.5633 29.376 36.4176 29.3836C37.3111 29.3693 38.2035 29.4483 39.0803 29.6192C39.7555 29.7453 40.401 29.995 40.9841 30.3554C41.4677 30.6722 41.8711 31.0955 42.1628 31.5924C42.4462 32.1337 42.6422 32.7157 42.7437 33.3173L39.5171 33.7381C39.3895 33.1187 39.0286 32.571 38.5079 32.2066C37.8493 31.828 37.0926 31.6509 36.3328 31.6975C35.8436 31.6887 35.3552 31.7396 34.8785 31.849C34.5359 31.926 34.2117 32.069 33.9245 32.2697C33.7088 32.4207 33.5388 32.6273 33.4327 32.8672C33.3366 33.0935 33.2876 33.3368 33.2885 33.5824C33.2771 33.9202 33.3768 34.2525 33.5726 34.529C33.7839 34.7938 34.0538 35.0068 34.3612 35.1517C34.7488 35.3317 35.1537 35.4726 35.5696 35.5724L37.1215 35.9216L38.597 36.2498C39.0698 36.363 39.5356 36.5035 39.9919 36.6705C40.4222 36.8178 40.8369 37.0066 41.23 37.2343C41.5896 37.463 41.9102 37.7471 42.1798 38.0758C42.4731 38.418 42.6989 38.8119 42.8455 39.237C43.0306 39.74 43.1281 40.2707 43.1338 40.8063ZM45.7626 45.3459V29.5434H58.2409V32.093H49.0783V36.0479H57.5583V38.5722H49.0783V42.7374H58.6861V45.2618L45.7626 45.3459ZM71.0415 45.3459L64.126 33.2164C64.1642 33.5445 64.1981 33.8601 64.232 34.163C64.2659 34.4659 64.2871 34.7773 64.3083 35.1054V45.3375H61.3403V29.5434H65.1563L72.1735 41.8118C72.1354 41.5005 72.1015 41.1849 72.0675 40.8694C72.0336 40.5538 72.0124 40.2383 71.9955 39.927V29.5434H74.9423V45.3249L71.0415 45.3459ZM89.1802 45.3459L87.7725 41.3238H81.722L80.3143 45.3459H76.9944L82.7778 29.5645H86.6955L92.4619 45.3165L89.1802 45.3459ZM85.4617 34.285L85.1776 33.4814C85.0886 33.2164 85.0122 32.9723 84.9487 32.7536L84.7875 32.215L84.7112 31.9794L84.6434 32.2235L84.4907 32.762C84.4257 32.978 84.3494 33.2178 84.2618 33.4814L83.9989 34.264L82.464 38.8204H87.0305L85.4617 34.285ZM100.136 32.1141V45.3249H96.8164V32.093H91.6902V29.5434H105.292V32.093L100.136 32.1141ZM107.289 45.3249V29.5434H119.768V32.093H110.618V36.0479H119.098V38.5722H110.618V42.7374H120.225V45.2618L107.289 45.3249ZM144.813 45.3249V33.5151C144.812 33.1301 144.83 32.7454 144.868 32.3623L144.423 34.0452L144.232 34.7352L144.033 35.4252L143.842 36.0479L143.69 36.5443L140.836 45.3291H138.508L135.655 36.5443L135.502 36.0436L135.32 35.421L135.121 34.731L134.921 34.041L134.446 32.3581C134.446 32.7796 134.468 33.2008 134.51 33.6203C134.557 33.9961 134.557 34.3762 134.51 34.752V45.3207H131.593V29.5897H136.058L138.898 38.3913C138.975 38.6269 139.051 38.9088 139.136 39.2328L139.39 40.1794C139.479 40.5412 139.577 40.9241 139.687 41.3196L139.992 40.2046L140.124 39.725L140.255 39.2454L140.391 38.7994L140.514 38.4208L143.308 29.5687H147.76V45.3207L144.813 45.3249ZM161.773 45.3249L160.365 41.3027H154.315L152.907 45.3249H149.587L155.371 29.5897H159.289L165.051 45.3375L161.773 45.3249ZM158.063 34.2892L157.796 33.5025C157.707 33.2416 157.631 32.9976 157.567 32.7788L157.406 32.2403L157.33 32.0047L157.262 32.2487L157.109 32.7872C157.046 33.0018 156.969 33.2416 156.884 33.5025L156.617 34.2892L155.049 38.8162H159.611L158.063 34.2892ZM171.377 45.5478C170.662 45.5552 169.95 45.4718 169.257 45.2996C168.665 45.1551 168.11 44.8885 167.629 44.5171C167.155 44.1422 166.769 43.67 166.497 43.1329C166.174 42.4758 165.95 41.7757 165.831 41.0545L169.13 40.5749C169.185 40.957 169.291 41.3304 169.443 41.6856C169.559 41.9597 169.726 42.2096 169.935 42.4219C170.119 42.6097 170.344 42.7536 170.592 42.8426C170.853 42.9322 171.127 42.9763 171.402 42.973C171.688 42.9912 171.973 42.9406 172.234 42.8256C172.496 42.7106 172.725 42.5345 172.903 42.3125C173.279 41.7577 173.46 41.0949 173.416 40.4276V32.1646H170.211V29.5897H176.689V40.3182C176.699 41.0566 176.58 41.7911 176.338 42.4892C176.121 43.1043 175.771 43.6645 175.311 44.13C174.836 44.5925 174.264 44.9471 173.637 45.1692C172.902 45.4349 172.125 45.5688 171.343 45.5647L171.377 45.5478ZM195.545 37.3731C195.564 38.5187 195.377 39.6584 194.994 40.7389C194.654 41.7023 194.113 42.5839 193.408 43.3264C192.692 44.0553 191.823 44.6196 190.864 44.9799C188.648 45.771 186.224 45.771 184.008 44.9799C183.06 44.6116 182.208 44.0364 181.515 43.297C180.836 42.5486 180.323 41.6671 180.009 40.7095C179.666 39.6524 179.497 38.547 179.509 37.4363C179.496 36.2933 179.68 35.1565 180.052 34.0746C180.363 33.1316 180.884 32.2704 181.577 31.5551C182.27 30.8398 183.117 30.2888 184.054 29.9431C186.277 29.186 188.692 29.186 190.915 29.9431C191.857 30.2891 192.711 30.8364 193.416 31.5461C194.108 32.2683 194.635 33.129 194.964 34.0704C195.336 35.139 195.52 36.2635 195.507 37.3942L195.545 37.3731ZM192.153 37.3731C192.163 36.6182 192.063 35.8657 191.856 35.1391C191.682 34.5125 191.382 33.9272 190.974 33.4183C190.585 32.9438 190.09 32.5663 189.528 32.316C188.898 32.048 188.217 31.916 187.531 31.9289C186.833 31.9131 186.139 32.045 185.496 32.316C184.929 32.5638 184.429 32.9416 184.037 33.4183C183.634 33.9287 183.337 34.5136 183.164 35.1391C182.77 36.6099 182.77 38.1574 183.164 39.6282C183.34 40.269 183.641 40.8693 184.05 41.3953C184.438 41.8853 184.936 42.2786 185.504 42.5439C186.132 42.8338 186.818 42.9777 187.51 42.9646C188.231 42.9839 188.948 42.8401 189.605 42.5439C190.173 42.2792 190.669 41.8823 191.05 41.3869C191.447 40.8589 191.735 40.2584 191.898 39.6198C192.067 38.8903 192.141 38.1423 192.119 37.3942L192.153 37.3731ZM209.176 45.3207L205.458 39.3758H201.557V45.3585H198.237V29.5897H206.17C207.047 29.5722 207.921 29.6827 208.765 29.9179C209.441 30.1066 210.072 30.427 210.622 30.8603C211.109 31.2531 211.49 31.7589 211.733 32.3328C211.983 32.9548 212.105 33.6198 212.093 34.2892C212.102 34.8375 212.013 35.383 211.831 35.9006C211.662 36.3731 211.414 36.814 211.097 37.2049C210.783 37.5802 210.405 37.899 209.982 38.1473C209.549 38.4026 209.078 38.59 208.587 38.7026L212.874 45.308L209.176 45.3207ZM208.778 34.4028C208.801 34.0779 208.744 33.7522 208.611 33.4543C208.478 33.1565 208.273 32.8956 208.015 32.6947C207.371 32.2838 206.612 32.0878 205.848 32.1351H201.608V36.7883H205.954C206.384 36.7973 206.813 36.7406 207.226 36.62C207.55 36.521 207.848 36.353 208.099 36.1278C208.327 35.9193 208.502 35.6616 208.612 35.3747C208.717 35.0674 208.763 34.7436 208.748 34.4196L208.778 34.4028ZM216.045 45.3417V29.5897H219.365V45.3375L216.045 45.3417ZM230.512 32.1267V45.3417H227.218V32.1057H222.083V29.5813H235.651V32.1057L230.512 32.1267ZM245.729 38.8583V45.3249H242.418V38.8457L236.775 29.5603H240.256L244.072 36.2204L247.888 29.5603H251.369L245.729 38.8583ZM273.921 34.5543C273.922 35.224 273.806 35.8887 273.578 36.5191C273.35 37.1479 272.99 37.7216 272.522 38.202C272.012 38.7108 271.399 39.1066 270.724 39.3632C269.896 39.662 269.019 39.8047 268.138 39.7839H264.19V45.3249H260.87V29.5897H268.002C268.895 29.5693 269.785 29.6901 270.639 29.9473C271.319 30.1551 271.947 30.5019 272.484 30.9655C272.966 31.3988 273.338 31.9395 273.569 32.5432C273.785 33.1967 273.879 33.8841 273.845 34.5711L273.921 34.5543ZM270.572 34.6132C270.6 34.2631 270.549 33.911 270.42 33.5837C270.292 33.2564 270.09 32.9625 269.83 32.7241C269.19 32.2575 268.403 32.0336 267.612 32.093H264.182V37.1838H267.71C268.141 37.195 268.572 37.1309 268.982 36.9945C269.316 36.8841 269.621 36.7016 269.876 36.4602C270.115 36.2245 270.296 35.9362 270.402 35.6187C270.482 35.3012 270.513 34.9736 270.495 34.6468L270.572 34.6132ZM285.789 45.3249L284.381 41.3027H278.254L276.847 45.3249H273.527L279.319 29.5729H283.241L289.003 45.3249H285.789ZM282.07 34.2892L281.803 33.5067C281.714 33.2416 281.638 33.0018 281.574 32.7788L281.413 32.2445L281.337 32.0089L281.273 32.2529C281.242 32.4373 281.191 32.6178 281.121 32.7914L280.892 33.5067L280.641 34.2766L279.073 38.8078H283.639L282.07 34.2892ZM297.953 42.9562C298.505 42.9651 299.054 42.8753 299.573 42.6911C300.411 42.3775 301.12 41.7957 301.587 41.0377C301.802 40.6934 301.983 40.33 302.13 39.9522L304.983 41.0377C304.729 41.6313 304.411 42.1956 304.034 42.7206C303.648 43.2759 303.173 43.7636 302.626 44.1637C302.015 44.6055 301.337 44.9465 300.616 45.1734C299.73 45.4468 298.805 45.5775 297.877 45.5605C296.66 45.5866 295.449 45.378 294.311 44.9462C293.361 44.5822 292.508 44.0065 291.818 43.2633C291.159 42.4963 290.674 41.5983 290.393 40.6296C289.76 38.4726 289.76 36.1811 290.393 34.0242C290.684 33.0879 291.177 32.2262 291.839 31.4998C292.513 30.8029 293.34 30.2701 294.256 29.9431C295.374 29.5431 296.557 29.3505 297.746 29.3751C298.663 29.3594 299.579 29.467 300.468 29.6949C301.187 29.8968 301.867 30.2152 302.482 30.6373C303.031 31.0131 303.507 31.4833 303.889 32.0257C304.266 32.5693 304.56 33.1646 304.763 33.7928L301.837 34.5837C301.715 34.2504 301.544 33.937 301.328 33.6539C301.098 33.3323 300.81 33.0545 300.48 32.8335C300.12 32.5818 299.722 32.3873 299.302 32.2571C298.806 32.1048 298.29 32.031 297.771 32.0383C297.06 32.0203 296.353 32.1522 295.698 32.4254C295.135 32.6689 294.644 33.0495 294.269 33.5319C293.882 34.0431 293.603 34.6271 293.451 35.2485C293.266 35.9803 293.177 36.7324 293.183 37.4867C293.179 38.2464 293.269 39.0038 293.451 39.7418C293.605 40.3783 293.886 40.9777 294.277 41.5047C294.658 42 295.154 42.3957 295.723 42.6575C296.397 42.9193 297.121 43.0313 297.843 42.9856L297.953 42.9562Z" fill="#083053"/>
<path d="M37.592 75.8276C37.4427 75.7425 37.3118 75.6291 37.2067 75.4938C37.1016 75.3586 37.0244 75.2041 36.9795 75.0392C36.9347 74.8743 36.923 74.7023 36.9451 74.5329C36.9672 74.3635 37.0228 74.2002 37.1086 74.0521C37.1943 73.9039 37.3086 73.774 37.445 73.6699C37.5815 73.5657 37.7373 73.4893 37.9036 73.4451C38.0699 73.401 38.2433 73.3898 38.414 73.4124C38.5846 73.435 38.7491 73.4908 38.8979 73.5767C39.0471 73.6617 39.1781 73.7751 39.2831 73.9104C39.3882 74.0457 39.4654 74.2001 39.5103 74.365C39.5552 74.5299 39.5669 74.702 39.5447 74.8713C39.5226 75.0407 39.467 75.2041 39.3812 75.3521C39.2074 75.6506 38.9213 75.8683 38.5858 75.9574C38.2503 76.0466 37.8928 75.9999 37.592 75.8276ZM35.3236 75.3648C35.5534 75.107 35.6712 74.7695 35.6513 74.4259C35.6315 74.0823 35.4756 73.7604 35.2176 73.5304C34.9588 73.3008 34.6188 73.1824 34.2722 73.2014C33.9256 73.2203 33.6007 73.375 33.3689 73.6314C33.1375 73.8881 33.0183 74.2255 33.0373 74.5694C33.0564 74.9134 33.2123 75.2357 33.4707 75.4657C33.7289 75.6959 34.0686 75.8149 34.4152 75.7968C34.7618 75.7786 35.0869 75.6248 35.3193 75.369L35.3236 75.3648ZM31.338 74.944C31.6167 74.7386 31.8018 74.4318 31.8527 74.091C31.9035 73.7502 31.816 73.4033 31.6093 73.1265C31.4015 72.8497 31.0916 72.6659 30.7474 72.6154C30.4033 72.5649 30.053 72.6519 29.7734 72.8572C29.4959 73.0626 29.3116 73.3686 29.2608 73.7084C29.21 74.0481 29.2967 74.3941 29.502 74.6706C29.7065 74.9485 30.0136 75.1347 30.3562 75.1884C30.6987 75.242 31.0487 75.1587 31.3295 74.9567L31.338 74.944ZM27.4584 74.1026C27.773 73.9572 28.0169 73.6942 28.1368 73.371C28.2567 73.0479 28.243 72.6908 28.0986 72.3776C27.9529 72.0647 27.688 71.8219 27.362 71.7028C27.036 71.5836 26.6756 71.5979 26.3602 71.7423C26.0448 71.8869 25.8 72.1496 25.6792 72.4728C25.5585 72.7961 25.5716 73.1536 25.7157 73.4673C25.8552 73.7831 26.1153 74.0309 26.439 74.1564C26.7626 74.2818 27.1232 74.2746 27.4414 74.1362L27.4584 74.1026ZM23.7187 72.8783C24.0558 72.7974 24.3468 72.5873 24.528 72.294C24.7092 72.0006 24.7658 71.6479 24.6854 71.3132C24.6049 70.9779 24.3935 70.6881 24.0978 70.5075C23.802 70.3268 23.446 70.2701 23.1081 70.3497C22.7703 70.4296 22.4782 70.6393 22.2961 70.9328C22.1141 71.2263 22.0569 71.5795 22.1372 71.9148V71.94C22.2177 72.2753 22.4291 72.5651 22.7248 72.7458C23.0206 72.9264 23.3765 72.9832 23.7144 72.9035L23.7187 72.8783ZM20.1444 71.2711C20.3164 71.2662 20.4859 71.2277 20.6429 71.1578C20.8 71.0879 20.9417 70.988 21.0598 70.8637C21.1779 70.7395 21.2702 70.5933 21.3314 70.4337C21.3926 70.274 21.4215 70.1039 21.4164 69.9332C21.4114 69.7624 21.3726 69.5943 21.3022 69.4385C21.2317 69.2826 21.131 69.1421 21.0058 69.0248C20.8806 68.9076 20.7333 68.816 20.5724 68.7553C20.4115 68.6946 20.2401 68.666 20.0681 68.671C19.896 68.6759 19.7266 68.7144 19.5695 68.7843C19.4124 68.8542 19.2708 68.9541 19.1526 69.0784C19.0345 69.2027 18.9422 69.3488 18.881 69.5084C18.8198 69.6681 18.791 69.8382 18.7961 70.0089C18.7972 70.1795 18.8322 70.3481 18.8991 70.5052C18.966 70.6622 19.0635 70.8047 19.186 70.9243C19.3085 71.0439 19.4536 71.1383 19.613 71.2021C19.7723 71.266 19.9428 71.298 20.1147 71.2963H20.1486L20.1444 71.2711ZM16.7524 69.3021C17.0942 69.3621 17.446 69.285 17.7306 69.0878C18.0152 68.8906 18.2093 68.5894 18.2703 68.2503C18.3307 67.9111 18.2531 67.562 18.0543 67.2796C17.8556 66.9972 17.552 66.8046 17.2103 66.7441C16.8685 66.6841 16.5166 66.7612 16.232 66.9584C15.9474 67.1556 15.7533 67.4568 15.6924 67.7959V67.8211C15.6625 67.9891 15.6664 68.1613 15.7038 68.3278C15.7411 68.4943 15.8113 68.6519 15.9102 68.7914C16.009 68.931 16.1347 69.0498 16.28 69.141C16.4252 69.2323 16.5872 69.2942 16.7566 69.3231L16.7524 69.3021ZM13.6063 66.9923C13.9296 67.1175 14.2898 67.1103 14.6078 66.9723C14.9257 66.8342 15.1755 66.5766 15.3023 66.256C15.4285 65.9352 15.4212 65.5778 15.2821 65.2623C15.143 64.9468 14.8834 64.6989 14.5603 64.5731C14.4005 64.5105 14.2298 64.4797 14.0581 64.4825C13.8863 64.4854 13.7167 64.5219 13.5592 64.5899C13.4016 64.6579 13.2592 64.7561 13.1399 64.8788C13.0207 65.0016 12.927 65.1465 12.8643 65.3052C12.7358 65.6233 12.7394 65.9789 12.8745 66.2943C13.0096 66.6097 13.2651 66.8592 13.5851 66.9881H13.6275L13.6063 66.9923ZM10.7189 64.367C10.8636 64.4593 11.0253 64.5223 11.1946 64.5526C11.364 64.5829 11.5376 64.5798 11.7058 64.5434C11.8739 64.5071 12.0331 64.4383 12.1745 64.3409C12.3158 64.2434 12.4364 64.1194 12.5293 63.9757C12.716 63.6853 12.7793 63.3334 12.7055 62.9968C12.6316 62.6602 12.4265 62.3663 12.135 62.1792C11.9908 62.0868 11.8297 62.0236 11.6609 61.993C11.492 61.9625 11.3188 61.9653 11.151 62.0012C10.9833 62.0372 10.8243 62.1056 10.6832 62.2026C10.5421 62.2995 10.4217 62.4231 10.3288 62.5663C10.2336 62.7086 10.1677 62.8683 10.1349 63.036C10.1022 63.2038 10.1031 63.3763 10.1378 63.5436C10.1725 63.711 10.2402 63.8699 10.337 64.0112C10.4338 64.1525 10.5578 64.2734 10.7019 64.367L10.7443 64.3922L10.7189 64.367ZM8.11974 61.4513C8.24104 61.5719 8.38511 61.6676 8.54371 61.7329C8.70232 61.7982 8.87235 61.8318 9.04406 61.8318C9.21577 61.8318 9.38579 61.7982 9.5444 61.7329C9.70301 61.6676 9.84707 61.5719 9.96837 61.4513C10.0892 61.3295 10.1845 61.1852 10.2488 61.0267C10.3132 60.8682 10.3453 60.6986 10.3433 60.5277C10.3414 60.3568 10.3053 60.188 10.2374 60.031C10.1694 59.8739 10.0707 59.7318 9.94718 59.6128C9.82588 59.4922 9.6818 59.3965 9.52319 59.3312C9.36459 59.2659 9.19457 59.2323 9.02286 59.2323C8.85115 59.2323 8.68113 59.2659 8.52252 59.3312C8.36391 59.3965 8.21983 59.4922 8.09853 59.6128C7.97636 59.7332 7.87941 59.8764 7.81324 60.0342C7.74708 60.192 7.71302 60.3612 7.71302 60.5321C7.71302 60.7029 7.74708 60.8721 7.81324 61.0299C7.87941 61.1877 7.97636 61.3309 8.09853 61.4513L8.12822 61.4766L8.11974 61.4513ZM5.83862 58.2707C6.0345 58.5549 6.33603 58.7505 6.67706 58.8144C7.01808 58.8783 7.37073 58.8053 7.65758 58.6114C7.80188 58.5158 7.92559 58.3927 8.02153 58.2492C8.11747 58.1057 8.18374 57.9448 8.21648 57.7757C8.24922 57.6066 8.24778 57.4327 8.21224 57.2642C8.17671 57.0956 8.1078 56.9358 8.0095 56.7939C7.81433 56.5101 7.51391 56.3146 7.17387 56.2499C6.83383 56.1853 6.48182 56.2568 6.19478 56.4489C5.90829 56.6433 5.71123 56.9425 5.64684 57.2809C5.58246 57.6193 5.656 57.9692 5.85134 58.2538C5.8559 58.2652 5.86317 58.2753 5.87253 58.2833L5.83862 58.2707ZM3.90094 54.8502C4.03006 55.1684 4.28111 55.4229 4.59905 55.5578C4.91698 55.6926 5.27585 55.6969 5.59694 55.5696C5.91696 55.4406 6.17269 55.1914 6.30848 54.8762C6.44426 54.561 6.44911 54.2054 6.32197 53.8867C6.19195 53.5691 5.9408 53.3154 5.62318 53.1806C5.30555 53.0459 4.94716 53.0411 4.62597 53.1672C4.46819 53.235 4.32543 53.3329 4.20588 53.4555C4.08633 53.578 3.99234 53.7228 3.92931 53.8815C3.86629 54.0402 3.83546 54.2097 3.8386 54.3803C3.84173 54.5508 3.87877 54.7191 3.94758 54.8754L3.90094 54.8502ZM2.33213 51.2235C2.39118 51.5633 2.58383 51.8658 2.8677 52.0647C3.15157 52.2635 3.5034 52.3423 3.84582 52.2837C4.0154 52.2542 4.17748 52.1919 4.32276 52.1002C4.46805 52.0086 4.59371 51.8894 4.69255 51.7495C4.79139 51.6096 4.86147 51.4518 4.89879 51.285C4.93611 51.1182 4.93994 50.9458 4.91006 50.7775C4.85003 50.4385 4.65697 50.137 4.37322 49.939C4.08946 49.7411 3.73817 49.6628 3.39638 49.7215C3.22743 49.7542 3.06667 49.8197 2.92334 49.9143C2.78 50.0088 2.65691 50.1306 2.56116 50.2725C2.46541 50.4145 2.39888 50.5738 2.3654 50.7413C2.33192 50.9088 2.33214 51.0813 2.36606 51.2487L2.33213 51.2235ZM1.1619 47.437C1.16022 47.6077 1.19245 47.7771 1.25675 47.9354C1.32105 48.0938 1.41615 48.238 1.53663 48.3599C1.65711 48.4818 1.8006 48.579 1.95892 48.6459C2.11724 48.7127 2.28729 48.748 2.45934 48.7496C2.63119 48.7513 2.80168 48.7193 2.96104 48.6554C3.1204 48.5916 3.26549 48.4971 3.38799 48.3775C3.5105 48.2579 3.60802 48.1155 3.67494 47.9584C3.74186 47.8014 3.77687 47.6327 3.77797 47.4622C3.78255 47.1214 3.65161 46.7925 3.41352 46.5468C3.17543 46.3011 2.84937 46.1584 2.50598 46.1495C2.16217 46.1528 1.83346 46.2901 1.59074 46.5317C1.34802 46.7734 1.21075 47.1 1.20854 47.4412L1.1619 47.437ZM0.424135 43.4863C0.35114 43.8233 0.415998 44.1753 0.604433 44.4648C0.792869 44.7543 1.08947 44.9578 1.42903 45.0304C1.76912 45.1016 2.12377 45.0362 2.41539 44.8485C2.70701 44.6609 2.91185 44.3662 2.9851 44.0291C3.0572 43.6945 2.99347 43.3452 2.80774 43.0569C2.622 42.7687 2.32925 42.5647 1.99294 42.4892C1.65337 42.4138 1.29755 42.4752 1.00347 42.6597C0.709393 42.8443 0.501049 43.137 0.424135 43.4737V43.4863ZM0.114623 39.4179C0.0439665 39.5736 0.00503282 39.7417 5.7589e-05 39.9124C-0.00491764 40.0831 0.0241568 40.2531 0.0856261 40.4127C0.147095 40.5722 0.239745 40.7181 0.358234 40.842C0.476724 40.9658 0.61872 41.0652 0.776062 41.1345C1.09225 41.2723 1.45049 41.2807 1.77287 41.1577C2.09524 41.0348 2.35566 40.7906 2.4975 40.4781C2.63815 40.1638 2.648 39.8071 2.52492 39.4857C2.40184 39.1642 2.15579 38.9039 1.84031 38.7616C1.68331 38.6913 1.51388 38.6523 1.34171 38.6471C1.16954 38.6418 0.998015 38.6702 0.836942 38.7308C0.67587 38.7914 0.528416 38.8829 0.403018 39C0.277619 39.1172 0.176726 39.2578 0.106135 39.4137L0.114623 39.4179ZM0.250306 35.2864C0.0471646 35.5655 -0.03613 35.9131 0.0187163 36.2531C0.0735625 36.593 0.262072 36.8975 0.542867 37.0997C0.824132 37.3013 1.17449 37.3839 1.51708 37.3295C1.85967 37.2751 2.16652 37.088 2.37031 36.8094C2.57389 36.5308 2.65786 36.1835 2.60381 35.8436C2.54977 35.5037 2.3621 35.1989 2.08198 34.9961C1.80055 34.7938 1.44989 34.7104 1.10664 34.764C0.763393 34.8176 0.455509 35.0039 0.250306 35.2822V35.2864ZM0.848135 31.2727C0.59186 31.5057 0.439057 31.83 0.423165 32.1746C0.407272 32.5191 0.529592 32.8559 0.763343 33.1112C0.999369 33.3639 1.32632 33.5141 1.67322 33.529C2.02012 33.544 2.35898 33.4226 2.61622 33.1912C2.87122 32.9583 3.02321 32.6348 3.03909 32.2913C3.05498 31.9478 2.93347 31.6119 2.70102 31.3568C2.46616 31.1025 2.13935 30.9509 1.79209 30.9351C1.44484 30.9193 1.10542 31.0407 0.848135 31.2727ZM1.84878 27.423C1.54977 27.5983 1.33312 27.8842 1.24646 28.2179C1.1598 28.5516 1.21021 28.9058 1.38662 29.2027C1.47444 29.3498 1.59064 29.4783 1.72859 29.5808C1.86653 29.6833 2.0235 29.7578 2.1905 29.8C2.35749 29.8422 2.53124 29.8513 2.70179 29.8268C2.87233 29.8022 3.03633 29.7446 3.18438 29.6571C3.48224 29.4818 3.69806 29.1967 3.78466 28.864C3.87127 28.5313 3.8216 28.1781 3.64654 27.8816C3.56012 27.7336 3.44513 27.604 3.30816 27.5002C3.17118 27.3964 3.01492 27.3205 2.84831 27.2767C2.68171 27.2329 2.50804 27.2222 2.33724 27.2452C2.16645 27.2681 2.00191 27.3242 1.85303 27.4104H1.83182L1.84878 27.423ZM3.22254 23.7711C3.05958 23.8265 2.90922 23.9132 2.78008 24.0263C2.65095 24.1395 2.54555 24.2767 2.46994 24.4303C2.39433 24.5839 2.34998 24.7508 2.33943 24.9214C2.32888 25.092 2.35234 25.263 2.40846 25.4246C2.52206 25.7504 2.76143 26.0181 3.07391 26.1688C3.3864 26.3195 3.74642 26.3408 4.07478 26.2281C4.4029 26.1162 4.67287 25.8797 4.82549 25.5706C4.9781 25.2614 5.0009 24.9047 4.88886 24.5789C4.77424 24.2537 4.53496 23.9865 4.22299 23.8352C3.91102 23.684 3.55152 23.6609 3.22254 23.7711ZM4.96941 20.3338C4.79874 20.3556 4.63408 20.4105 4.48482 20.4955C4.33556 20.5805 4.20462 20.6938 4.09949 20.8289C3.99437 20.9641 3.9171 21.1185 3.87212 21.2833C3.82714 21.4481 3.81533 21.6201 3.83734 21.7895C3.85932 21.9588 3.91469 22.1222 4.00031 22.2703C4.08594 22.4185 4.20013 22.5484 4.33636 22.6527C4.47259 22.757 4.6282 22.8337 4.79429 22.8783C4.96038 22.9229 5.13371 22.9347 5.30438 22.9128C5.47545 22.891 5.6405 22.8359 5.79007 22.7507C5.93964 22.6655 6.07078 22.5518 6.17596 22.4161C6.28114 22.2805 6.3583 22.1256 6.403 21.9603C6.4477 21.795 6.45907 21.6226 6.43646 21.4529C6.39 21.1121 6.20978 20.8034 5.93503 20.5938C5.66029 20.3842 5.31324 20.2907 4.96941 20.3338ZM7.04278 17.1363C6.87097 17.1236 6.69833 17.1448 6.53476 17.1985C6.37119 17.2521 6.2199 17.3373 6.08954 17.4491C5.95918 17.5608 5.85233 17.697 5.77507 17.8498C5.69782 18.0026 5.65169 18.169 5.63934 18.3395C5.61485 18.6831 5.7288 19.0224 5.95616 19.2827C6.18353 19.543 6.50571 19.7031 6.85197 19.7279C7.19829 19.7534 7.54064 19.6415 7.8038 19.4166C8.06696 19.1918 8.22939 18.8725 8.25541 18.5289C8.27993 18.1848 8.16612 17.8451 7.93886 17.5841C7.7116 17.3231 7.3894 17.1621 7.04278 17.1363ZM9.41294 14.1912C9.07839 14.098 8.72025 14.1405 8.4173 14.3094C8.11434 14.4782 7.8914 14.7596 7.7975 15.0915C7.75035 15.2556 7.73633 15.4273 7.75623 15.5968C7.77614 15.7663 7.82957 15.9302 7.91349 16.0792C7.9974 16.2281 8.11012 16.3591 8.2452 16.4647C8.38028 16.5703 8.53505 16.6484 8.70062 16.6945C9.03571 16.7878 9.39441 16.7454 9.69804 16.5766C10.0017 16.4078 10.2255 16.1264 10.3203 15.7941C10.4095 15.464 10.365 15.1123 10.1962 14.8143C10.0274 14.5163 9.74779 14.2956 9.41718 14.1996L9.41294 14.1912ZM12.0502 11.5322C11.8971 11.4543 11.73 11.407 11.5585 11.3932C11.387 11.3793 11.2144 11.3992 11.0506 11.4515C10.8868 11.5039 10.735 11.5877 10.6039 11.6983C10.4728 11.8089 10.3649 11.944 10.2864 12.096C10.2078 12.2479 10.1602 12.4137 10.1463 12.5839C10.1323 12.7541 10.1523 12.9253 10.2051 13.0878C10.2578 13.2504 10.3424 13.401 10.4538 13.5311C10.5652 13.6612 10.7014 13.7683 10.8545 13.8462C11.0076 13.9241 11.1747 13.9713 11.3463 13.9852C11.5178 13.999 11.6904 13.9792 11.8541 13.9268C12.0179 13.8745 12.1697 13.7906 12.3009 13.68C12.432 13.5695 12.5399 13.4344 12.6184 13.2824C12.7735 12.9767 12.8013 12.6228 12.6958 12.2969C12.5903 11.9711 12.36 11.6994 12.0545 11.5406L12.0502 11.5322ZM14.9249 9.1677C14.6521 8.95331 14.3047 8.85507 13.9589 8.8945C13.6131 8.93394 13.2973 9.10784 13.0805 9.37806C12.8647 9.64813 12.7658 9.99218 12.8056 10.3346C12.8453 10.677 13.0205 10.9897 13.2925 11.204C13.5646 11.4176 13.9107 11.5157 14.2554 11.4771C14.6001 11.4385 14.9155 11.2662 15.1327 10.9979C15.3466 10.7282 15.4447 10.3857 15.4058 10.0446C15.3669 9.70363 15.1941 9.39157 14.9249 9.17611V9.1677ZM18.0074 7.11034C17.8968 6.97918 17.7611 6.87097 17.6082 6.79192C17.4554 6.71287 17.2883 6.66454 17.1165 6.64968C16.9448 6.63483 16.7718 6.65375 16.6074 6.70537C16.4431 6.75698 16.2906 6.84027 16.1588 6.95047C16.0267 7.05989 15.9178 7.19413 15.8382 7.34547C15.7585 7.4968 15.7099 7.66226 15.6949 7.83232C15.6799 8.00239 15.6989 8.17371 15.7509 8.33645C15.8029 8.49919 15.8867 8.65014 15.9977 8.78063C16.2204 9.04491 16.5398 9.21064 16.8856 9.2414C17.2315 9.27217 17.5755 9.16546 17.8421 8.94471C18.1062 8.72315 18.2716 8.40723 18.3026 8.06543C18.3335 7.72363 18.2275 7.38349 18.0074 7.11876V7.11034ZM21.268 5.37695C21.1851 5.22712 21.0733 5.09497 20.9389 4.98806C20.8045 4.88115 20.6502 4.80158 20.4848 4.7539C20.3194 4.70623 20.1462 4.69139 19.975 4.71022C19.8038 4.72905 19.638 4.7812 19.4872 4.86367C19.3363 4.94547 19.2032 5.05603 19.0955 5.189C18.9878 5.32196 18.9077 5.47472 18.8596 5.6385C18.8116 5.80228 18.7966 5.97387 18.8155 6.14341C18.8344 6.31296 18.8869 6.47713 18.9699 6.62651C19.1357 6.92498 19.413 7.1469 19.7422 7.24448C20.0713 7.34205 20.4258 7.30748 20.7295 7.14821C21.0347 6.98351 21.2617 6.70563 21.3611 6.3753C21.4604 6.04497 21.4239 5.68906 21.2595 5.38537L21.268 5.37695ZM24.66 3.98014C24.6096 3.81686 24.5273 3.66503 24.4178 3.53331C24.3083 3.40159 24.1737 3.29257 24.0217 3.21248C23.8697 3.13239 23.7033 3.08279 23.532 3.06652C23.3607 3.05025 23.1879 3.06762 23.0233 3.11765C22.6909 3.21867 22.4123 3.44629 22.2486 3.75066C22.0849 4.05504 22.0494 4.41137 22.1499 4.74166C22.2526 5.07076 22.4823 5.34619 22.789 5.50778C23.0956 5.66938 23.4542 5.70402 23.7865 5.60414C24.1199 5.50749 24.4009 5.28347 24.5678 4.98132C24.7348 4.67917 24.774 4.32361 24.6769 3.99276L24.66 3.98014ZM28.2173 2.94095C28.1851 2.59791 28.0169 2.2816 27.7498 2.0615C27.4827 1.84141 27.1384 1.73553 26.7927 1.76712C26.6213 1.78192 26.4546 1.83017 26.3021 1.9091C26.1495 1.98803 26.0142 2.09608 25.9039 2.22704C25.7936 2.35801 25.7105 2.50931 25.6592 2.67225C25.608 2.8352 25.5898 3.00658 25.6055 3.17655C25.6378 3.51991 25.8058 3.83661 26.0727 4.05737C26.3397 4.27814 26.684 4.385 27.0301 4.35459C27.2017 4.33926 27.3685 4.29052 27.521 4.21115C27.6736 4.13179 27.8089 4.02335 27.9191 3.89205C28.0294 3.76075 28.1125 3.60916 28.1637 3.44596C28.2148 3.28276 28.2331 3.11115 28.2173 2.94095ZM31.8637 2.24254C31.9006 1.89957 31.7991 1.55607 31.5814 1.28719C31.3636 1.01832 31.0474 0.845972 30.702 0.807865C30.3568 0.770067 30.0106 0.869817 29.7395 1.08519C29.4683 1.30057 29.2945 1.61394 29.2561 1.95645C29.2192 2.29876 29.3201 2.64169 29.537 2.91045C29.7538 3.17921 30.0689 3.35199 30.4136 3.39112C30.7582 3.42897 31.1038 3.32979 31.3748 3.1153C31.6458 2.90081 31.8201 2.58849 31.8595 2.24675L31.8637 2.24254ZM35.5907 1.91017C35.696 1.58211 35.6658 1.22599 35.5069 0.919958C35.3479 0.613923 35.0731 0.382962 34.7427 0.27775C34.4121 0.173255 34.0532 0.203164 33.7448 0.360914C33.4364 0.518664 33.2036 0.791372 33.0976 1.1192C32.9923 1.44726 33.0224 1.80338 33.1814 2.10941C33.3404 2.41545 33.6152 2.64641 33.9456 2.75162C34.1095 2.80458 34.2824 2.82479 34.4543 2.81111C34.6261 2.79742 34.7936 2.75009 34.9469 2.67186C35.1003 2.59364 35.2365 2.48605 35.3477 2.35532C35.4589 2.22458 35.5429 2.07329 35.5949 1.91017H35.5907ZM39.3812 1.95224C39.5537 1.65347 39.6002 1.29914 39.5104 0.966532C39.4207 0.633925 39.202 0.350031 38.9021 0.176775C38.753 0.0908051 38.5882 0.0349009 38.4172 0.0122702C38.2463 -0.0103605 38.0725 0.000727708 37.9059 0.0448986C37.7392 0.0890695 37.583 0.165454 37.4462 0.269669C37.3094 0.373884 37.1947 0.503879 37.1086 0.652196C36.9361 0.950964 36.8897 1.3053 36.9794 1.6379C37.0692 1.97051 37.2878 2.25441 37.5877 2.42766C37.737 2.51429 37.9022 2.57073 38.0736 2.59371C38.245 2.61669 38.4193 2.60577 38.5864 2.56157C38.7535 2.51737 38.9102 2.44077 39.0474 2.33619C39.1845 2.23161 39.2994 2.10112 39.3855 1.95224H39.3812ZM54.4672 65.9026C54.4763 65.5581 54.3476 65.224 54.1093 64.9733C53.871 64.7226 53.5423 64.5757 53.1952 64.5647C52.8484 64.5557 52.5121 64.6835 52.2601 64.9201C52.0082 65.1567 51.8611 65.4828 51.8511 65.8269C51.846 65.9976 51.8749 66.1677 51.9361 66.3274C51.9972 66.487 52.0895 66.6332 52.2077 66.7574C52.3258 66.8817 52.4674 66.9816 52.6245 67.0515C52.7816 67.1214 52.951 67.1599 53.1231 67.1648C53.296 67.1715 53.4685 67.1441 53.6307 67.0841C53.7928 67.0241 53.9413 66.9328 54.0675 66.8153C54.1938 66.6979 54.2952 66.5567 54.366 66.4C54.4368 66.2434 54.4755 66.0743 54.4799 65.9026H54.4672ZM50.7826 67.859C50.8768 67.5271 50.8346 67.1716 50.6654 66.8704C50.4961 66.5693 50.2136 66.3468 49.8795 66.2518C49.5455 66.1571 49.1873 66.1978 48.8835 66.3651C48.5798 66.5323 48.3554 66.8124 48.2598 67.1438C48.1655 67.4752 48.207 67.8301 48.3754 68.1312C48.5438 68.4323 48.8254 68.6551 49.1587 68.7509C49.4921 68.8459 49.8498 68.8057 50.1534 68.6393C50.4571 68.4729 50.6818 68.1938 50.7784 67.8632L50.7826 67.859ZM46.9284 69.3063C47.0142 69.1582 47.0698 68.9949 47.0919 68.8255C47.1141 68.6561 47.1024 68.4841 47.0575 68.3192C47.0126 68.1543 46.9354 67.9998 46.8303 67.8646C46.7253 67.7293 46.5943 67.6159 46.4451 67.5308C46.2959 67.4457 46.1312 67.3906 45.9605 67.3686C45.7898 67.3466 45.6165 67.3582 45.4503 67.4028C45.2841 67.4473 45.1284 67.5239 44.9921 67.6282C44.8558 67.7325 44.7415 67.8624 44.6558 68.0105C44.5699 68.158 44.5142 68.3208 44.4918 68.4897C44.4694 68.6586 44.4808 68.8302 44.5253 68.9947C44.5698 69.1592 44.6465 69.3134 44.7511 69.4484C44.8557 69.5835 44.9862 69.6967 45.1349 69.7817C45.4357 69.954 45.7932 70.0007 46.1287 69.9116C46.4643 69.8224 46.7504 69.6047 46.9242 69.3063H46.9284ZM42.9556 70.2403C43.0747 70.1171 43.1683 69.9718 43.2309 69.8128C43.2935 69.6537 43.3239 69.4839 43.3203 69.3132C43.3168 69.1424 43.2794 68.9741 43.2103 68.8177C43.1411 68.6613 43.0416 68.52 42.9174 68.4017C42.7939 68.2833 42.648 68.1903 42.4882 68.1278C42.3284 68.0654 42.1578 68.0349 41.986 68.038C41.8143 68.0412 41.6449 68.0779 41.4875 68.1461C41.3301 68.2142 41.1878 68.3126 41.0688 68.4354C40.9488 68.558 40.8544 68.703 40.7912 68.862C40.7279 69.021 40.697 69.1908 40.7001 69.3617C40.7033 69.5326 40.7405 69.7012 40.8095 69.8577C40.8786 70.0143 40.9783 70.1558 41.1027 70.274C41.2267 70.3919 41.373 70.4843 41.5331 70.546C41.6933 70.6077 41.8641 70.6374 42.0358 70.6335C42.2075 70.6296 42.3768 70.5921 42.5339 70.5232C42.691 70.4543 42.8328 70.3553 42.9513 70.2319L42.9556 70.2403ZM38.9191 70.661C39.2143 70.4787 39.4247 70.1877 39.5042 69.8518C39.5836 69.5159 39.5257 69.1624 39.3431 68.8688C39.1593 68.5758 38.8661 68.367 38.5275 68.2882C38.189 68.2093 37.8328 68.2668 37.5368 68.448C37.2431 68.6295 37.0336 68.919 36.9541 69.2532C36.8747 69.5874 36.9318 69.9393 37.1128 70.2319C37.203 70.3772 37.3213 70.5035 37.4608 70.6033C37.6003 70.7032 37.7583 70.7747 37.9257 70.8138C38.0932 70.8529 38.2668 70.8588 38.4365 70.8311C38.6062 70.8035 38.7688 70.7428 38.9148 70.6526L38.9191 70.661ZM34.8699 70.5685C35.0344 70.5164 35.187 70.4326 35.3188 70.3219C35.4506 70.2111 35.559 70.0756 35.6378 69.9231C35.7166 69.7706 35.7643 69.6041 35.778 69.4333C35.7917 69.2625 35.7713 69.0906 35.7179 68.9277C35.611 68.5985 35.3767 68.325 35.0666 68.1672C34.7566 68.0094 34.396 67.9803 34.0643 68.0862C33.7349 68.1915 33.4608 68.4217 33.3019 68.7268C33.1431 69.0319 33.1123 69.3869 33.2163 69.7144C33.2678 69.8779 33.3515 70.0295 33.4626 70.1605C33.5737 70.2916 33.71 70.3994 33.8635 70.4777C34.017 70.556 34.1846 70.6032 34.3566 70.6166C34.5287 70.6301 34.7017 70.6094 34.8656 70.5559L34.8699 70.5685ZM30.8673 69.9668C31.0387 69.9525 31.2055 69.9048 31.3582 69.8264C31.5109 69.748 31.6465 69.6404 31.7572 69.5098C31.8679 69.3792 31.9515 69.2283 32.0033 69.0656C32.055 68.9028 32.0739 68.7316 32.0588 68.5616C32.0443 68.3914 31.9963 68.2257 31.9173 68.074C31.8383 67.9222 31.7299 67.7874 31.5984 67.6772C31.4669 67.5671 31.3148 67.4837 31.1508 67.4318C30.9868 67.38 30.8141 67.3607 30.6426 67.3752C30.4713 67.3895 30.3044 67.4372 30.1517 67.5156C29.999 67.5941 29.8634 67.7016 29.7527 67.8322C29.642 67.9628 29.5584 68.1138 29.5067 68.2765C29.4549 68.4392 29.436 68.6104 29.4512 68.7804C29.4824 69.1226 29.6489 69.4386 29.9143 69.6594C30.1797 69.8801 30.5223 69.9876 30.8673 69.9584V69.9668ZM26.9665 68.8688C27.31 68.9181 27.6592 68.8302 27.9374 68.6243C28.2157 68.4184 28.4002 68.1114 28.4505 67.7707C28.4757 67.6018 28.467 67.4297 28.425 67.2642C28.383 67.0987 28.3084 66.943 28.2056 66.8062C28.1027 66.6694 27.9737 66.554 27.8258 66.4669C27.6779 66.3797 27.5142 66.3223 27.3439 66.2981C27.0047 66.2484 26.6594 66.333 26.3825 66.5337C26.1056 66.7345 25.9194 67.0352 25.8641 67.371C25.837 67.5398 25.8438 67.7124 25.8842 67.8786C25.9246 68.0448 25.9977 68.2015 26.0994 68.3396C26.2011 68.4776 26.3293 68.5943 26.4767 68.683C26.6241 68.7717 26.7877 68.8305 26.958 68.8561L26.9665 68.8688ZM23.2268 67.2868C23.5449 67.4145 23.9006 67.4133 24.2177 67.2834C24.5349 67.1536 24.788 66.9056 24.9228 66.5926C25.0569 66.2745 25.0585 65.9167 24.9274 65.5974C24.7963 65.2781 24.5432 65.0233 24.2232 64.8887C23.9027 64.7557 23.5421 64.754 23.2203 64.8841C22.8985 65.0142 22.6417 65.2654 22.506 65.5829C22.3779 65.8995 22.3804 66.2534 22.5128 66.5682C22.6453 66.883 22.8972 67.1336 23.2141 67.2658L23.2268 67.2868ZM19.7034 65.2295C19.842 65.3303 19.9992 65.4029 20.1661 65.4433C20.333 65.4837 20.5063 65.491 20.6761 65.4648C20.8458 65.4386 21.0087 65.3795 21.1554 65.2907C21.3021 65.2019 21.4297 65.0854 21.5308 64.9476C21.6325 64.8098 21.7058 64.6534 21.7466 64.4874C21.7874 64.3215 21.7948 64.1492 21.7684 63.9804C21.742 63.8116 21.6823 63.6496 21.5928 63.5037C21.5033 63.3578 21.3857 63.2308 21.2468 63.13C21.1084 63.0287 20.9512 62.9556 20.7842 62.9149C20.6172 62.8742 20.4437 62.8667 20.2738 62.893C20.1039 62.9192 19.9409 62.9785 19.7942 63.0676C19.6476 63.1567 19.5202 63.2737 19.4193 63.4119C19.3174 63.5495 19.2438 63.7056 19.2027 63.8714C19.1617 64.0372 19.1539 64.2094 19.1799 64.3782C19.2059 64.547 19.2651 64.709 19.3542 64.8551C19.4433 65.0012 19.5605 65.1284 19.6992 65.2295H19.7034ZM16.4556 62.7051C16.5661 62.8358 16.7017 62.9436 16.8543 63.0222C17.007 63.1008 17.1738 63.1487 17.3452 63.1632C17.5166 63.1777 17.6891 63.1584 17.853 63.1065C18.0168 63.0546 18.1687 62.9711 18.3 62.8608C18.5651 62.6385 18.7305 62.321 18.7599 61.9779C18.7893 61.6348 18.6803 61.2941 18.4569 61.0306C18.2336 60.7682 17.9148 60.6041 17.57 60.5741C17.2252 60.5442 16.8825 60.6508 16.6167 60.8707C16.4843 60.9799 16.375 61.1139 16.295 61.2651C16.215 61.4163 16.1659 61.5816 16.1506 61.7517C16.1352 61.9218 16.1539 62.0932 16.2055 62.2561C16.2571 62.419 16.3406 62.5702 16.4513 62.7009L16.4556 62.7051ZM13.53 59.76C13.6833 60.0688 13.9537 60.3046 14.282 60.4158C14.6102 60.527 14.9695 60.5045 15.2811 60.3533C15.5922 60.2011 15.8299 59.9328 15.942 59.6071C16.0541 59.2813 16.0314 58.9248 15.8789 58.6157C15.8038 58.4626 15.699 58.3256 15.5706 58.2127C15.4421 58.0998 15.2925 58.0132 15.1303 57.9577C14.968 57.9022 14.7964 57.879 14.6251 57.8894C14.4538 57.8998 14.2863 57.9436 14.1321 58.0182C13.8222 58.1673 13.5842 58.4317 13.4699 58.7539C13.3556 59.0762 13.3741 59.4302 13.5215 59.739L13.5469 59.7853L13.53 59.76ZM10.986 56.4321C11.0217 56.5987 11.0902 56.7568 11.1876 56.8971C11.285 57.0375 11.4093 57.1574 11.5535 57.25C11.6976 57.3427 11.8588 57.4061 12.0277 57.4369C12.1966 57.4676 12.3699 57.465 12.5378 57.4292C12.7062 57.3942 12.8659 57.3266 13.0078 57.2301C13.1497 57.1337 13.2711 57.0104 13.3648 56.8673C13.4586 56.7242 13.5229 56.5642 13.5542 56.3964C13.5854 56.2285 13.583 56.0562 13.5469 55.8893C13.4736 55.5531 13.2694 55.2592 12.9788 55.0716C12.6881 54.8841 12.3346 54.8181 11.9951 54.888C11.8263 54.9221 11.666 54.9889 11.5232 55.0846C11.3805 55.1803 11.2582 55.3029 11.1632 55.4456C11.0683 55.5882 11.0027 55.748 10.9701 55.9158C10.9375 56.0837 10.9386 56.2562 10.9733 56.4237V56.4657L10.986 56.4321ZM8.86597 52.7381C8.86089 52.9089 8.88977 53.0789 8.95096 53.2386C9.01214 53.3982 9.10443 53.5444 9.22256 53.6686C9.34069 53.7929 9.48234 53.8928 9.63941 53.9627C9.79649 54.0326 9.9659 54.0711 10.138 54.076C10.4848 54.0851 10.821 53.9573 11.073 53.7207C11.325 53.4841 11.4721 53.1579 11.4821 52.8138C11.4871 52.6431 11.4583 52.473 11.3971 52.3134C11.3359 52.1537 11.2436 52.0076 11.1255 51.8833C11.0073 51.7591 10.8657 51.6591 10.7086 51.5892C10.5515 51.5193 10.3821 51.4808 10.2101 51.4759C10.0373 51.4698 9.86499 51.4976 9.7031 51.5578C9.54121 51.618 9.39293 51.7094 9.26681 51.8267C9.14069 51.944 9.03921 52.085 8.96823 52.2414C8.89725 52.3978 8.85818 52.5666 8.85325 52.7381H8.86597ZM7.26325 48.8169C7.15937 49.1439 7.19029 49.4984 7.34922 49.8027C7.50816 50.1071 7.78217 50.3366 8.11125 50.4409C8.44074 50.544 8.79797 50.5134 9.10472 50.3556C9.41147 50.1979 9.64275 49.926 9.7479 49.5995C9.85062 49.2725 9.81917 48.9186 9.66039 48.6145C9.50161 48.3104 9.22832 48.0808 8.8999 47.9755C8.56704 47.8758 8.20794 47.911 7.90119 48.0734C7.59445 48.2359 7.36506 48.5123 7.26325 48.8422V48.8169ZM6.22446 44.8242C6.13792 44.9719 6.08165 45.1351 6.0589 45.3044C6.03615 45.4737 6.04737 45.6459 6.0919 45.8109C6.13642 45.9759 6.21339 46.1305 6.31836 46.2659C6.42334 46.4013 6.55426 46.5147 6.70358 46.5997C6.85279 46.6848 7.01744 46.74 7.18813 46.762C7.35882 46.7839 7.5322 46.7723 7.69837 46.7278C7.86453 46.6832 8.02022 46.6066 8.15654 46.5024C8.29286 46.3981 8.40715 46.2682 8.49286 46.1201C8.57891 45.9728 8.63489 45.8102 8.65759 45.6415C8.6803 45.4728 8.66929 45.3013 8.62519 45.1368C8.5811 44.9724 8.50477 44.8181 8.40058 44.6829C8.29639 44.5477 8.16638 44.4342 8.01797 44.3488C7.71547 44.1792 7.35747 44.1358 7.02272 44.2282C6.68797 44.3205 6.40388 44.5409 6.23294 44.8411L6.22446 44.8242ZM5.72838 40.8063C5.6062 40.9268 5.50925 41.07 5.44309 41.2277C5.37692 41.3855 5.34286 41.5547 5.34286 41.7256C5.34286 41.8965 5.37692 42.0657 5.44309 42.2234C5.50925 42.3812 5.6062 42.5244 5.72838 42.6449C5.85004 42.7656 5.99446 42.8614 6.15342 42.9267C6.31238 42.992 6.48276 43.0257 6.65481 43.0257C6.82687 43.0257 6.99725 42.992 7.15621 42.9267C7.31516 42.8614 7.45959 42.7656 7.58125 42.6449C7.7032 42.5244 7.80004 42.3813 7.86624 42.2238C7.93245 42.0662 7.96674 41.8972 7.96713 41.7265C7.96753 41.5557 7.93403 41.3866 7.86855 41.2287C7.80307 41.0708 7.70688 40.9273 7.5855 40.8063C7.46217 40.6872 7.31642 40.5934 7.15655 40.5302C6.99669 40.4671 6.82585 40.4357 6.65379 40.4381C6.48173 40.4404 6.31182 40.4764 6.15376 40.5439C5.9957 40.6114 5.8526 40.7092 5.73262 40.8316L5.72838 40.8063ZM5.74958 36.8431C5.60297 36.933 5.47565 37.0507 5.37496 37.1895C5.27427 37.3283 5.20217 37.4854 5.16278 37.6519C5.12339 37.8184 5.11751 37.991 5.14544 38.1597C5.17338 38.3285 5.23459 38.4901 5.32558 38.6354C5.50933 38.9283 5.80258 39.1371 6.14112 39.2159C6.47966 39.2948 6.83589 39.2373 7.13181 39.0561C7.42559 38.8746 7.63508 38.5851 7.71452 38.2509C7.79396 37.9167 7.7369 37.5648 7.55581 37.2722C7.36668 36.9835 7.06982 36.781 6.73038 36.7092C6.39095 36.6374 6.03668 36.7022 5.74534 36.8894L5.74958 36.8431ZM6.26262 32.9724C6.09807 33.0244 5.94551 33.1082 5.81372 33.219C5.68194 33.3298 5.57351 33.4653 5.4947 33.6178C5.41589 33.7703 5.36825 33.9367 5.3545 34.1076C5.34076 34.2784 5.36119 34.4503 5.41462 34.6132C5.46753 34.7767 5.55244 34.9281 5.66447 35.0589C5.7765 35.1897 5.91345 35.2973 6.06747 35.3755C6.22149 35.4537 6.38955 35.5009 6.56201 35.5145C6.73447 35.5281 6.90794 35.5078 7.07246 35.4547C7.4012 35.3485 7.67454 35.118 7.83326 34.8133C7.99199 34.5085 8.02331 34.154 7.92046 33.8265C7.80585 33.5033 7.56771 33.2379 7.25751 33.0875C6.9473 32.9372 6.58994 32.9139 6.26262 33.0229V32.9724ZM7.23781 29.2405C7.0661 29.2543 6.89882 29.3017 6.74562 29.3799C6.59243 29.4581 6.45634 29.5656 6.3452 29.6962C6.23406 29.8268 6.15007 29.978 6.09806 30.1409C6.04604 30.3039 6.02703 30.4755 6.04213 30.6458C6.05656 30.816 6.10464 30.9817 6.18362 31.1334C6.26261 31.2852 6.37096 31.42 6.50248 31.5302C6.63399 31.6403 6.78609 31.7237 6.95009 31.7756C7.1141 31.8274 7.2868 31.8466 7.4583 31.8322C7.80426 31.8022 8.12419 31.6376 8.34823 31.3743C8.57226 31.111 8.68217 30.7704 8.65397 30.427C8.61547 30.0901 8.44586 29.7815 8.18131 29.5669C7.91675 29.3523 7.57819 29.2488 7.23781 29.2784V29.2405ZM8.6455 25.6896C8.47534 25.6646 8.30188 25.6732 8.13509 25.7149C7.96829 25.7566 7.81143 25.8306 7.67354 25.9327C7.53564 26.0347 7.41943 26.1628 7.33156 26.3095C7.24369 26.4562 7.18589 26.6188 7.1615 26.7877C7.13755 26.9568 7.1474 27.1289 7.19048 27.2942C7.23356 27.4595 7.30903 27.6147 7.41257 27.7511C7.51612 27.8874 7.64573 28.0022 7.79398 28.0888C7.94223 28.1755 8.10624 28.2323 8.27662 28.256C8.61122 28.3028 8.95111 28.2195 9.22527 28.0235C9.49944 27.8275 9.68668 27.534 9.7479 27.2042C9.80027 26.8629 9.71408 26.5148 9.50822 26.2364C9.30236 25.958 8.99363 25.7719 8.64974 25.7191L8.6455 25.6896ZM10.456 22.3617C10.1379 22.2352 9.78254 22.2369 9.46573 22.3666C9.14892 22.4963 8.89567 22.7436 8.75997 23.0559C8.62592 23.374 8.62428 23.7318 8.75538 24.0511C8.88648 24.3704 9.13967 24.6252 9.45958 24.7598C9.77769 24.8863 10.133 24.8846 10.4498 24.7549C10.7666 24.6252 11.0199 24.3779 11.1556 24.0656C11.2711 23.7535 11.2621 23.4094 11.1305 23.1037C10.9989 22.7979 10.7546 22.5536 10.4475 22.4206L10.456 22.3617ZM12.6438 19.2904C12.5049 19.1895 12.3473 19.1167 12.1801 19.0763C12.0128 19.0358 11.8392 19.0285 11.6691 19.0547C11.499 19.0809 11.3358 19.14 11.1887 19.2289C11.0417 19.3177 10.9137 19.4344 10.8121 19.5723C10.7104 19.7101 10.6371 19.8664 10.5964 20.0324C10.5556 20.1983 10.5482 20.3706 10.5746 20.5394C10.601 20.7082 10.6606 20.8702 10.7501 21.0161C10.8396 21.162 10.9572 21.289 11.0962 21.3898C11.2351 21.4907 11.3927 21.5634 11.5599 21.6039C11.7272 21.6443 11.9008 21.6517 12.0709 21.6255C12.241 21.5993 12.4043 21.5401 12.5513 21.4513C12.6984 21.3625 12.8263 21.2458 12.9279 21.1079C13.1204 20.832 13.1983 20.493 13.1454 20.1616C13.0924 19.8301 12.9128 19.5316 12.6438 19.3282V19.2904ZM15.1878 16.5052C15.0769 16.3743 14.941 16.2664 14.788 16.1878C14.6349 16.1091 14.4678 16.0612 14.296 16.0467C14.1243 16.0322 13.9514 16.0516 13.7872 16.1035C13.623 16.1555 13.4708 16.2391 13.3392 16.3495C13.0741 16.5717 12.9087 16.8893 12.8793 17.2324C12.8499 17.5755 12.9588 17.9162 13.1823 18.1797C13.4063 18.4423 13.7258 18.6065 14.0713 18.6365C14.4168 18.6664 14.7602 18.5597 15.0267 18.3395C15.2803 18.1172 15.4378 17.8063 15.4662 17.4717C15.4946 17.137 15.3919 16.8044 15.1793 16.543L15.1878 16.5052ZM18.0456 14.0397C17.8892 13.7329 17.617 13.4997 17.2883 13.391C16.9596 13.2823 16.6008 13.3067 16.2902 13.4591C15.9791 13.6112 15.7414 13.8795 15.6293 14.2053C15.5172 14.531 15.5399 14.8875 15.6924 15.1967C15.8449 15.5062 16.115 15.743 16.4433 15.855C16.7717 15.967 17.1314 15.9451 17.4435 15.7941C17.7392 15.6408 17.9651 15.3816 18.0754 15.069C18.1856 14.7565 18.1719 14.4141 18.0371 14.1112L18.0456 14.0397ZM21.2001 11.9361C21.1644 11.7689 21.0957 11.6103 20.9981 11.4694C20.9005 11.3286 20.7759 11.2082 20.6314 11.1152C20.4868 11.0222 20.3252 10.9584 20.1558 10.9274C19.9864 10.8964 19.8125 10.8989 19.6441 10.9347C19.4757 10.9697 19.316 11.0374 19.1741 11.1338C19.0321 11.2302 18.9108 11.3535 18.817 11.4966C18.7233 11.6397 18.6589 11.7998 18.6277 11.9676C18.5964 12.1354 18.5989 12.3077 18.6349 12.4746C18.712 12.8086 18.9184 13.0992 19.2096 13.2834C19.5007 13.4676 19.8533 13.5307 20.191 13.4591C20.5258 13.3853 20.8184 13.185 21.0068 12.9006C21.1952 12.6163 21.2645 12.2703 21.2001 11.9361ZM24.6303 10.1774C24.6394 9.83291 24.5108 9.49881 24.2724 9.24811C24.0341 8.99742 23.7054 8.85053 23.3583 8.83953C23.1862 8.83334 23.0146 8.86088 22.8532 8.92055C22.6919 8.98023 22.544 9.07089 22.418 9.18733C22.292 9.30377 22.1903 9.44372 22.1188 9.59917C22.0474 9.75463 22.0075 9.92253 22.0015 10.0933C21.9964 10.264 22.0253 10.4341 22.0865 10.5938C22.1476 10.7534 22.2399 10.8996 22.3581 11.0238C22.4762 11.1481 22.6179 11.248 22.7749 11.3179C22.932 11.3878 23.1014 11.4263 23.2735 11.4312C23.6182 11.4426 23.9535 11.3187 24.2067 11.0864C24.4599 10.854 24.6106 10.5319 24.626 10.1901L24.6303 10.1774ZM31.1217 64.4133C31.375 64.1773 31.5239 63.8515 31.5358 63.507C31.5478 63.1625 31.4217 62.8273 31.1853 62.5747C31.0679 62.4497 30.9268 62.349 30.7701 62.2782C30.6134 62.2073 30.4442 62.1679 30.2721 62.162C30.1 62.1562 29.9284 62.184 29.7672 62.244C29.606 62.304 29.4582 62.3949 29.3324 62.5116C29.0804 62.744 28.9311 63.0658 28.9168 63.4069C28.9025 63.748 29.0244 64.0809 29.2561 64.3333C29.3712 64.4602 29.5103 64.5632 29.6656 64.6366C29.8209 64.7099 29.9893 64.7521 30.1611 64.7607C30.3328 64.7693 30.5046 64.7442 30.6666 64.6867C30.8285 64.6292 30.9774 64.5406 31.1048 64.4259L31.1217 64.4133ZM27.1361 63.1763C27.448 63.025 27.6866 62.757 27.7995 62.4312C27.9124 62.1054 27.8904 61.7484 27.7382 61.4387C27.5856 61.1293 27.3158 60.8923 26.9877 60.7796C26.6596 60.6669 26.2999 60.6875 25.9871 60.8371C25.6752 60.9884 25.4366 61.2565 25.3237 61.5823C25.2108 61.9081 25.2328 62.265 25.385 62.5747C25.4593 62.7285 25.5636 62.8663 25.6918 62.9799C25.82 63.0935 25.9697 63.1808 26.1321 63.2368C26.2945 63.2927 26.4665 63.3162 26.6381 63.3058C26.8097 63.2954 26.9775 63.2514 27.1319 63.1763H27.1361ZM23.4516 61.3756C23.7938 61.3189 24.0994 61.1298 24.3013 60.8498C24.5032 60.5698 24.5849 60.2218 24.5285 59.882C24.5007 59.7135 24.4397 59.5521 24.349 59.4069C24.2583 59.2618 24.1397 59.1358 23.9999 59.0362C23.8601 58.9366 23.702 58.8652 23.5344 58.8263C23.3668 58.7873 23.1932 58.7815 23.0233 58.8092C22.6811 58.8659 22.3755 59.055 22.1736 59.335C21.9717 59.615 21.89 59.963 21.9464 60.3028C22.0016 60.643 22.1907 60.9477 22.4721 61.1496C22.7536 61.3516 23.1044 61.4344 23.4473 61.3798L23.4516 61.3756ZM20.1189 59.0532C20.4635 59.0948 20.8107 58.999 21.0842 58.7868C21.3577 58.5746 21.5351 58.2634 21.5775 57.9214C21.6194 57.5795 21.5228 57.235 21.309 56.9636C21.0951 56.6923 20.7815 56.5162 20.4369 56.4742C20.2665 56.453 20.0936 56.4653 19.928 56.5106C19.7624 56.5558 19.6074 56.633 19.4719 56.7377C19.3364 56.8424 19.2231 56.9727 19.1384 57.1209C19.0537 57.2692 18.9993 57.4326 18.9784 57.6017C18.9352 57.9437 19.0306 58.2887 19.2437 58.5609C19.4568 58.8331 19.7701 59.0101 20.1147 59.0532H20.1189ZM17.1891 56.2638C17.5054 56.3933 17.8603 56.3945 18.1775 56.267C18.4947 56.1396 18.7488 55.8937 18.8851 55.5822C18.9536 55.4254 18.9903 55.2566 18.9928 55.0857C18.9954 54.9148 18.9638 54.745 18.9 54.5863C18.8361 54.4275 18.7412 54.2828 18.6208 54.1606C18.5004 54.0384 18.3567 53.941 18.1982 53.8741C18.0404 53.8067 17.8707 53.7709 17.6989 53.7687C17.5271 53.7665 17.3566 53.7979 17.1971 53.8612C17.0375 53.9246 16.8922 54.0185 16.7693 54.1376C16.6464 54.2568 16.5485 54.3988 16.481 54.5556C16.4132 54.7125 16.3774 54.8811 16.3754 55.0518C16.3735 55.2224 16.4056 55.3918 16.4698 55.5501C16.534 55.7084 16.6291 55.8526 16.7496 55.9744C16.8702 56.0961 17.0137 56.193 17.1721 56.2596L17.1891 56.2638ZM14.7214 53.0663C14.8536 53.1753 15.0063 53.2572 15.1706 53.3073C15.3348 53.3575 15.5075 53.3748 15.6786 53.3584C15.8497 53.342 16.0158 53.2921 16.1673 53.2116C16.3189 53.1311 16.4529 53.0217 16.5616 52.8896C16.6715 52.758 16.7542 52.6062 16.8048 52.4429C16.8553 52.2795 16.8729 52.1078 16.8563 51.9377C16.8398 51.7676 16.7895 51.6024 16.7083 51.4517C16.6272 51.301 16.5168 51.1676 16.3835 51.0594C16.251 50.951 16.0983 50.8695 15.9341 50.8197C15.7699 50.7698 15.5974 50.7526 15.4265 50.769C15.2556 50.7855 15.0896 50.8352 14.938 50.9153C14.7865 50.9955 14.6524 51.1045 14.5433 51.2361C14.4334 51.3676 14.3507 51.5195 14.3001 51.6828C14.2496 51.8462 14.232 52.0179 14.2486 52.188C14.2651 52.3581 14.3154 52.5232 14.3966 52.674C14.4777 52.8247 14.5881 52.958 14.7214 53.0663ZM12.7625 49.5322C12.8591 49.6735 12.983 49.7944 13.1269 49.8879C13.2709 49.9814 13.4321 50.0457 13.6013 50.077C13.7704 50.1083 13.9441 50.106 14.1124 50.0703C14.2806 50.0345 14.4401 49.966 14.5815 49.8688C14.7239 49.7729 14.8458 49.65 14.94 49.5072C15.0343 49.3643 15.099 49.2044 15.1306 49.0365C15.1621 48.8687 15.1598 48.6963 15.1238 48.5293C15.0877 48.3624 15.0187 48.2042 14.9207 48.0638C14.8241 47.9232 14.7005 47.8029 14.557 47.7096C14.4136 47.6164 14.253 47.5521 14.0845 47.5205C13.916 47.4888 13.7428 47.4904 13.5749 47.5252C13.407 47.56 13.2477 47.6272 13.106 47.7231C12.8199 47.9188 12.6236 48.2191 12.56 48.5581C12.4965 48.8972 12.5708 49.2474 12.7668 49.5322H12.7625ZM11.3591 45.7456C11.4115 45.9089 11.496 46.0603 11.6076 46.1911C11.7193 46.3218 11.8558 46.4294 12.0095 46.5076C12.1632 46.5858 12.331 46.6331 12.5031 46.6467C12.6753 46.6604 12.8485 46.6401 13.0127 46.5871C13.1772 46.535 13.3298 46.4512 13.4616 46.3405C13.5934 46.2297 13.7018 46.0942 13.7806 45.9417C13.8594 45.7892 13.9071 45.6227 13.9208 45.4519C13.9346 45.2811 13.9141 45.1092 13.8607 44.9463C13.7546 44.6194 13.5225 44.3475 13.2151 44.1898C12.9077 44.0322 12.5499 44.0016 12.2198 44.1048C11.8904 44.2101 11.6164 44.4404 11.4575 44.7454C11.2986 45.0505 11.2678 45.4055 11.3718 45.733L11.3591 45.7456ZM10.5493 41.7487C10.5536 41.92 10.5922 42.0887 10.6627 42.2451C10.7332 42.4015 10.8343 42.5425 10.9601 42.6599C11.0859 42.7773 11.2339 42.8687 11.3955 42.929C11.5572 42.9892 11.7292 43.0171 11.9018 43.0109C12.0746 43.006 12.2448 42.9673 12.4024 42.8968C12.56 42.8264 12.7021 42.7257 12.8203 42.6006C12.9386 42.4754 13.0307 42.3283 13.0913 42.1676C13.152 42.007 13.18 41.836 13.1738 41.6646C13.1711 41.4924 13.1339 41.3225 13.0644 41.1647C12.995 41.0069 12.8946 40.8643 12.7692 40.7453C12.6437 40.6264 12.4957 40.5333 12.3337 40.4715C12.1717 40.4098 11.999 40.3805 11.8255 40.3856C11.4795 40.3955 11.1515 40.5409 10.9131 40.79C10.6748 41.0391 10.5455 41.3717 10.5535 41.7151L10.5493 41.7487ZM10.3712 37.6382C10.3279 37.8037 10.3181 37.9761 10.3423 38.1454C10.3665 38.3146 10.4242 38.4775 10.5121 38.6245C10.6 38.7716 10.7163 38.8999 10.8544 39.0021C10.9925 39.1044 11.1496 39.1785 11.3167 39.2202C11.6529 39.3044 12.009 39.2529 12.3071 39.0771C12.6051 38.9012 12.8207 38.6153 12.9067 38.282C12.9919 37.9495 12.9412 37.5971 12.7656 37.3016C12.5901 37.0061 12.304 36.7913 11.9697 36.7042C11.6369 36.6205 11.2844 36.6697 10.9879 36.8412C10.6913 37.0127 10.4745 37.2929 10.3839 37.6214L10.3712 37.6382ZM10.8503 33.4941C10.7612 33.6403 10.7021 33.8026 10.6765 33.9717C10.6508 34.1407 10.6591 34.313 10.7009 34.4788C10.7427 34.6446 10.8171 34.8006 10.9199 34.9378C11.0226 35.0749 11.1517 35.1905 11.2997 35.278C11.4476 35.366 11.6117 35.4242 11.7823 35.449C11.953 35.4738 12.1269 35.4648 12.2941 35.4226C12.4612 35.3803 12.6183 35.3057 12.7562 35.2028C12.8941 35.1 13.0101 34.9711 13.0975 34.8236C13.2767 34.5284 13.3305 34.1747 13.247 33.8402C13.1635 33.5057 12.9496 33.2178 12.6523 33.0397C12.3578 32.8638 12.0056 32.8093 11.6712 32.8879C11.3367 32.9666 11.0466 33.1721 10.863 33.4604L10.8503 33.4941ZM11.9993 29.4004C11.7437 29.634 11.5916 29.9586 11.5765 30.3032C11.5614 30.6478 11.6845 30.9842 11.9188 31.239C12.1548 31.4921 12.4822 31.6422 12.8295 31.6564C13.1767 31.6706 13.5155 31.5477 13.7717 31.3147C14.0271 31.0818 14.179 30.7579 14.1941 30.4141C14.2092 30.0702 14.0862 29.7344 13.8522 29.4804C13.6206 29.2252 13.2966 29.0714 12.951 29.0525C12.6054 29.0335 12.2663 29.1511 12.0078 29.3794L11.9993 29.4004ZM13.7717 25.5592C13.6165 25.6333 13.4776 25.7372 13.363 25.8648C13.2484 25.9924 13.1604 26.1413 13.1041 26.3028C13.0477 26.4643 13.0241 26.6353 13.0346 26.8059C13.0451 26.9765 13.0896 27.1433 13.1653 27.2968C13.318 27.6062 13.5878 27.8432 13.9159 27.9559C14.244 28.0686 14.6037 28.048 14.9164 27.8984C15.2283 27.747 15.4671 27.4792 15.5807 27.1537C15.6943 26.8281 15.6735 26.4712 15.5228 26.1608C15.3748 25.849 15.1081 25.6083 14.7813 25.4915C14.4546 25.3748 14.0945 25.3916 13.7801 25.5382L13.7717 25.5592ZM16.0613 22.1471C15.8914 22.1747 15.7287 22.2352 15.5824 22.3252C15.4362 22.4152 15.3092 22.5329 15.2088 22.6716C15.1084 22.8103 15.0365 22.9673 14.9973 23.1336C14.958 23.2998 14.9522 23.4722 14.9801 23.6407C15.0381 23.9804 15.2298 24.2833 15.5128 24.4828C15.7958 24.6824 16.1471 24.7624 16.4895 24.7051C16.832 24.6484 17.1379 24.4594 17.3405 24.1796C17.5431 23.8997 17.6258 23.5517 17.5707 23.2115C17.5183 22.8712 17.3325 22.5652 17.0537 22.3603C16.7749 22.1554 16.4258 22.0682 16.0824 22.1177L16.0613 22.1471ZM18.7833 19.202C18.442 19.1639 18.0993 19.2602 17.8289 19.4703C17.5585 19.6804 17.382 19.9874 17.3375 20.3254C17.2956 20.6673 17.3921 21.0118 17.606 21.2832C17.8198 21.5545 18.1335 21.7306 18.4781 21.7727C18.649 21.7938 18.8225 21.7814 18.9886 21.7359C19.1547 21.6905 19.3102 21.613 19.446 21.5079C19.5819 21.4027 19.6956 21.2721 19.7805 21.1233C19.8654 20.9745 19.9199 20.8106 19.9408 20.6409C19.9388 20.6312 19.9388 20.6212 19.9408 20.6115C19.9793 20.2717 19.8818 19.9305 19.6693 19.6614C19.4567 19.3923 19.1462 19.2168 18.8045 19.1726L18.7833 19.202ZM21.8531 16.7492C21.695 16.6817 21.525 16.6458 21.3529 16.6436C21.1808 16.6413 21.0099 16.6728 20.8501 16.736C20.6902 16.7993 20.5445 16.8933 20.4212 17.0125C20.2979 17.1317 20.1995 17.2738 20.1316 17.4308C20.0631 17.5876 20.0265 17.7563 20.0239 17.9273C20.0214 18.0982 20.0529 18.2679 20.1168 18.4267C20.1806 18.5855 20.2755 18.7302 20.3959 18.8524C20.5164 18.9746 20.66 19.072 20.8185 19.1389C20.9767 19.2064 21.1466 19.2423 21.3187 19.2445C21.4908 19.2468 21.6617 19.2153 21.8216 19.152C21.9814 19.0887 22.1272 18.9948 22.2504 18.8756C22.3737 18.7564 22.4721 18.6143 22.54 18.4573C22.6822 18.1431 22.6934 17.7858 22.5711 17.4634C22.4487 17.141 22.2028 16.8797 21.887 16.7366H21.8616L21.8531 16.7492ZM25.1984 14.8012C25.0659 14.6921 24.9129 14.6101 24.7483 14.5599C24.5836 14.5097 24.4106 14.4923 24.2392 14.5088C24.0678 14.5252 23.9013 14.5751 23.7494 14.6556C23.5975 14.7361 23.4631 14.8457 23.354 14.9779C23.2441 15.1095 23.1614 15.2613 23.1109 15.4246C23.0603 15.588 23.0427 15.7597 23.0593 15.9298C23.0759 16.0999 23.1262 16.2651 23.2073 16.4158C23.2885 16.5665 23.3988 16.6999 23.5321 16.8081C23.6649 16.9167 23.818 16.9982 23.9825 17.0481C24.1471 17.098 24.3199 17.1152 24.4912 17.0988C24.6625 17.0824 24.8288 17.0327 24.9807 16.9525C25.1326 16.8723 25.2671 16.7632 25.3765 16.6314C25.6012 16.3683 25.7118 16.0276 25.684 15.6838C25.6561 15.34 25.4922 15.0212 25.2281 14.797H25.2069L25.1984 14.8012ZM28.7388 13.375C28.5462 13.0875 28.2466 12.8876 27.9056 12.8189C27.5646 12.7503 27.2102 12.8187 26.9199 13.0089C26.6305 13.1993 26.4291 13.4959 26.3599 13.8335C26.2907 14.1712 26.3595 14.5223 26.551 14.8096C26.7429 15.0968 27.0418 15.2967 27.382 15.3653C27.7223 15.4339 28.0761 15.3657 28.3657 15.1757L28.4081 15.1504C28.6918 14.9548 28.8865 14.6561 28.95 14.3191C29.0134 13.9821 28.9406 13.6339 28.7473 13.3497L28.7388 13.375ZM32.4064 12.4704C32.3535 12.307 32.2686 12.1555 32.1566 12.0247C32.0446 11.8939 31.9076 11.7863 31.7536 11.7081C31.5996 11.6299 31.4315 11.5827 31.259 11.5691C31.0866 11.5555 30.9131 11.5759 30.7486 11.6289C30.5841 11.681 30.4315 11.7648 30.2997 11.8756C30.1679 11.9863 30.0595 12.1219 29.9807 12.2744C29.9019 12.4268 29.8542 12.5933 29.8405 12.7641C29.8267 12.935 29.8472 13.1068 29.9006 13.2698C30.0076 13.5969 30.2405 13.8689 30.5486 14.0265C30.8567 14.1841 31.2151 14.2146 31.5457 14.1112C31.8741 14.0059 32.1474 13.7763 32.3062 13.4722C32.465 13.1681 32.4964 12.8142 32.3937 12.4872V12.4452L32.4064 12.4704ZM36.1334 12.096C36.1279 11.9246 36.0885 11.7561 36.0173 11.5999C35.9461 11.4438 35.8446 11.303 35.7186 11.1858C35.5926 11.0686 35.4446 10.9772 35.2829 10.9168C35.1213 10.8564 34.9492 10.8282 34.7766 10.8338C34.6038 10.8387 34.4337 10.8774 34.276 10.9479C34.1184 11.0183 33.9763 11.119 33.8581 11.2441C33.7399 11.3693 33.6478 11.5164 33.5871 11.6771C33.5264 11.8377 33.4984 12.0087 33.5046 12.1801C33.5095 12.3508 33.5483 12.5189 33.6188 12.6748C33.6892 12.8307 33.7899 12.9712 33.9152 13.0884C34.0404 13.2057 34.1877 13.2972 34.3486 13.358C34.5095 13.4187 34.6809 13.4473 34.8529 13.4423C35.1986 13.4313 35.5259 13.2855 35.764 13.0367C36.0021 12.7878 36.1318 12.4559 36.1249 12.1128V12.0749L36.1334 12.096ZM39.8561 12.2053C39.941 11.8706 39.8887 11.5162 39.7106 11.2197C39.5326 10.9231 39.2434 10.7087 38.9064 10.6234C38.5696 10.5393 38.2129 10.5913 37.9148 10.7681C37.6166 10.9448 37.4014 11.2317 37.3164 11.5658C37.2313 11.8989 37.2826 12.2518 37.459 12.5474C37.6354 12.843 37.9225 13.0574 38.2576 13.1436C38.425 13.1863 38.5992 13.1957 38.7703 13.1712C38.9413 13.1467 39.1057 13.0887 39.254 13.0006C39.4023 12.9126 39.5315 12.7962 39.6341 12.6583C39.7368 12.5203 39.8108 12.3635 39.8519 12.1969L39.8561 12.2053ZM43.5407 12.8785C43.718 12.582 43.7698 12.2279 43.6848 11.8937C43.5998 11.5594 43.3849 11.2721 43.087 11.0946C42.9398 11.0069 42.7766 10.9488 42.6067 10.9237C42.4368 10.8986 42.2636 10.907 42.097 10.9484C41.9304 10.9899 41.7737 11.0635 41.6358 11.1651C41.4979 11.2667 41.3816 11.3943 41.2935 11.5406C41.2044 11.6868 41.1453 11.8492 41.1196 12.0182C41.094 12.1872 41.1023 12.3595 41.1441 12.5253C41.1859 12.6911 41.2603 12.8471 41.3631 12.9843C41.4658 13.1214 41.5949 13.237 41.7429 13.3245C41.8888 13.4152 42.0514 13.4763 42.2212 13.5043C42.3911 13.5323 42.5648 13.5265 42.7324 13.4874C42.9 13.4483 43.0581 13.3765 43.1976 13.2763C43.3371 13.1762 43.4551 13.0495 43.5449 12.9037L43.5407 12.8785ZM47.1362 14.0734C47.3913 13.8392 47.5425 13.5143 47.5568 13.1697C47.5711 12.8252 47.4473 12.489 47.2125 12.2348C46.9765 11.9817 46.6491 11.8316 46.3018 11.8174C45.9546 11.8032 45.6158 11.9261 45.3596 12.1591C45.233 12.2744 45.1305 12.4133 45.0581 12.568C44.9856 12.7227 44.9447 12.8901 44.9376 13.0605C44.9305 13.2309 44.9574 13.4011 45.0167 13.5612C45.0761 13.7213 45.1667 13.8682 45.2833 13.9934C45.5134 14.2516 45.8373 14.4086 46.1839 14.4299C46.5306 14.4512 46.8716 14.3351 47.132 14.107L47.1362 14.0734ZM45.8642 59.0322C46.0341 59.0578 46.2073 59.05 46.3741 59.0091C46.5409 58.9682 46.698 58.895 46.8362 58.7938C46.9745 58.6926 47.0912 58.5653 47.1798 58.4192C47.2684 58.2731 47.3271 58.1111 47.3524 57.9425C47.3783 57.7737 47.3705 57.6015 47.3293 57.4357C47.2881 57.2699 47.2145 57.1138 47.1125 56.9763C47.0105 56.8388 46.8822 56.7225 46.735 56.6342C46.5877 56.5459 46.4244 56.4872 46.2543 56.4615C46.0844 56.4359 45.9111 56.4437 45.7443 56.4846C45.5775 56.5255 45.4205 56.5987 45.2822 56.6999C45.144 56.8011 45.0272 56.9284 44.9387 57.0745C44.8501 57.2206 44.7914 57.3826 44.766 57.5512C44.7369 57.7195 44.7415 57.8918 44.7797 58.0583C44.8179 58.2248 44.8889 58.3822 44.9886 58.5214C45.0883 58.6606 45.2147 58.7789 45.3606 58.8694C45.5065 58.9599 45.669 59.021 45.8388 59.049H45.86L45.8642 59.0322ZM41.4673 60.0083C41.6162 60.0933 41.7805 60.1483 41.9509 60.1703C42.1213 60.1922 42.2943 60.1805 42.4601 60.136C42.626 60.0914 42.7813 60.0148 42.9172 59.9106C43.0532 59.8064 43.1671 59.6766 43.2524 59.5286C43.3389 59.381 43.3952 59.2178 43.4179 59.0485C43.4407 58.8791 43.4295 58.707 43.3849 58.542C43.3404 58.377 43.2634 58.2224 43.1585 58.087C43.0535 57.9516 42.9226 57.8382 42.7732 57.7532C42.4728 57.5822 42.1163 57.5362 41.7818 57.6253C41.4473 57.7144 41.162 57.9313 40.9882 58.2286C40.9013 58.3757 40.8445 58.5385 40.8212 58.7075C40.7978 58.8764 40.8083 59.0483 40.852 59.2133C40.8957 59.3782 40.9718 59.533 41.076 59.6687C41.1801 59.8044 41.3102 59.9184 41.4588 60.0041L41.4673 60.0083ZM37.1425 60.0461C37.2497 60.1796 37.3825 60.2908 37.5331 60.3732C37.6837 60.4557 37.8493 60.5078 38.0203 60.5266C38.1913 60.5453 38.3643 60.5304 38.5295 60.4826C38.6947 60.4348 38.8487 60.3551 38.9827 60.2481C39.1172 60.1417 39.2293 60.01 39.3124 59.8605C39.3955 59.711 39.448 59.5467 39.4669 59.3771C39.4858 59.2074 39.4707 59.0357 39.4226 58.8718C39.3744 58.7079 39.2941 58.5551 39.1862 58.4221C39.0793 58.2889 38.9471 58.1779 38.7969 58.0954C38.6468 58.013 38.4818 57.9607 38.3113 57.9415C38.1408 57.9224 37.9682 57.9368 37.8033 57.9838C37.6384 58.0309 37.4844 58.1098 37.3503 58.216C37.0782 58.4303 36.9031 58.743 36.8633 59.0854C36.8236 59.4278 36.9225 59.7718 37.1383 60.0419L37.1425 60.0461ZM33.0297 59.2552C33.1358 59.583 33.3685 59.8557 33.6769 60.0134C33.9853 60.1712 34.3442 60.2011 34.6748 60.0966C35.0055 59.9905 35.2804 59.7587 35.4393 59.452C35.5983 59.1453 35.6283 58.7886 35.5228 58.46C35.4708 58.2973 35.3869 58.1465 35.276 58.0161C35.1651 57.8857 35.0293 57.7783 34.8764 57.7001C34.7236 57.622 34.5567 57.5745 34.3853 57.5605C34.2139 57.5465 34.0414 57.5662 33.8777 57.6185C33.5473 57.7237 33.2725 57.9547 33.1135 58.2607C32.9546 58.5668 32.9244 58.9229 33.0297 59.2509V59.2552ZM29.2561 57.7363C29.2452 57.9069 29.2684 58.0779 29.3244 58.2396C29.3804 58.4012 29.4681 58.5503 29.5824 58.6781C29.6967 58.806 29.8353 58.9102 29.9904 58.9847C30.1454 59.0592 30.3137 59.1025 30.4857 59.1121C30.8319 59.1317 31.1719 59.0142 31.4309 58.7855C31.69 58.5568 31.8472 58.2355 31.868 57.892C31.8789 57.7218 31.8558 57.5511 31.8001 57.3897C31.7443 57.2283 31.6571 57.0794 31.5432 56.9516C31.4294 56.8238 31.2912 56.7195 31.1367 56.6448C30.9821 56.5701 30.8142 56.5264 30.6426 56.5162C30.4708 56.506 30.2987 56.5294 30.136 56.5852C29.9734 56.641 29.8234 56.728 29.6946 56.8413C29.5659 56.9546 29.4609 57.0919 29.3856 57.2455C29.3104 57.3991 29.2664 57.5659 29.2561 57.7363ZM25.898 55.5864C25.8273 55.7419 25.7881 55.9097 25.7828 56.0802C25.7776 56.2508 25.8063 56.4207 25.8673 56.5801C25.9284 56.7396 26.0206 56.8856 26.1387 57.0096C26.2567 57.1337 26.3983 57.2334 26.5552 57.303C26.7119 57.3732 26.8811 57.4121 27.0529 57.4173C27.2248 57.4225 27.396 57.394 27.5567 57.3334C27.7174 57.2729 27.8645 57.1814 27.9895 57.0642C28.1145 56.9471 28.215 56.8066 28.2852 56.6509C28.4272 56.3372 28.4383 55.9805 28.3159 55.6588C28.1936 55.3371 27.9477 55.0766 27.6322 54.9343C27.4758 54.8629 27.3067 54.8228 27.1346 54.8163C26.9625 54.8098 26.7909 54.8371 26.6294 54.8965C26.468 54.9559 26.3199 55.0463 26.1937 55.1625C26.0674 55.2787 25.9655 55.4185 25.8938 55.5738L25.898 55.5864ZM23.0488 52.9022C22.9266 53.0226 22.8296 53.1659 22.7635 53.3236C22.6973 53.4814 22.6632 53.6506 22.6632 53.8215C22.6632 53.9924 22.6973 54.1616 22.7635 54.3193C22.8296 54.4771 22.9266 54.6203 23.0488 54.7408C23.1701 54.862 23.3145 54.9582 23.4735 55.0239C23.6325 55.0895 23.803 55.1233 23.9752 55.1233C24.1474 55.1233 24.3179 55.0895 24.4769 55.0239C24.6359 54.9582 24.7803 54.862 24.9016 54.7408C25.1463 54.4964 25.2837 54.1659 25.2837 53.8215C25.2837 53.477 25.1463 53.1465 24.9016 52.9022C24.78 52.7815 24.6356 52.6857 24.4766 52.6204C24.3176 52.555 24.1473 52.5214 23.9752 52.5214C23.8032 52.5214 23.6328 52.555 23.4738 52.6204C23.3149 52.6857 23.1704 52.7815 23.0488 52.9022ZM20.7761 49.7804C20.6182 49.8485 20.4753 49.9469 20.3557 50.0699C20.2361 50.1928 20.1422 50.338 20.0792 50.497C20.0161 50.6561 19.9853 50.8259 19.9885 50.9967C19.9917 51.1676 20.0288 51.3361 20.0977 51.4928C20.1663 51.6495 20.2655 51.7912 20.3895 51.9097C20.5135 52.0283 20.6599 52.1213 20.8203 52.1835C20.9807 52.2456 21.1519 52.2757 21.3241 52.272C21.4962 52.2683 21.6659 52.2308 21.8234 52.1617C22.1406 52.0232 22.3898 51.766 22.5168 51.4462C22.6439 51.1263 22.6385 50.7695 22.5018 50.4536C22.4331 50.2968 22.334 50.1551 22.2101 50.0364C22.0862 49.9178 21.9399 49.8245 21.7796 49.762C21.6193 49.6994 21.4482 49.6689 21.276 49.6721C21.1038 49.6752 20.934 49.712 20.7761 49.7804ZM19.0801 46.2842C18.9069 46.289 18.7365 46.328 18.5785 46.3986C18.4206 46.4693 18.2784 46.5704 18.1601 46.696C18.0418 46.8216 17.9498 46.9692 17.8894 47.1304C17.8289 47.2915 17.8013 47.4629 17.8081 47.6347C17.8136 47.8064 17.8532 47.9753 17.9246 48.1317C17.9961 48.2882 18.0979 48.4291 18.2244 48.5464C18.3509 48.6636 18.4994 48.755 18.6616 48.8151C18.8237 48.8753 18.9962 48.9031 19.1692 48.8969C19.5159 48.8848 19.8439 48.7376 20.0821 48.4871C20.3202 48.2367 20.4492 47.9032 20.4412 47.559C20.4362 47.3882 20.3974 47.2201 20.327 47.0643C20.2565 46.9084 20.1558 46.7678 20.0306 46.6506C19.9054 46.5334 19.7581 46.4418 19.5972 46.3811C19.4363 46.3204 19.2649 46.2917 19.0928 46.2968L19.0801 46.2842ZM18.0583 42.5439C17.896 42.4867 17.7239 42.4619 17.552 42.471C17.38 42.48 17.2116 42.5227 17.0563 42.5966C16.901 42.6705 16.762 42.7742 16.6473 42.9016C16.5325 43.029 16.4443 43.1777 16.3877 43.3391C16.2723 43.6638 16.2914 44.0207 16.4408 44.3315C16.5902 44.6423 16.8578 44.8815 17.1849 44.9967C17.3487 45.0567 17.523 45.0836 17.6974 45.076C17.8719 45.0683 18.0431 45.0263 18.201 44.9522C18.3589 44.8782 18.5003 44.7737 18.617 44.6448C18.7338 44.5159 18.8235 44.3652 18.8808 44.2016C18.9915 43.8789 18.9705 43.5262 18.8223 43.2187C18.6741 42.9113 18.4105 42.6736 18.088 42.5565L18.0583 42.5439ZM17.7445 38.8626C17.481 38.6381 17.1386 38.5262 16.7922 38.5515C16.4458 38.5767 16.1236 38.7369 15.8959 38.9972C15.7834 39.1264 15.6976 39.2764 15.6435 39.4386C15.5894 39.6008 15.568 39.7719 15.5806 39.9423C15.5932 40.1126 15.6396 40.2789 15.7169 40.4314C15.7943 40.584 15.9012 40.72 16.0316 40.8316C16.2951 41.056 16.6375 41.1679 16.9839 41.1426C17.3303 41.1174 17.6525 40.9572 17.8802 40.6969C18.1048 40.4369 18.2174 40.0997 18.1936 39.7581C18.1698 39.4165 18.0115 39.0978 17.753 38.871L17.7445 38.8626ZM18.0668 35.3453C17.9861 35.1944 17.8762 35.0608 17.7435 34.952C17.6107 34.8433 17.4577 34.7616 17.2931 34.7116C17.1285 34.6616 16.9556 34.6442 16.7842 34.6606C16.6129 34.6769 16.4464 34.7266 16.2944 34.8068C16.1424 34.8868 16.0077 34.9958 15.8982 35.1276C15.7886 35.2593 15.7062 35.4112 15.6558 35.5745C15.6054 35.7378 15.588 35.9094 15.6044 36.0794C15.6209 36.2494 15.6709 36.4146 15.7517 36.5654C15.8324 36.7163 15.9423 36.8499 16.075 36.9586C16.2078 37.0674 16.3608 37.1491 16.5254 37.1991C16.69 37.2491 16.8629 37.2664 17.0343 37.2501C17.2056 37.2338 17.3721 37.1841 17.5241 37.1039C17.6768 37.0234 17.8121 36.9139 17.922 36.7814C18.032 36.649 18.1146 36.4963 18.165 36.3322C18.2154 36.168 18.2327 35.9956 18.2159 35.8248C18.199 35.654 18.1483 35.4882 18.0668 35.3369V35.3453ZM18.9148 32.0089C18.8928 31.8396 18.8374 31.6762 18.7518 31.5281C18.6662 31.38 18.552 31.25 18.4157 31.1457C18.2795 31.0414 18.1239 30.9647 17.9578 30.9201C17.7917 30.8755 17.6184 30.8637 17.4477 30.8856C17.2768 30.9069 17.1119 30.9615 16.9623 31.0463C16.8128 31.1311 16.6816 31.2444 16.5764 31.3797C16.4712 31.515 16.394 31.6696 16.3492 31.8346C16.3045 31.9997 16.2931 32.1719 16.3156 32.3413C16.3612 32.6782 16.5382 32.9838 16.8087 33.1923C17.0791 33.4009 17.4213 33.4957 17.7615 33.4562H17.7912C18.1335 33.4101 18.4436 33.2318 18.654 32.9599C18.8644 32.6881 18.9582 32.3448 18.9148 32.0047V32.0089ZM20.2758 28.8998C20.3578 28.5651 20.3031 28.2118 20.1236 27.917C19.9441 27.6222 19.6543 27.4098 19.3176 27.3262C18.9797 27.2436 18.6225 27.2973 18.3245 27.4755C18.0264 27.6538 17.8118 27.942 17.7276 28.2771C17.6455 28.6118 17.7003 28.9651 17.8798 29.2599C18.0593 29.5547 18.3491 29.767 18.6858 29.8506C18.8543 29.8973 19.0305 29.91 19.204 29.8879C19.3775 29.8657 19.5447 29.8092 19.6958 29.7217C19.8469 29.6342 19.9787 29.5175 20.0834 29.3784C20.1882 29.2394 20.2637 29.0809 20.3055 28.9124L20.2758 28.8998ZM22.0948 26.0472C22.1926 25.9066 22.2615 25.7483 22.2976 25.5813C22.3337 25.4143 22.3362 25.2418 22.3051 25.0738C22.274 24.9058 22.2099 24.7455 22.1163 24.6021C22.0227 24.4587 21.9016 24.335 21.7598 24.2381C21.6187 24.141 21.4597 24.0724 21.2919 24.0363C21.124 24.0002 20.9507 23.9973 20.7817 24.0278C20.6128 24.0583 20.4515 24.1216 20.3072 24.214C20.163 24.3063 20.0384 24.4261 19.9408 24.5663C19.8423 24.7064 19.7726 24.8645 19.7359 25.0315C19.6992 25.1985 19.6961 25.371 19.7268 25.5391C19.7576 25.7073 19.8215 25.8677 19.915 26.0113C20.0085 26.1548 20.1297 26.2785 20.2716 26.3754C20.4115 26.4742 20.5698 26.5447 20.7372 26.5828C20.9047 26.6208 21.078 26.6257 21.2474 26.5972C21.4168 26.5687 21.5788 26.5073 21.7242 26.4165C21.8696 26.3257 21.9955 26.2074 22.0948 26.0683V26.0472ZM24.3547 23.4934C24.6412 23.2991 24.8382 22.9998 24.9026 22.6615C24.967 22.3231 24.8935 21.9731 24.6981 21.6885C24.5021 21.4033 24.2001 21.2068 23.8584 21.1421C23.5166 21.0775 23.163 21.1499 22.8749 21.3435C22.5884 21.5379 22.3914 21.8371 22.327 22.1755C22.2626 22.5139 22.3361 22.8638 22.5315 23.1484C22.6271 23.2901 22.7499 23.4116 22.893 23.506C23.036 23.6004 23.1964 23.666 23.3649 23.6988C23.5335 23.7316 23.707 23.7311 23.8754 23.6973C24.0437 23.6635 24.2037 23.5971 24.3462 23.5018H24.3674L24.3547 23.4934ZM27.0556 21.2804C27.3939 21.2032 27.6876 20.9959 27.872 20.704C28.0565 20.4122 28.1166 20.0596 28.0392 19.7237C27.9614 19.3878 27.7527 19.0961 27.4587 18.9124C27.1647 18.7287 26.8094 18.6679 26.4704 18.7434C26.1321 18.8206 25.8384 19.0279 25.654 19.3198C25.4695 19.6117 25.4094 19.9643 25.4868 20.3001C25.5243 20.4666 25.5947 20.624 25.6937 20.7635C25.7927 20.9029 25.9185 21.0216 26.0639 21.1127C26.2093 21.2037 26.3713 21.2654 26.5407 21.2942C26.7102 21.323 26.8837 21.3183 27.0513 21.2804H27.0556ZM30.2186 19.4671C30.3885 19.4927 30.5618 19.4849 30.7286 19.444C30.8954 19.4031 31.0524 19.3299 31.1906 19.2287C31.3289 19.1275 31.4456 19.0002 31.5342 18.8541C31.6228 18.708 31.6815 18.546 31.7068 18.3774C31.7327 18.2086 31.7249 18.0364 31.6837 17.8706C31.6425 17.7048 31.5689 17.5487 31.4669 17.4112C31.3649 17.2737 31.2366 17.1575 31.0894 17.0691C30.9421 16.9808 30.7788 16.9221 30.6087 16.8964C30.4388 16.8708 30.2655 16.8786 30.0987 16.9195C29.9319 16.9604 29.7749 17.0336 29.6367 17.1348C29.4984 17.236 29.3816 17.3633 29.2931 17.5094C29.2045 17.6555 29.1458 17.8175 29.1204 17.9861C29.0694 18.327 29.1569 18.674 29.3636 18.9509C29.5703 19.2278 29.8794 19.412 30.2228 19.4629L30.2186 19.4671Z" fill="#007DC1"/>
</svg>
