<svg width="253" height="181" viewBox="0 0 253 181" fill="none" xmlns="http://www.w3.org/2000/svg">
<g clip-path="url(#clip0_349_2738)">
<path d="M83.65 81.9001C83.6567 82.6184 83.5137 83.3302 83.23 83.9901C82.9388 84.6191 82.4955 85.1655 81.94 85.5801C81.2677 86.0534 80.5106 86.3929 79.71 86.5801C78.6534 86.839 77.5677 86.96 76.48 86.9401C75.4952 86.9508 74.5123 86.8502 73.55 86.6401C72.7824 86.4707 72.0488 86.1732 71.38 85.7601C70.7846 85.3941 70.2762 84.9027 69.89 84.3201C69.4934 83.712 69.2183 83.0328 69.08 82.3201L72.46 81.7601C72.5417 82.1134 72.6801 82.4512 72.87 82.7601C73.0546 83.0813 73.3114 83.3552 73.62 83.5601C73.9858 83.8037 74.3922 83.9798 74.82 84.0801C75.3906 84.2102 75.9749 84.2706 76.56 84.2601C77.4977 84.3118 78.4332 84.1261 79.28 83.7201C79.5789 83.5543 79.8254 83.3081 79.9915 83.0094C80.1576 82.7107 80.2368 82.3715 80.22 82.0301C80.2031 81.6665 80.0738 81.3172 79.85 81.0301C79.5734 80.7198 79.232 80.474 78.85 80.3101C78.3853 80.1101 77.9033 79.9528 77.41 79.8401L75.7 79.4701L74.28 79.1301C73.8186 79.0139 73.3644 78.8703 72.92 78.7001C72.5031 78.54 72.1014 78.3425 71.72 78.1101C70.9668 77.6538 70.3998 76.9451 70.12 76.1101C69.9488 75.5981 69.8709 75.0596 69.89 74.5201C69.8636 73.7782 70.0363 73.0428 70.39 72.3901C70.7168 71.7955 71.1923 71.2959 71.77 70.9401C72.4146 70.5419 73.1262 70.2641 73.87 70.1201C74.7481 69.9381 75.6433 69.851 76.54 69.8601C77.4796 69.844 78.4182 69.9278 79.34 70.1101C80.0487 70.2458 80.7266 70.5102 81.34 70.8901C81.8503 71.2236 82.275 71.6723 82.58 72.2001C82.8737 72.7762 83.0793 73.393 83.19 74.0301L79.8 74.4901C79.6636 73.8357 79.285 73.2571 78.74 72.8701C78.0461 72.4697 77.2498 72.2819 76.45 72.3301C75.9353 72.3176 75.421 72.3713 74.92 72.4901C74.5617 72.5664 74.2219 72.7125 73.92 72.9201C73.6921 73.0783 73.5122 73.2963 73.4 73.5501C73.2911 73.7882 73.2398 74.0485 73.25 74.3101C73.2322 74.668 73.3381 75.0211 73.55 75.3101C73.7696 75.5936 74.0543 75.82 74.38 75.9701C74.7839 76.1703 75.2102 76.3214 75.65 76.4201L77.28 76.7901L78.83 77.1401C79.32 77.2601 79.83 77.4001 80.3 77.5701C80.7504 77.7308 81.1855 77.9316 81.6 78.1701C81.9758 78.4073 82.3131 78.7007 82.6 79.0401C82.9046 79.4052 83.1416 79.8218 83.3 80.2701C83.5024 80.7914 83.6206 81.3416 83.65 81.9001V81.9001ZM86.41 86.7101V69.9901H99.53V72.6901H89.89V76.8801H98.8V79.5801H89.89V83.9901H99.99V86.6901L86.41 86.7101ZM112.99 86.7101L105.72 73.8601C105.72 74.2101 105.79 74.5401 105.83 74.8601C105.87 75.1801 105.89 75.5101 105.91 75.8601V86.7001H102.81V69.9901H106.81L114.19 82.9901C114.19 82.6601 114.11 82.3201 114.08 81.9901C114.05 81.6601 114.02 81.3201 114 80.9901V69.9901H117.1V86.7101H112.99ZM132.06 86.7101L130.58 82.4501H124.22L122.74 86.7101H119.25L125.33 69.9901H129.45L135.51 86.6801L132.06 86.7101ZM128.15 74.9901L127.87 74.1601C127.77 73.8801 127.69 73.6201 127.63 73.3901L127.46 72.8201L127.38 72.5701L127.31 72.8301L127.15 73.4001L126.91 74.1601L126.63 74.9901L125 79.8201H129.8L128.15 74.9901ZM143.58 72.6901V86.6901H140.09V72.6901H134.7V69.9901H149V72.6901H143.58ZM151.1 86.6901V69.9901H164.22V72.6901H154.59V76.8801H163.5V79.5801H154.59V83.9901H164.7V86.6901H151.1ZM83.89 114.29V101.78C83.8893 101.373 83.9093 100.965 83.95 100.56L83.48 102.34L83.28 103.07L83.07 103.8L82.87 104.46L82.7 104.99L79.7 114.3H77.26L74.26 104.99L74.1 104.46L73.91 103.8L73.7 103.07L73.49 102.34L72.99 100.56C72.988 101.011 73.0113 101.462 73.06 101.91C73.1001 102.309 73.1001 102.711 73.06 103.11V114.31H69.99V97.6201H74.67L77.67 106.95C77.75 107.2 77.83 107.5 77.92 107.85L78.19 108.85C78.28 109.24 78.38 109.64 78.5 110.06L78.82 108.88L78.96 108.37L79.1 107.86L79.24 107.39L79.37 106.99L82.31 97.6001H86.99V114.29H83.89ZM101.73 114.29L100.25 110.03H93.89L92.41 114.29H88.89L94.97 97.6201H99.09L105.15 114.31L101.73 114.29ZM97.82 102.6L97.54 101.77C97.44 101.49 97.36 101.23 97.3 101L97.13 100.43L97.05 100.18L96.98 100.44L96.82 101.01L96.58 101.77L96.3 102.6L94.65 107.4H99.45L97.82 102.6ZM111.82 114.53C111.065 114.539 110.313 114.452 109.58 114.27C108.959 114.115 108.376 113.832 107.87 113.44C107.376 113.048 106.973 112.553 106.69 111.99C106.349 111.295 106.114 110.554 105.99 109.79L109.46 109.28C109.519 109.686 109.63 110.082 109.79 110.46C109.913 110.75 110.09 111.015 110.31 111.24C110.5 111.442 110.737 111.593 111 111.68C111.274 111.772 111.561 111.819 111.85 111.82C112.15 111.838 112.45 111.784 112.725 111.662C113 111.541 113.242 111.355 113.43 111.12C113.821 110.529 114.01 109.828 113.97 109.12V100.37H110.6V97.6201H117.41V108.99C117.413 109.769 117.288 110.542 117.04 111.28C116.81 111.931 116.442 112.525 115.96 113.02C115.461 113.512 114.86 113.887 114.2 114.12C113.427 114.398 112.612 114.54 111.79 114.54L111.82 114.53ZM137.24 105.87C137.248 107.078 137.052 108.278 136.66 109.42C136.299 110.439 135.73 111.372 134.99 112.16C134.241 112.93 133.333 113.527 132.33 113.91C130 114.75 127.45 114.75 125.12 113.91C124.122 113.516 123.226 112.9 122.5 112.11C121.78 111.323 121.24 110.388 120.92 109.37C120.55 108.251 120.37 107.078 120.39 105.9C120.367 104.7 120.553 103.506 120.94 102.37C121.269 101.37 121.819 100.456 122.549 99.6978C123.28 98.9395 124.172 98.3557 125.16 97.9901C127.497 97.1901 130.033 97.1901 132.37 97.9901C133.358 98.3615 134.255 98.9413 135 99.6901C135.724 100.461 136.279 101.373 136.63 102.37C137.019 103.502 137.212 104.693 137.2 105.89L137.24 105.87ZM133.68 105.87C133.687 105.07 133.583 104.272 133.37 103.5C133.178 102.84 132.863 102.222 132.44 101.68C132.032 101.176 131.511 100.776 130.92 100.51C130.256 100.23 129.541 100.091 128.82 100.1C128.085 100.078 127.355 100.218 126.68 100.51C126.081 100.767 125.555 101.169 125.15 101.68C124.723 102.218 124.41 102.837 124.23 103.5C123.81 105.059 123.81 106.701 124.23 108.26C124.413 108.939 124.729 109.575 125.16 110.13C125.565 110.653 126.09 111.071 126.69 111.35C127.352 111.651 128.073 111.801 128.8 111.79C129.557 111.809 130.308 111.658 131 111.35C131.596 111.065 132.117 110.644 132.52 110.12C132.932 109.56 133.231 108.925 133.4 108.25C133.571 107.476 133.649 106.683 133.63 105.89L133.68 105.87ZM151.58 114.29L147.65 107.99H143.55V114.33H140.06V97.6201H148.4C149.322 97.6015 150.242 97.7194 151.13 97.9701C151.84 98.1708 152.503 98.5107 153.08 98.9701C153.59 99.3884 153.991 99.9236 154.25 100.53C154.51 101.189 154.64 101.892 154.63 102.6C154.632 103.182 154.538 103.76 154.35 104.31C154.172 104.81 153.911 105.276 153.58 105.69C153.251 106.089 152.855 106.427 152.41 106.69C151.955 106.966 151.459 107.169 150.94 107.29L155.45 114.29H151.58ZM151.16 102.72C151.185 102.376 151.125 102.031 150.985 101.715C150.846 101.4 150.631 101.123 150.36 100.91C149.681 100.479 148.883 100.272 148.08 100.32H143.6V105.25H148.17C148.623 105.26 149.075 105.199 149.51 105.07C149.851 104.967 150.166 104.789 150.43 104.55C150.664 104.324 150.848 104.052 150.97 103.75C151.07 103.426 151.117 103.089 151.11 102.75L151.16 102.72ZM158.8 114.29V97.6201H162.29V114.31L158.8 114.29ZM174.01 100.29V114.29H170.52V100.29H165.13V97.5901H179.41V100.29H174.01ZM190.01 107.43V114.28H186.53V107.43L180.53 97.5901H184.19L188.19 104.65L192.19 97.5901H195.89L190.01 107.43ZM219.65 102.87C219.651 103.579 219.529 104.283 219.29 104.95C219.049 105.612 218.671 106.215 218.18 106.72C217.651 107.272 217.01 107.705 216.3 107.99C215.43 108.311 214.507 108.467 213.58 108.45H209.43V114.32H205.94V97.6201H213.44C214.378 97.6017 215.312 97.7299 216.21 98.0001C216.924 98.2234 217.584 98.591 218.15 99.0801C218.652 99.5426 219.042 100.114 219.29 100.75C219.511 101.444 219.609 102.172 219.58 102.9L219.65 102.87ZM216.13 102.93C216.159 102.56 216.104 102.187 215.969 101.841C215.834 101.495 215.622 101.183 215.35 100.93C214.676 100.439 213.851 100.202 213.02 100.26H209.41V105.67H213.12C213.575 105.678 214.027 105.61 214.46 105.47C214.811 105.351 215.132 105.157 215.4 104.9C215.642 104.648 215.83 104.348 215.95 104.02C216.025 103.692 216.059 103.356 216.05 103.02L216.13 102.93ZM232.13 114.28L230.66 109.99H224.2L222.72 114.25H219.23L225.32 97.5601H229.44L235.5 114.25L232.13 114.28ZM228.22 102.59L227.94 101.76C227.84 101.48 227.76 101.22 227.7 100.99L227.53 100.42L227.45 100.17L227.38 100.43C227.349 100.626 227.296 100.817 227.22 101L226.98 101.76L226.7 102.59L225.05 107.39H229.89L228.22 102.59ZM244.92 111.77C245.499 111.781 246.075 111.687 246.62 111.49C247.5 111.156 248.245 110.541 248.74 109.74C248.96 109.372 249.15 108.988 249.31 108.59L252.31 109.74C252.038 110.36 251.703 110.949 251.31 111.5C250.919 112.069 250.439 112.572 249.89 112.99C249.248 113.456 248.536 113.817 247.78 114.06C246.848 114.35 245.876 114.488 244.9 114.47C243.619 114.502 242.345 114.281 241.15 113.82C240.15 113.429 239.254 112.813 238.53 112.02C237.824 111.229 237.298 110.294 236.99 109.28C236.639 108.158 236.47 106.986 236.49 105.81C236.47 104.614 236.639 103.423 236.99 102.28C237.291 101.285 237.811 100.369 238.51 99.6001C239.206 98.8799 240.058 98.3291 241 97.9901C242.176 97.5662 243.42 97.3628 244.67 97.3901C245.634 97.3735 246.596 97.4879 247.53 97.7301C248.287 97.9437 249.004 98.2816 249.65 98.7301C250.224 99.1312 250.725 99.6285 251.13 100.2C251.52 100.779 251.829 101.408 252.05 102.07L248.97 102.91C248.847 102.555 248.675 102.218 248.46 101.91C248.219 101.575 247.926 101.281 247.59 101.04C247.211 100.774 246.792 100.568 246.35 100.43C245.829 100.27 245.285 100.192 244.74 100.2C243.992 100.179 243.249 100.319 242.56 100.61C241.968 100.865 241.451 101.268 241.06 101.78C240.651 102.321 240.358 102.941 240.2 103.6C239.99 104.379 239.886 105.183 239.89 105.99C239.878 106.796 239.972 107.599 240.17 108.38C240.327 109.057 240.623 109.694 241.04 110.25C241.437 110.778 241.959 111.197 242.56 111.47C243.272 111.751 244.037 111.871 244.8 111.82L244.92 111.77Z" fill="white"/>
<path d="M88.66 180.23C88.308 180.028 87.9992 179.758 87.7514 179.437C87.5036 179.115 87.3215 178.748 87.2156 178.356C87.1098 177.964 87.0822 177.555 87.1344 177.153C87.1866 176.75 87.3177 176.362 87.52 176.01C87.722 175.658 87.9917 175.349 88.3135 175.102C88.6353 174.854 89.0028 174.672 89.395 174.567C89.7872 174.462 90.1963 174.436 90.5987 174.49C91.0012 174.543 91.3891 174.676 91.74 174.88C92.0921 175.082 92.4008 175.352 92.6486 175.673C92.8965 175.995 93.0785 176.362 93.1844 176.754C93.2903 177.146 93.3179 177.555 93.2656 177.957C93.2134 178.36 93.0824 178.748 92.88 179.1V179.1C92.4701 179.809 91.7953 180.327 91.004 180.539C90.2126 180.751 89.3695 180.64 88.66 180.23V180.23ZM83.31 179.13C83.852 178.517 84.1299 177.715 84.0831 176.899C84.0363 176.082 83.6685 175.317 83.06 174.77C82.4497 174.224 81.6478 173.943 80.8304 173.988C80.0129 174.033 79.2467 174.401 78.7 175.01C78.1543 175.62 77.873 176.422 77.918 177.24C77.963 178.057 78.3306 178.823 78.94 179.37C79.549 179.917 80.3502 180.2 81.1676 180.157C81.985 180.114 82.752 179.748 83.3 179.14L83.31 179.13ZM73.91 178.13C74.5673 177.642 75.0039 176.913 75.1239 176.103C75.2439 175.293 75.0375 174.468 74.55 173.81C74.0599 173.152 73.3289 172.715 72.5173 172.595C71.7056 172.475 70.8795 172.682 70.22 173.17C69.5656 173.658 69.131 174.386 69.011 175.193C68.8911 176.001 69.0957 176.823 69.58 177.48C70.0622 178.141 70.7866 178.583 71.5945 178.711C72.4024 178.838 73.2279 178.64 73.89 178.16V178.16L73.91 178.13ZM64.76 176.13C65.502 175.784 66.0772 175.159 66.3601 174.391C66.643 173.623 66.6106 172.774 66.27 172.03C65.9265 171.286 65.3015 170.709 64.5327 170.426C63.7638 170.143 62.914 170.177 62.17 170.52C61.4262 170.864 60.8488 171.488 60.564 172.256C60.2792 173.025 60.3101 173.875 60.65 174.62V174.62C60.9789 175.371 61.5925 175.96 62.3558 176.258C63.119 176.556 63.9695 176.539 64.72 176.21V176.21L64.76 176.13ZM55.94 173.22C56.735 173.028 57.4214 172.529 57.8488 171.831C58.2761 171.134 58.4096 170.296 58.22 169.5C58.0301 168.703 57.5316 168.014 56.834 167.585C56.1365 167.156 55.297 167.021 54.5 167.21C53.7032 167.4 53.0144 167.898 52.585 168.596C52.1556 169.294 52.0207 170.133 52.21 170.93V170.99C52.3999 171.787 52.8984 172.476 53.596 172.905C54.2935 173.335 55.1331 173.469 55.93 173.28L55.94 173.22ZM47.51 169.4C47.9159 169.388 48.3154 169.297 48.6859 169.131C49.0563 168.965 49.3904 168.727 49.669 168.432C49.9476 168.136 50.1653 167.789 50.3096 167.41C50.4539 167.03 50.522 166.626 50.51 166.22C50.4984 165.814 50.4069 165.415 50.2407 165.044C50.0746 164.674 49.837 164.34 49.5417 164.061C49.2464 163.782 48.899 163.565 48.5196 163.421C48.1401 163.276 47.7358 163.208 47.33 163.22C46.9242 163.232 46.5246 163.323 46.1542 163.489C45.7837 163.656 45.4496 163.893 45.171 164.188C44.8924 164.484 44.6747 164.831 44.5304 165.211C44.3861 165.59 44.318 165.994 44.33 166.4C44.3326 166.805 44.4152 167.206 44.573 167.58C44.7309 167.953 44.9609 168.291 45.2498 168.576C45.5387 168.86 45.8809 169.084 46.2567 169.236C46.6326 169.388 47.0347 169.464 47.44 169.46H47.52L47.51 169.4ZM39.51 164.72C40.3162 164.863 41.146 164.679 41.8172 164.211C42.4884 163.742 42.9462 163.026 43.09 162.22C43.2326 161.414 43.0494 160.584 42.5806 159.913C42.1119 159.242 41.396 158.784 40.59 158.64C39.7838 158.498 38.954 158.681 38.2828 159.149C37.6116 159.618 37.1538 160.334 37.01 161.14V161.2C36.9396 161.599 36.9488 162.009 37.0369 162.404C37.125 162.8 37.2905 163.175 37.5237 163.506C37.7569 163.838 38.0532 164.12 38.3958 164.337C38.7384 164.554 39.1205 164.701 39.52 164.77V164.77L39.51 164.72ZM32.09 159.23C32.8526 159.528 33.7021 159.511 34.452 159.182C35.2019 158.854 35.7911 158.242 36.09 157.48C36.3876 156.718 36.3705 155.868 36.0424 155.118C35.7143 154.368 35.102 153.779 34.34 153.48C33.9632 153.331 33.5607 153.258 33.1555 153.265C32.7503 153.272 32.3505 153.358 31.9789 153.52C31.6073 153.682 31.2713 153.915 30.9901 154.207C30.7088 154.498 30.4879 154.843 30.34 155.22V155.22C30.0369 155.976 30.0455 156.821 30.3641 157.571C30.6827 158.321 31.2853 158.914 32.04 159.22H32.14L32.09 159.23ZM25.28 152.99C25.6215 153.209 26.0027 153.359 26.4021 153.431C26.8015 153.503 27.2111 153.496 27.6076 153.409C28.0042 153.323 28.3798 153.16 28.713 152.928C29.0463 152.696 29.3307 152.402 29.55 152.06C29.9903 151.37 30.1396 150.533 29.9654 149.733C29.7912 148.933 29.3075 148.235 28.62 147.79C28.28 147.571 27.9 147.42 27.5018 147.348C27.1036 147.275 26.695 147.282 26.2993 147.367C25.9037 147.453 25.5288 147.615 25.196 147.846C24.8633 148.076 24.5792 148.37 24.36 148.71C24.1355 149.048 23.9801 149.428 23.9028 149.827C23.8255 150.225 23.8279 150.635 23.9096 151.033C23.9914 151.431 24.1511 151.809 24.3794 152.144C24.6077 152.48 24.9002 152.768 25.24 152.99L25.34 153.05L25.28 152.99ZM19.15 146.06C19.4361 146.347 19.7759 146.574 20.15 146.729C20.524 146.884 20.925 146.964 21.33 146.964C21.735 146.964 22.136 146.884 22.5101 146.729C22.8841 146.574 23.2239 146.347 23.51 146.06C23.7949 145.771 24.0197 145.428 24.1715 145.051C24.3233 144.674 24.399 144.271 24.3944 143.865C24.3897 143.459 24.3048 143.057 24.1444 142.684C23.9841 142.311 23.7515 141.973 23.46 141.69C23.1739 141.403 22.8341 141.176 22.4601 141.021C22.086 140.866 21.685 140.786 21.28 140.786C20.8751 140.786 20.4741 140.866 20.1 141.021C19.7259 141.176 19.3861 141.403 19.1 141.69C18.8119 141.976 18.5832 142.317 18.4272 142.692C18.2711 143.067 18.1908 143.469 18.1908 143.875C18.1908 144.281 18.2711 144.683 18.4272 145.058C18.5832 145.433 18.8119 145.774 19.1 146.06L19.17 146.12L19.15 146.06ZM13.77 138.5C14.232 139.176 14.9432 139.641 15.7475 139.792C16.5518 139.944 17.3835 139.771 18.06 139.31C18.4004 139.083 18.6921 138.79 18.9184 138.449C19.1447 138.108 19.301 137.726 19.3782 137.324C19.4554 136.922 19.452 136.508 19.3682 136.108C19.2844 135.707 19.1219 135.327 18.89 134.99C18.4297 134.316 17.7212 133.851 16.9192 133.697C16.1172 133.543 15.287 133.714 14.61 134.17C13.9343 134.632 13.4696 135.343 13.3177 136.148C13.1659 136.952 13.3393 137.784 13.8 138.46C13.8108 138.487 13.8279 138.511 13.85 138.53L13.77 138.5ZM9.20002 130.37C9.50454 131.127 10.0967 131.731 10.8465 132.052C11.5964 132.373 12.4427 132.383 13.2 132.08C13.9548 131.773 14.5579 131.181 14.8782 130.432C15.1984 129.683 15.2099 128.838 14.91 128.08C14.6034 127.325 14.011 126.722 13.2619 126.402C12.5128 126.082 11.6675 126.07 10.91 126.37V126.37C10.5379 126.531 10.2012 126.764 9.91923 127.055C9.63727 127.346 9.41559 127.691 9.26694 128.068C9.11829 128.445 9.04559 128.848 9.05298 129.253C9.06038 129.659 9.14773 130.059 9.31003 130.43L9.20002 130.37ZM5.50001 121.75C5.63926 122.558 6.09363 123.277 6.76313 123.749C7.43263 124.222 8.26243 124.409 9.07001 124.27C9.46999 124.2 9.85223 124.052 10.1949 123.834C10.5376 123.616 10.8339 123.333 11.067 123C11.3001 122.668 11.4654 122.293 11.5534 121.896C11.6415 121.5 11.6505 121.09 11.58 120.69C11.4384 119.884 10.9831 119.168 10.3139 118.697C9.64465 118.227 8.81613 118.041 8.01002 118.18C7.61156 118.258 7.23241 118.414 6.89435 118.638C6.55629 118.863 6.266 119.152 6.04017 119.49C5.81434 119.827 5.65744 120.206 5.57847 120.604C5.4995 121.002 5.50002 121.412 5.58002 121.81L5.50001 121.75ZM2.74003 112.75C2.73607 113.156 2.81208 113.558 2.96372 113.935C3.11536 114.311 3.33966 114.654 3.62382 114.944C3.90797 115.234 4.24639 115.465 4.61979 115.623C4.99318 115.782 5.39423 115.866 5.80002 115.87C6.20534 115.874 6.60743 115.798 6.98328 115.646C7.35913 115.494 7.70131 115.27 7.99024 114.986C8.27917 114.701 8.50916 114.363 8.667 113.99C8.82483 113.616 8.9074 113.215 8.91001 112.81C8.9208 112 8.61198 111.218 8.05045 110.634C7.48892 110.05 6.7199 109.711 5.91001 109.69C5.09915 109.698 4.32389 110.024 3.75144 110.599C3.17899 111.173 2.85522 111.949 2.85001 112.76L2.74003 112.75ZM1.00001 103.36C0.827847 104.161 0.980814 104.998 1.42524 105.686C1.86966 106.374 2.56919 106.857 3.37003 107.03C4.17214 107.199 5.00857 107.044 5.69636 106.598C6.38414 106.152 6.86726 105.451 7.04001 104.65C7.21006 103.855 7.05976 103.025 6.62171 102.339C6.18366 101.654 5.49319 101.169 4.70002 100.99C3.89916 100.811 3.05995 100.957 2.36637 101.395C1.67279 101.834 1.18141 102.53 1.00001 103.33V103.36ZM0.270025 93.6901C0.103381 94.0602 0.0115566 94.4597 -0.000177413 94.8655C-0.0119115 95.2712 0.0566605 95.6753 0.201635 96.0545C0.34661 96.4336 0.565124 96.7804 0.84458 97.0748C1.12404 97.3693 1.45893 97.6055 1.83002 97.7701C2.57576 98.0976 3.42067 98.1175 4.18097 97.8254C4.94128 97.5332 5.55549 96.9527 5.89002 96.2101C6.22174 95.463 6.24497 94.6152 5.95469 93.8511C5.6644 93.087 5.0841 92.4684 4.34003 92.1301C3.96976 91.9629 3.57016 91.8704 3.1641 91.8579C2.75804 91.8453 2.3535 91.913 1.97361 92.0569C1.59372 92.2009 1.24595 92.4184 0.950201 92.6969C0.65445 92.9754 0.416493 93.3095 0.250006 93.6801L0.270025 93.6901ZM0.590033 83.8701C0.110924 84.5334 -0.0855255 85.3598 0.0438289 86.1678C0.173183 86.9758 0.617781 87.6995 1.28004 88.1801C1.94339 88.6592 2.76971 88.8556 3.5777 88.7263C4.3857 88.5969 5.1094 88.1523 5.59003 87.4901C6.07018 86.828 6.26822 86.0025 6.14075 85.1946C6.01329 84.3866 5.57069 83.6622 4.91001 83.1801C4.24628 82.6994 3.41923 82.5011 2.60969 82.6285C1.80014 82.7559 1.074 83.1987 0.590033 83.8601V83.8701ZM2.00001 74.3301C1.39558 74.884 1.0352 75.6548 0.997717 76.4738C0.960234 77.2928 1.24872 78.0933 1.80002 78.7001C2.35669 79.3007 3.12779 79.6576 3.94596 79.6932C4.76413 79.7287 5.56332 79.4402 6.17002 78.8901C6.77145 78.3365 7.12991 77.5678 7.16736 76.7513C7.20482 75.9347 6.91825 75.1364 6.37003 74.5301C5.81611 73.9257 5.04532 73.5653 4.22632 73.5278C3.40733 73.4903 2.60682 73.7788 2.00001 74.3301V74.3301ZM4.36002 65.1801C3.6548 65.5967 3.14385 66.2763 2.93946 67.0695C2.73507 67.8627 2.85397 68.7045 3.27003 69.4101C3.47715 69.7598 3.75121 70.0652 4.07654 70.3088C4.40188 70.5524 4.7721 70.7295 5.16596 70.8298C5.55982 70.9301 5.9696 70.9517 6.37183 70.8934C6.77407 70.8352 7.16084 70.6981 7.51002 70.4901C8.21252 70.0735 8.72154 69.3958 8.92579 68.605C9.13004 67.8142 9.01291 66.9748 8.60001 66.2701C8.3962 65.9184 8.125 65.6104 7.80195 65.3637C7.4789 65.117 7.11035 64.9364 6.71741 64.8324C6.32447 64.7283 5.91487 64.7028 5.51206 64.7574C5.10925 64.8119 4.72118 64.9453 4.37003 65.1501H4.32001L4.36002 65.1801ZM7.60001 56.5001C7.21567 56.6317 6.86107 56.8379 6.55649 57.1068C6.25192 57.3756 6.00335 57.7019 5.82502 58.0669C5.64668 58.432 5.5421 58.8286 5.51722 59.2341C5.49233 59.6396 5.54766 60.046 5.68003 60.4301C5.94796 61.2045 6.51249 61.8407 7.24949 62.1989C7.98649 62.5571 8.83559 62.6079 9.61002 62.3401C10.3839 62.0741 11.0206 61.512 11.3806 60.7771C11.7405 60.0422 11.7943 59.1946 11.53 58.4201C11.2597 57.6471 10.6954 57.012 9.95957 56.6525C9.22379 56.293 8.37592 56.2383 7.60001 56.5001V56.5001ZM11.72 48.3301C11.3175 48.3819 10.9291 48.5125 10.5771 48.7145C10.2251 48.9164 9.91625 49.1857 9.66831 49.507C9.42037 49.8283 9.23814 50.1953 9.13206 50.5871C9.02597 50.9788 8.9981 51.3876 9.05002 51.7901C9.10185 52.1926 9.23245 52.581 9.43439 52.933C9.63633 53.285 9.90566 53.5939 10.227 53.8418C10.5483 54.0897 10.9153 54.272 11.307 54.378C11.6987 54.4841 12.1075 54.512 12.51 54.4601C12.9135 54.4083 13.3028 54.2774 13.6555 54.0748C14.0083 53.8722 14.3176 53.602 14.5656 53.2796C14.8137 52.9572 14.9957 52.589 15.1011 52.1961C15.2065 51.8032 15.2334 51.3934 15.18 50.9901V50.9901C15.0704 50.1801 14.6454 49.4462 13.9974 48.9481C13.3494 48.4499 12.5309 48.2278 11.72 48.3301V48.3301ZM16.61 40.7301C16.2048 40.7001 15.7976 40.7504 15.4119 40.8779C15.0261 41.0055 14.6693 41.2079 14.3618 41.4736C14.0544 41.7392 13.8024 42.0629 13.6202 42.4261C13.438 42.7893 13.3292 43.1848 13.3 43.5901C13.2423 44.4068 13.511 45.2131 14.0472 45.8318C14.5835 46.4506 15.3434 46.8312 16.16 46.8901C16.9768 46.9507 17.7842 46.6846 18.4049 46.1502C19.0255 45.6158 19.4086 44.8568 19.47 44.0401C19.5278 43.2223 19.2594 42.4149 18.7234 41.7946C18.1874 41.1743 17.4275 40.7915 16.61 40.7301V40.7301ZM22.2 33.7301C21.411 33.5086 20.5663 33.6097 19.8518 34.011C19.1373 34.4124 18.6115 35.0811 18.39 35.8701C18.2788 36.2601 18.2458 36.6683 18.2927 37.0711C18.3396 37.4739 18.4657 37.8635 18.6636 38.2175C18.8615 38.5715 19.1274 38.883 19.4459 39.134C19.7645 39.3849 20.1295 39.5705 20.52 39.6801C21.3103 39.9018 22.1563 39.801 22.8724 39.3998C23.5886 38.9987 24.1163 38.3299 24.34 37.5401V37.5401C24.5504 36.7553 24.4453 35.9194 24.0473 35.2111C23.6492 34.5028 22.9898 33.9784 22.21 33.7501L22.2 33.7301ZM28.42 27.4101C28.0589 27.2249 27.6648 27.1126 27.2603 27.0797C26.8558 27.0468 26.4488 27.0939 26.0624 27.2184C25.6761 27.3428 25.3181 27.5421 25.0089 27.8049C24.6996 28.0678 24.4451 28.3889 24.26 28.7501C24.0748 29.1112 23.9625 29.5053 23.9296 29.9098C23.8967 30.3143 23.9439 30.7214 24.0683 31.1077C24.1927 31.494 24.392 31.852 24.6549 32.1612C24.9177 32.4705 25.2388 32.725 25.6 32.9101C25.9611 33.0953 26.3552 33.2076 26.7597 33.2405C27.1643 33.2734 27.5713 33.2262 27.9576 33.1018C28.3439 32.9774 28.7019 32.7781 29.0112 32.5152C29.3204 32.2524 29.5749 31.9313 29.76 31.5701C30.1258 30.8435 30.1914 30.0023 29.9426 29.2278C29.6938 28.4533 29.1506 27.8077 28.43 27.4301L28.42 27.4101ZM35.2 21.7901C34.5565 21.2805 33.7371 21.047 32.9216 21.1407C32.1062 21.2345 31.3612 21.6478 30.85 22.2901C30.341 22.932 30.1078 23.7498 30.2015 24.5636C30.2953 25.3774 30.7084 26.1207 31.35 26.6301C31.9917 27.1376 32.808 27.371 33.621 27.2792C34.4339 27.1874 35.1777 26.7779 35.69 26.1401C36.1945 25.499 36.4259 24.685 36.3342 23.8745C36.2424 23.0639 35.835 22.3222 35.2 21.8101V21.7901ZM42.47 16.9001C42.209 16.5883 41.8891 16.3311 41.5286 16.1432C41.168 15.9554 40.7739 15.8405 40.3689 15.8052C39.9638 15.7699 39.5558 15.8148 39.1682 15.9375C38.7806 16.0602 38.421 16.2582 38.11 16.5201C37.7986 16.7802 37.5416 17.0992 37.3538 17.4589C37.1661 17.8186 37.0513 18.2119 37.0159 18.6161C36.9806 19.0203 37.0255 19.4275 37.1481 19.8144C37.2706 20.2012 37.4684 20.5599 37.73 20.8701C38.2554 21.4982 39.0087 21.8922 39.8243 21.9653C40.64 22.0384 41.4513 21.7848 42.08 21.2601C42.7029 20.7335 43.0932 19.9826 43.1662 19.1702C43.2392 18.3578 42.9891 17.5493 42.47 16.9201V16.9001ZM50.16 12.7801C49.9646 12.424 49.7009 12.1099 49.3839 11.8557C49.067 11.6016 48.7031 11.4125 48.313 11.2992C47.9229 11.1859 47.5143 11.1506 47.1105 11.1954C46.7068 11.2401 46.3158 11.3641 45.96 11.5601C45.6042 11.7545 45.2903 12.0173 45.0364 12.3333C44.7824 12.6494 44.5933 13.0125 44.4799 13.4017C44.3666 13.791 44.3312 14.1989 44.3758 14.6018C44.4205 15.0048 44.5442 15.395 44.74 15.7501C45.1311 16.4595 45.7852 16.987 46.5614 17.2189C47.3376 17.4508 48.1738 17.3687 48.89 16.9901C49.6098 16.5986 50.1453 15.9382 50.3796 15.153C50.6138 14.3679 50.5277 13.5219 50.14 12.8001V12.8001L50.16 12.7801ZM58.16 9.46009C58.0412 9.072 57.8471 8.71111 57.5889 8.39804C57.3306 8.08497 57.0131 7.82585 56.6547 7.63548C56.2962 7.44511 55.9038 7.32723 55.4998 7.28855C55.0958 7.24988 54.6881 7.29118 54.3 7.41009C53.5159 7.6502 52.8589 8.19121 52.4728 8.91465C52.0868 9.6381 52.003 10.4851 52.24 11.2701C52.4822 12.0523 53.0241 12.707 53.7473 13.0911C54.4705 13.4751 55.3163 13.5575 56.1 13.3201C56.8862 13.0904 57.549 12.5579 57.9427 11.8397C58.3365 11.1216 58.429 10.2765 58.2 9.49009V9.49009L58.16 9.46009ZM66.55 6.99009C66.474 6.17474 66.0774 5.42292 65.4474 4.89979C64.8174 4.37666 64.0055 4.125 63.19 4.20009C62.7859 4.23527 62.3926 4.34995 62.0329 4.53755C61.6732 4.72515 61.3541 4.98197 61.0939 5.29325C60.8337 5.60453 60.6376 5.96415 60.5168 6.35145C60.396 6.73875 60.3529 7.14609 60.39 7.55009C60.4661 8.36619 60.8624 9.11893 61.4921 9.64365C62.1217 10.1684 62.9336 10.4224 63.75 10.3501C64.1546 10.3137 64.5481 10.1978 64.9079 10.0092C65.2676 9.82052 65.5867 9.56279 65.8468 9.25071C66.1068 8.93862 66.3028 8.57832 66.4235 8.19042C66.5442 7.80252 66.5872 7.39463 66.55 6.99009V6.99009ZM75.15 5.33009C75.237 4.5149 74.9976 3.69845 74.4841 3.05938C73.9706 2.42031 73.2248 2.01066 72.41 1.92009C71.5959 1.83025 70.7794 2.06734 70.1399 2.57925C69.5005 3.09116 69.0905 3.83601 69 4.65009C68.9129 5.46372 69.151 6.27881 69.6624 6.9176C70.1738 7.55639 70.917 7.96707 71.73 8.06009C72.5426 8.15005 73.3578 7.91431 73.9969 7.4045C74.636 6.89469 75.0471 6.15236 75.14 5.34009V5.34009L75.15 5.33009ZM83.94 4.54009C84.1884 3.76034 84.1173 2.91391 83.7423 2.18652C83.3674 1.45912 82.7192 0.910162 81.94 0.660089C81.1603 0.411723 80.3138 0.482811 79.5864 0.857758C78.8591 1.23271 78.3101 1.88089 78.06 2.66009C77.8117 3.43984 77.8828 4.28626 78.2577 5.01366C78.6326 5.74106 79.2808 6.29002 80.06 6.54009C80.4467 6.66596 80.8545 6.71401 81.2598 6.68148C81.6652 6.64894 82.0601 6.53646 82.4217 6.35052C82.7833 6.16458 83.1046 5.90887 83.3669 5.59814C83.6292 5.28741 83.8274 4.92781 83.95 4.54009V4.54009H83.94ZM92.88 4.64009C93.2869 3.92996 93.3964 3.08777 93.1847 2.29722C92.973 1.50666 92.4573 0.831891 91.75 0.420089C91.3983 0.215751 91.0097 0.0828761 90.6064 0.0290865C90.2032 -0.0247031 89.7934 0.00165178 89.4004 0.106639C89.0073 0.211626 88.6389 0.393179 88.3163 0.640883C87.9936 0.888586 87.723 1.19756 87.52 1.55009C87.1132 2.26021 87.0037 3.1024 87.2154 3.89296C87.427 4.68352 87.9428 5.35829 88.65 5.77009V5.77009C89.0022 5.976 89.3916 6.11013 89.7959 6.16476C90.2002 6.21939 90.6112 6.19343 91.0054 6.08837C91.3996 5.98332 91.7691 5.80126 92.0926 5.55268C92.416 5.30411 92.687 4.99395 92.89 4.64009V4.64009H92.88ZM128.46 156.64C128.482 155.821 128.178 155.027 127.616 154.431C127.054 153.835 126.279 153.486 125.46 153.46C124.642 153.439 123.849 153.742 123.255 154.305C122.661 154.867 122.314 155.642 122.29 156.46C122.278 156.866 122.346 157.27 122.49 157.65C122.635 158.029 122.852 158.376 123.131 158.672C123.41 158.967 123.744 159.205 124.114 159.371C124.485 159.537 124.884 159.628 125.29 159.64C125.698 159.656 126.105 159.591 126.487 159.448C126.87 159.306 127.22 159.089 127.518 158.809C127.815 158.53 128.055 158.195 128.222 157.822C128.388 157.45 128.48 157.048 128.49 156.64V156.64H128.46ZM119.77 161.29C119.992 160.501 119.893 159.656 119.494 158.94C119.094 158.225 118.428 157.696 117.64 157.47C116.852 157.245 116.007 157.342 115.291 157.739C114.575 158.137 114.046 158.803 113.82 159.59C113.598 160.378 113.696 161.221 114.093 161.937C114.49 162.653 115.154 163.182 115.94 163.41C116.726 163.636 117.57 163.54 118.286 163.145C119.002 162.749 119.532 162.086 119.76 161.3V161.3L119.77 161.29ZM110.68 164.73C110.882 164.378 111.013 163.99 111.066 163.587C111.118 163.185 111.09 162.776 110.984 162.384C110.879 161.992 110.696 161.625 110.449 161.303C110.201 160.982 109.892 160.712 109.54 160.51C109.188 160.308 108.8 160.177 108.397 160.124C107.995 160.072 107.586 160.1 107.194 160.206C106.802 160.312 106.435 160.494 106.113 160.741C105.792 160.989 105.522 161.298 105.32 161.65C105.117 162.001 104.986 162.388 104.933 162.789C104.88 163.19 104.907 163.598 105.012 163.989C105.117 164.38 105.298 164.747 105.545 165.068C105.792 165.389 106.099 165.658 106.45 165.86C107.16 166.27 108.003 166.381 108.794 166.169C109.585 165.957 110.26 165.439 110.67 164.73V164.73H110.68ZM101.31 166.95C101.591 166.657 101.812 166.312 101.959 165.934C102.107 165.556 102.179 165.152 102.17 164.746C102.162 164.341 102.074 163.94 101.911 163.569C101.748 163.197 101.513 162.861 101.22 162.58C100.929 162.299 100.585 162.077 100.208 161.929C99.8309 161.781 99.4284 161.708 99.0234 161.716C98.6184 161.723 98.2189 161.81 97.8476 161.972C97.4764 162.134 97.1408 162.368 96.86 162.66C96.5771 162.952 96.3546 163.296 96.2053 163.674C96.0561 164.052 95.9831 164.456 95.9906 164.862C95.998 165.268 96.0857 165.669 96.2487 166.041C96.4116 166.413 96.6466 166.749 96.94 167.03C97.2326 167.31 97.5776 167.53 97.9553 167.677C98.3329 167.823 98.7358 167.894 99.1408 167.885C99.5458 167.875 99.945 167.786 100.315 167.622C100.686 167.459 101.021 167.223 101.3 166.93L101.31 166.95ZM91.79 167.95C92.4863 167.517 92.9825 166.825 93.1699 166.027C93.3574 165.228 93.2208 164.388 92.79 163.69C92.3567 162.994 91.665 162.498 90.8666 162.31C90.0681 162.123 89.228 162.259 88.53 162.69C87.8372 163.121 87.3431 163.809 87.1557 164.604C86.9684 165.398 87.1029 166.235 87.53 166.93C87.7427 167.276 88.0216 167.576 88.3506 167.813C88.6797 168.05 89.0523 168.22 89.4472 168.313C89.8421 168.406 90.2515 168.42 90.6518 168.354C91.0522 168.289 91.4356 168.144 91.78 167.93L91.79 167.95ZM82.24 167.73C82.6281 167.606 82.9879 167.407 83.2987 167.144C83.6096 166.881 83.8653 166.558 84.0511 166.196C84.237 165.834 84.3494 165.438 84.3818 165.032C84.4142 164.626 84.366 164.217 84.24 163.83C83.9879 163.048 83.4354 162.398 82.7041 162.023C81.9727 161.648 81.1224 161.578 80.34 161.83C79.5631 162.08 78.9168 162.628 78.5421 163.353C78.1673 164.078 78.0947 164.922 78.34 165.7C78.4615 166.089 78.659 166.449 78.921 166.76C79.1831 167.072 79.5044 167.328 79.8664 167.514C80.2284 167.7 80.6238 167.813 81.0296 167.845C81.4353 167.876 81.8434 167.827 82.23 167.7L82.24 167.73ZM72.8 166.3C73.2041 166.266 73.5976 166.153 73.9577 165.966C74.3179 165.78 74.6377 165.524 74.8988 165.214C75.1599 164.903 75.3571 164.545 75.4792 164.158C75.6012 163.771 75.6457 163.364 75.61 162.96C75.576 162.556 75.4626 162.162 75.2763 161.801C75.09 161.44 74.8345 161.12 74.5243 160.858C74.2141 160.596 73.8554 160.398 73.4686 160.275C73.0818 160.152 72.6745 160.106 72.27 160.14C71.8659 160.174 71.4725 160.288 71.1123 160.474C70.7521 160.66 70.4323 160.916 70.1713 161.226C69.9102 161.537 69.7129 161.896 69.5909 162.282C69.4688 162.669 69.4244 163.076 69.46 163.48C69.5337 164.293 69.9264 165.045 70.5523 165.569C71.1782 166.094 71.9863 166.349 72.8 166.28V166.3ZM63.6 163.69C64.4101 163.807 65.2337 163.598 65.8899 163.109C66.5461 162.62 66.9813 161.89 67.1 161.08C67.1595 160.679 67.139 160.27 67.0398 159.876C66.9407 159.483 66.7648 159.113 66.5223 158.788C66.2798 158.463 65.9754 158.188 65.6266 157.981C65.2779 157.774 64.8916 157.638 64.49 157.58C63.69 157.462 62.8756 157.663 62.2226 158.14C61.5696 158.617 61.1305 159.332 61 160.13C60.936 160.531 60.9521 160.942 61.0474 161.337C61.1426 161.732 61.3152 162.104 61.555 162.432C61.7948 162.76 62.0972 163.038 62.4448 163.249C62.7923 163.459 63.1782 163.599 63.58 163.66V163.66L63.6 163.69ZM54.78 159.93C55.53 160.233 56.3691 160.231 57.117 159.922C57.8649 159.614 58.462 159.024 58.78 158.28C59.0962 157.524 59.1001 156.673 58.7909 155.915C58.4817 155.156 57.8845 154.55 57.13 154.23C56.3739 153.914 55.5234 153.91 54.7645 154.219C54.0055 154.528 53.3999 155.126 53.08 155.88V155.88C52.7778 156.633 52.7836 157.474 53.096 158.222C53.4084 158.97 54.0025 159.566 54.75 159.88L54.78 159.93ZM46.47 155.04C46.7968 155.28 47.1676 155.452 47.5613 155.548C47.9549 155.644 48.3637 155.662 48.7641 155.599C49.1644 155.537 49.5486 155.397 49.8945 155.186C50.2405 154.975 50.5414 154.698 50.78 154.37C51.0198 154.042 51.1927 153.671 51.2889 153.276C51.385 152.882 51.4024 152.472 51.3402 152.071C51.278 151.67 51.1373 151.285 50.9262 150.938C50.7152 150.591 50.4378 150.29 50.11 150.05C49.7837 149.809 49.4129 149.635 49.0191 149.539C48.6252 149.442 48.2161 149.424 47.8153 149.487C47.4146 149.549 47.0302 149.69 46.6843 149.902C46.3383 150.113 46.0378 150.392 45.8 150.72C45.5597 151.047 45.3861 151.418 45.2892 151.812C45.1923 152.206 45.174 152.616 45.2353 153.017C45.2966 153.418 45.4363 153.803 45.6464 154.15C45.8565 154.497 46.133 154.8 46.46 155.04H46.47ZM38.81 149.04C39.0708 149.351 39.3904 149.607 39.7505 149.794C40.1105 149.981 40.504 150.095 40.9081 150.129C41.3123 150.163 41.7193 150.117 42.1058 149.994C42.4922 149.871 42.8505 149.672 43.16 149.41C43.7852 148.882 44.1753 148.127 44.2447 147.312C44.3141 146.496 44.057 145.686 43.53 145.06C43.0035 144.436 42.2515 144.046 41.4384 143.975C40.6252 143.904 39.8169 144.157 39.19 144.68C38.8779 144.939 38.62 145.258 38.4314 145.617C38.2427 145.977 38.1269 146.37 38.0907 146.774C38.0544 147.178 38.0985 147.586 38.2202 147.973C38.3419 148.36 38.539 148.719 38.8 149.03L38.81 149.04ZM31.91 142.04C32.2716 142.774 32.9093 143.334 33.6836 143.599C34.4578 143.863 35.3052 143.81 36.04 143.45C36.7739 143.089 37.3344 142.451 37.5987 141.677C37.8631 140.902 37.8096 140.055 37.45 139.32C37.2729 138.956 37.0258 138.631 36.7228 138.362C36.4198 138.094 36.0669 137.888 35.6843 137.756C35.3017 137.624 34.8968 137.569 34.4928 137.594C34.0889 137.619 33.6937 137.723 33.33 137.9C32.5993 138.254 32.038 138.883 31.7683 139.649C31.4987 140.415 31.5424 141.256 31.89 141.99L31.95 142.1L31.91 142.04ZM25.91 134.13C25.9943 134.526 26.1559 134.902 26.3856 135.235C26.6153 135.569 26.9085 135.854 27.2484 136.074C27.5884 136.294 27.9685 136.445 28.3668 136.518C28.7652 136.591 29.174 136.585 29.57 136.5C29.9671 136.417 30.3438 136.256 30.6785 136.027C31.0132 135.798 31.2994 135.505 31.5205 135.165C31.7416 134.825 31.8934 134.444 31.9671 134.045C32.0408 133.646 32.035 133.237 31.95 132.84C31.7772 132.041 31.2955 131.342 30.61 130.897C29.9245 130.451 29.0906 130.294 28.29 130.46C27.8919 130.541 27.5138 130.7 27.1771 130.927C26.8405 131.155 26.552 131.446 26.3281 131.785C26.1043 132.124 25.9495 132.504 25.8726 132.903C25.7957 133.302 25.7982 133.712 25.88 134.11V134.21L25.91 134.13ZM20.91 125.35C20.898 125.756 20.9661 126.16 21.1104 126.54C21.2548 126.919 21.4724 127.266 21.751 127.562C22.0296 127.857 22.3637 128.095 22.7342 128.261C23.1046 128.427 23.5042 128.518 23.91 128.53C24.7279 128.552 25.521 128.248 26.1153 127.685C26.7095 127.123 27.0565 126.348 27.08 125.53C27.092 125.124 27.0239 124.72 26.8796 124.341C26.7353 123.961 26.5176 123.614 26.239 123.318C25.9604 123.023 25.6263 122.786 25.2559 122.619C24.8854 122.453 24.4859 122.362 24.08 122.35C23.6725 122.335 23.2662 122.402 22.8844 122.545C22.5026 122.688 22.1528 122.905 21.8554 123.184C21.5579 123.463 21.3186 123.798 21.1512 124.169C20.9838 124.541 20.8916 124.943 20.88 125.35V125.35H20.91ZM17.13 116.03C16.885 116.807 16.9579 117.65 17.3328 118.373C17.7076 119.097 18.3539 119.642 19.13 119.89C19.9071 120.135 20.7496 120.062 21.4731 119.687C22.1966 119.312 22.742 118.666 22.99 117.89C23.2323 117.113 23.1581 116.272 22.7836 115.549C22.4092 114.826 21.7646 114.28 20.99 114.03C20.205 113.793 19.358 113.877 18.6346 114.263C17.9111 114.649 17.3701 115.306 17.13 116.09V116.09V116.03ZM14.68 106.54C14.4759 106.891 14.3432 107.279 14.2896 107.681C14.2359 108.084 14.2624 108.493 14.3674 108.885C14.4724 109.277 14.6539 109.645 14.9015 109.967C15.1491 110.288 15.4579 110.558 15.81 110.76C16.1619 110.962 16.5503 111.093 16.9528 111.146C17.3554 111.198 17.7643 111.17 18.1562 111.064C18.5481 110.959 18.9153 110.777 19.2368 110.529C19.5583 110.281 19.8279 109.972 20.03 109.62C20.233 109.27 20.365 108.884 20.4186 108.483C20.4721 108.082 20.4461 107.674 20.3421 107.283C20.2381 106.892 20.0581 106.525 19.8124 106.204C19.5667 105.883 19.26 105.613 18.91 105.41C18.1966 105.007 17.3522 104.904 16.5627 105.123C15.7732 105.343 15.1032 105.867 14.7 106.58V106.58L14.68 106.54ZM13.51 96.9901C13.2219 97.2764 12.9932 97.6168 12.8372 97.9918C12.6811 98.3668 12.6008 98.7689 12.6008 99.1751C12.6008 99.5813 12.6811 99.9834 12.8372 100.358C12.9932 100.733 13.2219 101.074 13.51 101.36C13.7969 101.647 14.1376 101.875 14.5125 102.03C14.8874 102.185 15.2892 102.265 15.695 102.265C16.1008 102.265 16.5026 102.185 16.8775 102.03C17.2524 101.875 17.5931 101.647 17.88 101.36C18.1676 101.074 18.396 100.734 18.5522 100.359C18.7083 99.9846 18.7892 99.583 18.7901 99.1772C18.791 98.7714 18.712 98.3694 18.5576 97.9941C18.4032 97.6188 18.1763 97.2777 17.89 96.9901C17.5992 96.707 17.2554 96.4841 16.8784 96.3339C16.5013 96.1837 16.0984 96.1093 15.6926 96.1149C15.2868 96.1205 14.8861 96.2059 14.5133 96.3664C14.1405 96.5268 13.803 96.7592 13.52 97.0501V97.0501L13.51 96.9901ZM13.56 87.5701C13.2142 87.7838 12.914 88.0636 12.6765 88.3935C12.439 88.7234 12.269 89.0969 12.1761 89.4926C12.0832 89.8883 12.0693 90.2985 12.1352 90.6996C12.2011 91.1007 12.3454 91.4849 12.56 91.8301C12.9934 92.5264 13.685 93.0226 14.4835 93.21C15.2819 93.3974 16.1221 93.2608 16.82 92.8301C17.5129 92.3987 18.007 91.7107 18.1943 90.9163C18.3817 90.1219 18.2471 89.2856 17.82 88.5901C17.3739 87.9038 16.6738 87.4225 15.8732 87.2519C15.0727 87.0813 14.2372 87.2353 13.55 87.6801L13.56 87.5701ZM14.77 78.3701C14.3819 78.4938 14.0221 78.693 13.7113 78.9563C13.4005 79.2196 13.1448 79.5417 12.9589 79.9041C12.773 80.2666 12.6607 80.6622 12.6282 81.0683C12.5958 81.4743 12.644 81.8827 12.77 82.2701C12.8948 82.6586 13.0951 83.0186 13.3593 83.3295C13.6235 83.6404 13.9465 83.8961 14.3098 84.0819C14.673 84.2677 15.0694 84.38 15.4761 84.4123C15.8829 84.4446 16.292 84.3963 16.68 84.2701C17.4554 84.0177 18.1 83.47 18.4744 82.7456C18.8487 82.0212 18.9226 81.1786 18.68 80.4001C18.4097 79.632 17.8481 79.0011 17.1165 78.6437C16.3848 78.2864 15.542 78.2312 14.77 78.4901V78.3701ZM17.07 69.5001C16.665 69.5328 16.2705 69.6454 15.9092 69.8312C15.5479 70.0171 15.2269 70.2726 14.9648 70.5831C14.7027 70.8936 14.5046 71.2528 14.3819 71.6402C14.2592 72.0275 14.2144 72.4353 14.25 72.8401C14.284 73.2446 14.3974 73.6385 14.5837 73.9991C14.77 74.3598 15.0256 74.6802 15.3357 74.9421C15.6459 75.204 16.0046 75.4022 16.3914 75.5254C16.7782 75.6486 17.1855 75.6944 17.59 75.6601C18.406 75.5888 19.1605 75.1975 19.6889 74.5717C20.2173 73.9459 20.4765 73.1364 20.41 72.3201C20.3192 71.5194 19.9192 70.7858 19.2952 70.2758C18.6713 69.7658 17.8728 69.5198 17.07 69.5901V69.5001ZM20.39 61.0601C19.9887 61.0007 19.5796 61.0211 19.1862 61.1203C18.7928 61.2194 18.4229 61.3953 18.0977 61.6378C17.7724 61.8803 17.4984 62.1847 17.2911 62.5335C17.0839 62.8822 16.9476 63.2685 16.89 63.6701C16.8335 64.0719 16.8568 64.481 16.9584 64.8738C17.06 65.2667 17.238 65.6357 17.4822 65.9598C17.7264 66.2839 18.0321 66.5567 18.3817 66.7626C18.7314 66.9686 19.1182 67.1036 19.52 67.1601C20.3092 67.2713 21.1108 67.0733 21.7574 66.6074C22.404 66.1415 22.8457 65.4439 22.99 64.6601C23.1136 63.8487 22.9103 63.0214 22.4247 62.3597C21.9392 61.698 21.2111 61.2558 20.4 61.1301V61.1301L20.39 61.0601ZM24.66 53.1501C23.9098 52.8494 23.0717 52.8536 22.3245 53.1618C21.5773 53.47 20.98 54.0579 20.66 54.8001C20.3439 55.5562 20.34 56.4067 20.6492 57.1656C20.9584 57.9246 21.5555 58.5302 22.31 58.8501C23.0603 59.1508 23.8983 59.1466 24.6455 58.8384C25.3927 58.5302 25.99 57.9423 26.31 57.2001V57.2001C26.5825 56.4583 26.5613 55.6404 26.2509 54.9137C25.9405 54.1869 25.3643 53.6062 24.64 53.2901L24.66 53.1501ZM29.82 45.8501C29.4924 45.6103 29.1208 45.4374 28.7263 45.3412C28.3319 45.2451 27.9224 45.2277 27.5212 45.2899C27.12 45.3521 26.735 45.4928 26.3882 45.7039C26.0414 45.915 25.7396 46.1923 25.5 46.5201C25.2602 46.8477 25.0873 47.2193 24.9912 47.6138C24.895 48.0082 24.8776 48.4177 24.9398 48.8189C25.002 49.2201 25.1427 49.6051 25.3538 49.9519C25.5649 50.2987 25.8422 50.6005 26.17 50.8401C26.4976 51.0799 26.8692 51.2528 27.2637 51.3489C27.6581 51.4451 28.0677 51.4625 28.4689 51.4003C28.8701 51.3381 29.2551 51.1974 29.6019 50.9863C29.9487 50.7752 30.2505 50.4979 30.49 50.1701C30.944 49.5142 31.1277 48.7086 31.0029 47.9208C30.8781 47.133 30.4544 46.4236 29.82 45.9401V45.8501ZM35.82 39.2301C35.5583 38.9191 35.2379 38.6627 34.877 38.4757C34.5161 38.2887 34.1218 38.1748 33.7168 38.1404C33.3118 38.1061 32.904 38.1519 32.5167 38.2754C32.1295 38.3989 31.7704 38.5976 31.46 38.8601C30.8348 39.3883 30.4447 40.143 30.3753 40.9586C30.306 41.7741 30.563 42.5839 31.09 43.2101C31.6183 43.8345 32.372 44.2248 33.1868 44.2959C34.0015 44.3671 34.8115 44.1134 35.44 43.5901C36.0382 43.0616 36.4095 42.3227 36.4766 41.5273C36.5436 40.7319 36.3013 39.9413 35.8 39.3201L35.82 39.2301ZM42.56 33.3701C42.1912 32.6408 41.5493 32.0867 40.774 31.8282C39.9987 31.5698 39.1527 31.628 38.42 31.9901C37.6862 32.3516 37.1256 32.9894 36.8613 33.7636C36.597 34.5378 36.6505 35.3853 37.01 36.1201C37.3698 36.8557 38.0068 37.4185 38.7812 37.6847C39.5556 37.951 40.404 37.8989 41.14 37.5401C41.8375 37.1756 42.3703 36.5595 42.6303 35.8167C42.8903 35.0739 42.858 34.26 42.54 33.5401L42.56 33.3701ZM50 28.3701C49.9157 27.9726 49.7538 27.5957 49.5236 27.2609C49.2934 26.9261 48.9995 26.64 48.6586 26.419C48.3177 26.1979 47.9366 26.0462 47.537 25.9726C47.1375 25.899 46.7273 25.905 46.33 25.9901C45.933 26.0733 45.5563 26.2341 45.2216 26.4633C44.8868 26.6924 44.6007 26.9855 44.3795 27.3256C44.1584 27.6657 44.0066 28.0461 43.9329 28.445C43.8592 28.8439 43.865 29.2534 43.95 29.6501C44.1317 30.444 44.6185 31.1346 45.3053 31.5725C45.992 32.0104 46.8235 32.1604 47.62 31.9901C48.4096 31.8146 49.0997 31.3385 49.544 30.6627C49.9884 29.9868 50.1519 29.1645 50 28.3701V28.3701ZM58.09 24.1901C58.1116 23.3712 57.8081 22.5771 57.246 21.9812C56.6839 21.3854 55.9088 21.0362 55.09 21.0101C54.6842 20.9954 54.2794 21.0608 53.8989 21.2027C53.5183 21.3445 53.1695 21.56 52.8723 21.8368C52.5751 22.1135 52.3354 22.4462 52.1668 22.8156C51.9983 23.1851 51.9042 23.5842 51.89 23.9901C51.878 24.3959 51.9461 24.8001 52.0904 25.1796C52.2347 25.5591 52.4524 25.9065 52.731 26.2018C53.0096 26.4971 53.3437 26.7346 53.7142 26.9008C54.0846 27.0669 54.4842 27.1584 54.89 27.1701C55.703 27.1972 56.4939 26.9027 57.0911 26.3504C57.6883 25.7982 58.0436 25.0327 58.08 24.2201L58.09 24.1901ZM73.4 153.1C73.9975 152.539 74.3486 151.765 74.3767 150.946C74.4048 150.127 74.1076 149.33 73.55 148.73C73.2731 148.433 72.9403 148.194 72.5707 148.025C72.2011 147.857 71.802 147.763 71.3961 147.749C70.9902 147.735 70.5856 147.802 70.2054 147.944C69.8251 148.087 69.4767 148.303 69.18 148.58C68.5857 149.133 68.2333 149.897 68.1996 150.708C68.1659 151.519 68.4536 152.31 69 152.91C69.2714 153.212 69.5996 153.457 69.9658 153.631C70.3321 153.805 70.7292 153.905 71.1343 153.926C71.5394 153.946 71.9446 153.887 72.3265 153.75C72.7085 153.613 73.0597 153.403 73.36 153.13L73.4 153.1ZM64 150.16C64.7356 149.8 65.2984 149.163 65.5646 148.389C65.8309 147.615 65.7789 146.766 65.42 146.03C65.0601 145.295 64.4237 144.731 63.6499 144.463C62.8761 144.196 62.0277 144.245 61.29 144.6C60.5544 144.96 59.9916 145.597 59.7254 146.371C59.4591 147.146 59.5112 147.994 59.87 148.73C60.0452 149.096 60.2911 149.423 60.5936 149.693C60.896 149.963 61.2489 150.171 61.632 150.304C62.015 150.437 62.4206 150.493 62.8254 150.468C63.2301 150.443 63.6259 150.339 63.99 150.16H64ZM55.31 145.88C56.1172 145.745 56.8379 145.296 57.3141 144.63C57.7903 143.965 57.983 143.138 57.85 142.33C57.7845 141.93 57.6406 141.546 57.4267 141.201C57.2128 140.856 56.933 140.556 56.6033 140.32C56.2736 140.083 55.9006 139.913 55.5053 139.821C55.1101 139.728 54.7006 139.714 54.3 139.78C53.4929 139.915 52.7721 140.364 52.2959 141.03C51.8198 141.695 51.627 142.523 51.76 143.33C51.8902 144.139 52.3362 144.863 53 145.343C53.6639 145.823 54.4911 146.02 55.3 145.89L55.31 145.88ZM47.45 140.36C48.2628 140.459 49.0816 140.231 49.7266 139.727C50.3716 139.222 50.79 138.483 50.89 137.67C50.9889 136.857 50.7611 136.038 50.2568 135.394C49.7524 134.749 49.0127 134.33 48.2 134.23C47.7981 134.18 47.3902 134.209 46.9997 134.317C46.6091 134.424 46.2436 134.608 45.9241 134.856C45.6045 135.105 45.3372 135.415 45.1375 135.767C44.9378 136.12 44.8095 136.508 44.76 136.91C44.6582 137.723 44.8832 138.543 45.3858 139.19C45.8883 139.837 46.6272 140.258 47.44 140.36V140.36H47.45ZM40.54 133.73C41.286 134.038 42.1231 134.041 42.8712 133.738C43.6192 133.435 44.2185 132.85 44.54 132.11C44.7017 131.737 44.7881 131.336 44.7941 130.93C44.8001 130.524 44.7257 130.12 44.5751 129.743C44.4245 129.365 44.2008 129.022 43.9167 128.731C43.6326 128.441 43.2939 128.209 42.92 128.05C42.5478 127.89 42.1476 127.805 41.7425 127.8C41.3373 127.794 40.9351 127.869 40.5588 128.02C40.1826 128.17 39.8398 128.393 39.55 128.677C39.2602 128.96 39.0291 129.297 38.87 129.67C38.7102 130.043 38.6255 130.444 38.621 130.849C38.6164 131.255 38.6921 131.657 38.8435 132.034C38.995 132.41 39.2193 132.753 39.5036 133.042C39.7878 133.332 40.1265 133.562 40.5 133.72V133.72L40.54 133.73ZM34.72 126.13C35.0318 126.389 35.3919 126.584 35.7793 126.703C36.1668 126.822 36.574 126.863 36.9775 126.824C37.381 126.785 37.7728 126.667 38.1302 126.476C38.4877 126.284 38.8037 126.024 39.06 125.71C39.3193 125.397 39.5143 125.037 39.6336 124.648C39.7529 124.26 39.7942 123.852 39.7552 123.448C39.7161 123.043 39.5975 122.651 39.4061 122.293C39.2147 121.934 38.9544 121.617 38.64 121.36C38.3276 121.102 37.9675 120.909 37.5802 120.79C37.1929 120.672 36.786 120.631 36.3829 120.67C35.9798 120.709 35.5883 120.827 35.2309 121.018C34.8735 121.208 34.5572 121.467 34.3 121.78C34.0407 122.093 33.8458 122.454 33.7265 122.842C33.6072 123.23 33.5658 123.638 33.6049 124.042C33.6439 124.447 33.7625 124.839 33.9539 125.198C34.1453 125.556 34.4057 125.873 34.72 126.13V126.13ZM30.1 117.73C30.3278 118.066 30.6199 118.353 30.9594 118.576C31.299 118.798 31.6792 118.951 32.0781 119.025C32.4771 119.099 32.8868 119.094 33.2836 119.009C33.6805 118.924 34.0565 118.761 34.39 118.53C34.7259 118.302 35.0133 118.01 35.2356 117.671C35.4578 117.331 35.6106 116.951 35.685 116.552C35.7594 116.153 35.7539 115.743 35.669 115.346C35.584 114.95 35.4212 114.574 35.19 114.24C34.9622 113.906 34.6708 113.62 34.3324 113.398C33.994 113.177 33.6152 113.024 33.2178 112.949C32.8204 112.873 32.412 112.877 32.016 112.96C31.62 113.042 31.2442 113.202 30.91 113.43C30.2353 113.895 29.7723 114.609 29.6224 115.415C29.4725 116.221 29.6478 117.053 30.11 117.73V117.73H30.1ZM26.79 108.73C26.9137 109.118 27.1129 109.478 27.3762 109.789C27.6395 110.1 27.9616 110.355 28.3241 110.541C28.6865 110.727 29.0821 110.839 29.4882 110.872C29.8942 110.904 30.3027 110.856 30.69 110.73C31.0781 110.606 31.4379 110.407 31.7487 110.144C32.0596 109.881 32.3153 109.559 32.5011 109.196C32.687 108.834 32.7994 108.438 32.8318 108.032C32.8642 107.626 32.816 107.217 32.69 106.83C32.4399 106.053 31.8925 105.407 31.1674 105.032C30.4423 104.657 29.5985 104.585 28.82 104.83C28.0431 105.08 27.3968 105.628 27.0221 106.353C26.6473 107.078 26.5747 107.922 26.82 108.7L26.79 108.73ZM24.88 99.2301C24.8903 99.6372 24.9813 100.038 25.1476 100.41C25.3139 100.782 25.5523 101.117 25.849 101.396C26.1456 101.675 26.4947 101.892 26.876 102.035C27.2572 102.179 27.663 102.245 28.07 102.23C28.4776 102.218 28.8789 102.126 29.2506 101.959C29.6224 101.792 29.9574 101.552 30.2363 101.255C30.5152 100.957 30.7324 100.608 30.8755 100.226C31.0186 99.8439 31.0847 99.4376 31.07 99.0301C31.0636 98.6208 30.9759 98.217 30.812 97.8419C30.6482 97.4668 30.4115 97.128 30.1156 96.8452C29.8198 96.5624 29.4707 96.3411 29.0886 96.1943C28.7066 96.0475 28.2991 95.9781 27.89 95.9901C27.0739 96.0137 26.3004 96.3592 25.7383 96.9513C25.1761 97.5434 24.8712 98.3339 24.89 99.1501L24.88 99.2301ZM24.46 89.4601C24.358 89.8534 24.3349 90.2631 24.3919 90.6654C24.4489 91.0677 24.585 91.4548 24.7923 91.8043C24.9996 92.1538 25.274 92.4588 25.5997 92.7018C25.9254 92.9448 26.2959 93.121 26.69 93.2201C27.483 93.4203 28.3229 93.298 29.0258 92.88C29.7287 92.462 30.2373 91.7824 30.44 90.9901C30.6409 90.1999 30.5213 89.3623 30.1074 88.6599C29.6934 87.9575 29.0186 87.4472 28.23 87.2401C27.4453 87.0411 26.6139 87.158 25.9145 87.5657C25.2151 87.9734 24.7036 88.6392 24.49 89.4201L24.46 89.4601ZM25.59 79.6101C25.3799 79.9577 25.2405 80.3435 25.18 80.7452C25.1196 81.1469 25.1392 81.5566 25.2377 81.9507C25.3362 82.3448 25.5117 82.7155 25.7541 83.0415C25.9965 83.3675 26.301 83.6423 26.65 83.8501C26.9988 84.0594 27.3857 84.1976 27.7882 84.2566C28.1907 84.3156 28.6009 84.2942 28.9951 84.1938C29.3893 84.0934 29.7598 83.9159 30.085 83.6715C30.4102 83.4272 30.6838 83.1208 30.89 82.7701C31.3127 82.0685 31.4395 81.2278 31.2426 80.4328C31.0457 79.6377 30.5412 78.9534 29.84 78.5301C29.1455 78.1119 28.3149 77.9824 27.526 78.1693C26.7372 78.3562 26.053 78.8447 25.62 79.5301L25.59 79.6101ZM28.3 69.8801C27.697 70.4354 27.3385 71.2069 27.3029 72.0259C27.2673 72.8448 27.5575 73.6446 28.11 74.2501C28.6667 74.8517 29.4389 75.2084 30.2579 75.2421C31.0768 75.2759 31.8758 74.9839 32.48 74.4301C33.0824 73.8765 33.4407 73.1067 33.4763 72.2894C33.5119 71.472 33.222 70.6739 32.67 70.0701C32.1237 69.4636 31.3595 69.098 30.5445 69.053C29.7295 69.0081 28.9298 69.2874 28.32 69.8301L28.3 69.8801ZM32.48 60.7501C32.114 60.9263 31.7864 61.1732 31.5162 61.4765C31.246 61.7798 31.0385 62.1336 30.9056 62.5175C30.7726 62.9014 30.717 63.3078 30.7418 63.7132C30.7666 64.1187 30.8713 64.5153 31.05 64.8801C31.41 65.6156 32.0464 66.1788 32.8201 66.4467C33.5939 66.7146 34.4423 66.6655 35.18 66.3101C35.9155 65.9501 36.4787 65.3138 36.7466 64.54C37.0146 63.7662 36.9655 62.9178 36.61 62.1801C36.261 61.439 35.6321 60.8668 34.8614 60.5893C34.0907 60.3118 33.2413 60.3516 32.5 60.7001L32.48 60.7501ZM37.88 52.6401C37.4795 52.7057 37.0957 52.8495 36.7508 53.0634C36.4058 53.2773 36.1064 53.5571 35.8696 53.8868C35.6328 54.2165 35.4632 54.5896 35.3706 54.9848C35.2781 55.38 35.2643 55.7895 35.33 56.1901C35.467 56.9975 35.9189 57.7174 36.5865 58.1918C37.254 58.6662 38.0825 58.8562 38.89 58.7201C39.6978 58.5852 40.4194 58.1361 40.8971 57.471C41.3749 56.8058 41.5701 55.9787 41.44 55.1701C41.3165 54.3612 40.8782 53.6339 40.2207 53.1469C39.5632 52.6598 38.7398 52.4525 37.93 52.5701V52.5701L37.88 52.6401ZM44.3 45.6401C43.4951 45.5494 42.6867 45.7783 42.049 46.2777C41.4112 46.7771 40.995 47.5069 40.89 48.3101C40.7911 49.1229 41.0189 49.9417 41.5233 50.5867C42.0276 51.2316 42.7674 51.6501 43.58 51.7501C43.9832 51.8005 44.3924 51.7708 44.7842 51.6628C45.1759 51.5548 45.5425 51.3706 45.863 51.1207C46.1835 50.8709 46.4515 50.5602 46.6518 50.2066C46.852 49.8531 46.9805 49.4634 47.03 49.0601C47.0252 49.037 47.0252 49.0132 47.03 48.9901C47.1207 48.1825 46.8907 47.3716 46.3895 46.732C45.8882 46.0924 45.1559 45.6751 44.35 45.5701L44.3 45.6401ZM51.54 39.8101C51.1671 39.6497 50.7662 39.5645 50.3603 39.5591C49.9544 39.5537 49.5514 39.6284 49.1744 39.7789C48.7973 39.9293 48.4536 40.1526 48.1629 40.4359C47.8722 40.7192 47.6401 41.0571 47.48 41.4301C47.3183 41.8028 47.232 42.2039 47.2259 42.6102C47.2199 43.0165 47.2943 43.4199 47.4449 43.7973C47.5955 44.1747 47.8193 44.5185 48.1033 44.8091C48.3874 45.0996 48.7261 45.331 49.1 45.4901C49.473 45.6504 49.8738 45.7357 50.2797 45.7411C50.6857 45.7464 51.0886 45.6718 51.4657 45.5213C51.8427 45.3709 52.1864 45.1476 52.4771 44.8643C52.7679 44.581 52.9999 44.2431 53.16 43.8701C53.4955 43.1232 53.5219 42.2738 53.2333 41.5076C52.9448 40.7413 52.3648 40.1203 51.62 39.7801H51.56L51.54 39.8101ZM59.43 35.1801C59.1174 34.9208 58.7565 34.7258 58.3683 34.6065C57.98 34.4872 57.5719 34.4459 57.1676 34.4849C56.7633 34.524 56.3707 34.6426 56.0124 34.834C55.6541 35.0254 55.3373 35.2857 55.08 35.6001C54.8207 35.9127 54.6258 36.2736 54.5065 36.6618C54.3872 37.0501 54.3458 37.4582 54.3849 37.8625C54.4239 38.2668 54.5425 38.6594 54.7339 39.0177C54.9253 39.376 55.1857 39.6928 55.5 39.9501C55.8132 40.2082 56.1742 40.402 56.5623 40.5206C56.9504 40.6391 57.3581 40.6801 57.762 40.6411C58.166 40.6021 58.5583 40.4839 58.9165 40.2933C59.2748 40.1027 59.592 39.8433 59.85 39.5301C60.38 38.9047 60.6407 38.0949 60.5751 37.2778C60.5095 36.4607 60.123 35.7029 59.5 35.1701H59.45L59.43 35.1801ZM67.78 31.7901C67.3257 31.1068 66.619 30.6316 65.8148 30.4685C65.0107 30.3054 64.1747 30.4678 63.49 30.9201C62.8075 31.3726 62.3324 32.0775 62.1693 32.88C62.0062 33.6826 62.1683 34.517 62.62 35.2001C63.0725 35.8827 63.7775 36.3577 64.58 36.5208C65.3825 36.6839 66.217 36.5218 66.9 36.0701L67 36.0101C67.6691 35.545 68.1282 34.8352 68.2779 34.0342C68.4276 33.2332 68.256 32.4055 67.8 31.7301L67.78 31.7901ZM76.43 29.6401C76.3052 29.2516 76.105 28.8916 75.8408 28.5807C75.5765 28.2698 75.2535 28.0141 74.8903 27.8283C74.527 27.6425 74.1306 27.5302 73.7239 27.4979C73.3172 27.4656 72.9081 27.5139 72.52 27.6401C72.1319 27.7638 71.7721 27.963 71.4613 28.2263C71.1505 28.4895 70.8948 28.8117 70.7089 29.1741C70.523 29.5366 70.4107 29.9322 70.3782 30.3383C70.3458 30.7443 70.394 31.1527 70.52 31.5401C70.7724 32.3177 71.3216 32.9642 72.0483 33.3388C72.775 33.7134 73.6202 33.7857 74.4 33.5401C75.1746 33.2898 75.8192 32.744 76.1936 32.0213C76.5681 31.2985 76.6423 30.4572 76.4 29.6801V29.5801L76.43 29.6401ZM85.22 28.7501C85.2071 28.3429 85.1141 27.9423 84.9462 27.5711C84.7784 27.1999 84.539 26.8655 84.2418 26.5869C83.9446 26.3082 83.5954 26.0909 83.2142 25.9474C82.833 25.8038 82.4272 25.7367 82.02 25.7501C81.6124 25.7617 81.2112 25.8539 80.8394 26.0213C80.4676 26.1887 80.1326 26.428 79.8538 26.7255C79.5749 27.0229 79.3576 27.3726 79.2145 27.7544C79.0715 28.1363 79.0053 28.5426 79.02 28.9501C79.0317 29.3559 79.1232 29.7555 79.2893 30.1259C79.4555 30.4964 79.693 30.8305 79.9883 31.1091C80.2837 31.3877 80.631 31.6054 81.0105 31.7497C81.39 31.894 81.7942 31.9621 82.2 31.9501C83.0152 31.9239 83.7873 31.5776 84.3488 30.9861C84.9104 30.3945 85.2162 29.6056 85.2 28.7901V28.7001L85.22 28.7501ZM94 29.0101C94.2001 28.2145 94.0767 27.372 93.6569 26.6673C93.237 25.9625 92.5549 25.4529 91.76 25.2501C90.9657 25.0502 90.1245 25.1739 89.4214 25.5939C88.7182 26.0139 88.2106 26.696 88.01 27.4901C87.8095 28.2816 87.9304 29.1204 88.3464 29.8231C88.7624 30.5257 89.4396 31.0352 90.23 31.2401C90.6247 31.3418 91.0356 31.3641 91.439 31.3058C91.8424 31.2475 92.2302 31.1097 92.58 30.9004C92.9297 30.6911 93.2344 30.4145 93.4765 30.0866C93.7185 29.7587 93.8931 29.386 93.99 28.9901L94 29.0101ZM102.69 30.6101C103.108 29.9054 103.231 29.0638 103.03 28.2693C102.829 27.4747 102.323 26.7919 101.62 26.3701C101.273 26.1615 100.888 26.0234 100.487 25.9638C100.087 25.9041 99.6781 25.9241 99.2851 26.0226C98.8922 26.1211 98.5226 26.2961 98.1974 26.5376C97.8722 26.7791 97.5978 27.0824 97.39 27.4301C97.1798 27.7777 97.0405 28.1635 96.98 28.5652C96.9196 28.9669 96.9392 29.3766 97.0377 29.7707C97.1362 30.1648 97.3117 30.5355 97.5541 30.8615C97.7965 31.1875 98.101 31.4623 98.45 31.6701C98.7941 31.8858 99.1775 32.0311 99.5781 32.0975C99.9787 32.164 100.389 32.1503 100.784 32.0573C101.179 31.9643 101.552 31.7938 101.881 31.5557C102.21 31.3176 102.488 31.0166 102.7 30.6701V30.6701L102.69 30.6101ZM111.17 33.4501C111.772 32.8934 112.128 32.1212 112.162 31.3022C112.196 30.4833 111.904 29.6843 111.35 29.0801C110.793 28.4785 110.021 28.1218 109.202 28.0881C108.383 28.0543 107.584 28.3463 106.98 28.9001C106.681 29.1741 106.44 29.5045 106.269 29.8722C106.098 30.2399 106.001 30.6376 105.985 31.0427C105.968 31.4478 106.031 31.8522 106.171 32.2327C106.311 32.6132 106.525 32.9623 106.8 33.2601C107.343 33.8738 108.107 34.247 108.924 34.2976C109.742 34.3482 110.546 34.0722 111.16 33.5301V33.5301L111.17 33.4501ZM108.17 140.31C108.571 140.371 108.979 140.352 109.373 140.255C109.766 140.158 110.136 139.984 110.463 139.744C110.789 139.503 111.064 139.2 111.273 138.853C111.482 138.506 111.62 138.121 111.68 137.72C111.741 137.319 111.723 136.91 111.625 136.516C111.528 136.122 111.355 135.75 111.114 135.424C110.874 135.097 110.571 134.82 110.224 134.611C109.876 134.401 109.491 134.261 109.09 134.2C108.689 134.139 108.281 134.158 107.887 134.255C107.494 134.352 107.124 134.526 106.798 134.767C106.471 135.007 106.196 135.31 105.987 135.657C105.778 136.004 105.64 136.389 105.58 136.79C105.511 137.19 105.522 137.6 105.612 137.995C105.702 138.391 105.87 138.765 106.105 139.096C106.34 139.427 106.638 139.708 106.982 139.923C107.326 140.138 107.71 140.283 108.11 140.35H108.16L108.17 140.31ZM97.8 142.63C98.1512 142.832 98.5388 142.963 98.9406 143.015C99.3424 143.067 99.7505 143.04 100.142 142.934C100.533 142.828 100.899 142.646 101.22 142.398C101.54 142.15 101.809 141.842 102.01 141.49C102.214 141.139 102.347 140.751 102.4 140.349C102.454 139.946 102.428 139.537 102.323 139.145C102.218 138.753 102.036 138.385 101.789 138.064C101.541 137.742 101.232 137.472 100.88 137.27C100.171 136.864 99.3307 136.754 98.5418 136.966C97.7529 137.178 97.0799 137.694 96.67 138.4C96.4651 138.75 96.3312 139.137 96.2761 139.538C96.221 139.94 96.2457 140.348 96.3488 140.741C96.4519 141.133 96.6315 141.5 96.8771 141.823C97.1227 142.146 97.4295 142.416 97.78 142.62L97.8 142.63ZM87.6 142.72C87.8529 143.037 88.1659 143.302 88.5212 143.498C88.8765 143.694 89.267 143.817 89.6703 143.862C90.0736 143.907 90.4817 143.871 90.8712 143.758C91.2607 143.644 91.6239 143.454 91.94 143.2C92.2574 142.947 92.5216 142.634 92.7176 142.279C92.9135 141.924 93.0374 141.533 93.082 141.13C93.1266 140.727 93.0911 140.318 92.9775 139.929C92.8639 139.539 92.6744 139.176 92.42 138.86C92.168 138.543 91.856 138.28 91.502 138.084C91.1479 137.888 90.7587 137.763 90.3566 137.718C89.9544 137.672 89.5473 137.706 89.1584 137.818C88.7695 137.93 88.4064 138.118 88.09 138.37C87.4484 138.879 87.0353 139.623 86.9415 140.437C86.8478 141.25 87.081 142.068 87.59 142.71L87.6 142.72ZM77.9 140.84C78.1501 141.619 78.699 142.267 79.4264 142.642C80.1538 143.017 81.0003 143.088 81.78 142.84C82.56 142.588 83.2083 142.037 83.5831 141.308C83.9579 140.579 84.0287 139.731 83.78 138.95C83.6573 138.564 83.4595 138.205 83.1979 137.895C82.9363 137.585 82.616 137.33 82.2555 137.144C81.895 136.958 81.5013 136.845 81.0971 136.812C80.6929 136.779 80.2861 136.826 79.9 136.95V136.95C79.1208 137.2 78.4726 137.749 78.0977 138.477C77.7227 139.204 77.6517 140.05 77.9 140.83V140.83V140.84ZM69 137.23C68.9743 137.636 69.0291 138.042 69.1611 138.426C69.2932 138.81 69.4999 139.165 69.7695 139.469C70.039 139.773 70.3661 140.02 70.7317 140.197C71.0974 140.374 71.4944 140.477 71.9 140.5C72.7166 140.547 73.5182 140.267 74.1293 139.724C74.7404 139.18 75.1111 138.416 75.16 137.6C75.1858 137.195 75.1313 136.79 74.9999 136.406C74.8685 136.023 74.6626 135.669 74.3941 135.365C74.1256 135.061 73.7997 134.813 73.4352 134.636C73.0707 134.458 72.6748 134.354 72.27 134.33C71.8649 134.306 71.4589 134.361 71.0753 134.494C70.6917 134.627 70.3379 134.833 70.0343 135.103C69.7306 135.372 69.483 135.698 69.3055 136.063C69.128 136.429 69.0242 136.825 69 137.23ZM61.08 132.12C60.9131 132.49 60.8207 132.889 60.8083 133.294C60.7959 133.699 60.8636 134.103 61.0076 134.482C61.1516 134.861 61.3691 135.208 61.6475 135.503C61.9259 135.798 62.2598 136.035 62.63 136.2C62.9996 136.367 63.3984 136.459 63.8038 136.472C64.2091 136.484 64.6129 136.416 64.992 136.272C65.371 136.128 65.7179 135.911 66.0128 135.633C66.3076 135.354 66.5446 135.02 66.71 134.65C67.0451 133.905 67.0712 133.057 66.7826 132.292C66.4939 131.527 65.9141 130.908 65.17 130.57C64.801 130.4 64.4022 130.305 63.9964 130.29C63.5906 130.274 63.1857 130.339 62.8049 130.48C62.4241 130.621 62.0749 130.836 61.7772 131.112C61.4795 131.389 61.2392 131.721 61.07 132.09L61.08 132.12ZM54.36 125.74C54.0719 126.026 53.8432 126.367 53.6872 126.742C53.5311 127.117 53.4508 127.519 53.4508 127.925C53.4508 128.331 53.5311 128.733 53.6872 129.108C53.8432 129.483 54.0719 129.824 54.36 130.11C54.6463 130.398 54.9867 130.627 55.3617 130.783C55.7367 130.939 56.1389 131.019 56.545 131.019C56.9512 131.019 57.3533 130.939 57.7283 130.783C58.1033 130.627 58.4438 130.398 58.73 130.11C59.3071 129.529 59.631 128.744 59.631 127.925C59.631 127.106 59.3071 126.321 58.73 125.74C58.4431 125.453 58.1024 125.226 57.7275 125.07C57.3526 124.915 56.9508 124.835 56.545 124.835C56.1392 124.835 55.7374 124.915 55.3625 125.07C54.9876 125.226 54.647 125.453 54.36 125.74V125.74ZM49 118.32C48.6275 118.482 48.2906 118.716 48.0085 119.008C47.7265 119.3 47.5048 119.645 47.3562 120.023C47.2076 120.401 47.135 120.805 47.1425 121.211C47.15 121.617 47.2375 122.018 47.4 122.39C47.5618 122.763 47.7957 123.099 48.0882 123.381C48.3807 123.663 48.726 123.884 49.1042 124.032C49.4825 124.18 49.8863 124.251 50.2923 124.242C50.6983 124.233 51.0986 124.144 51.47 123.98C52.218 123.651 52.8058 123.04 53.1054 122.279C53.4051 121.519 53.3923 120.671 53.07 119.92C52.9081 119.548 52.6743 119.211 52.382 118.929C52.0898 118.647 51.7448 118.425 51.3667 118.276C50.9887 118.128 50.5851 118.055 50.179 118.063C49.7729 118.07 49.3723 118.158 49 118.32V118.32ZM45 110.01C44.5916 110.022 44.1895 110.114 43.817 110.282C43.4445 110.45 43.1091 110.69 42.8301 110.989C42.5511 111.288 42.3341 111.638 42.1916 112.021C42.0491 112.404 41.984 112.812 42 113.22C42.0129 113.628 42.1063 114.03 42.2748 114.401C42.4432 114.773 42.6835 115.108 42.9818 115.387C43.28 115.666 43.6304 115.883 44.0128 116.026C44.3952 116.169 44.8021 116.235 45.21 116.22C46.0279 116.191 46.8015 115.841 47.363 115.246C47.9246 114.651 48.2289 113.858 48.21 113.04C48.1984 112.634 48.1069 112.235 47.9407 111.864C47.7746 111.494 47.537 111.16 47.2417 110.881C46.9464 110.602 46.599 110.385 46.2195 110.241C45.8401 110.096 45.4358 110.028 45.03 110.04L45 110.01ZM42.59 101.12C42.2073 100.984 41.8015 100.925 41.3959 100.947C40.9903 100.968 40.593 101.07 40.2268 101.245C39.8606 101.421 39.5328 101.667 39.2621 101.97C38.9915 102.273 38.7835 102.626 38.65 103.01C38.3777 103.782 38.4227 104.63 38.7752 105.369C39.1276 106.108 39.7587 106.676 40.53 106.95C40.9165 107.093 41.3274 107.157 41.7389 107.138C42.1504 107.12 42.5541 107.02 42.9265 106.844C43.2989 106.668 43.6325 106.42 43.9078 106.114C44.1832 105.807 44.3947 105.449 44.53 105.06V105.06C44.7909 104.293 44.7414 103.455 44.3919 102.724C44.0424 101.993 43.4208 101.428 42.66 101.15L42.59 101.12ZM41.85 92.3701C41.2285 91.8366 40.421 91.5707 39.604 91.6307C38.7871 91.6907 38.027 92.0715 37.49 92.6901C37.2246 92.9973 37.0223 93.3538 36.8947 93.7393C36.7672 94.1247 36.7168 94.5315 36.7465 94.9364C36.7762 95.3413 36.8855 95.7364 37.0679 96.0991C37.2504 96.4618 37.5026 96.7849 37.81 97.0501C38.4316 97.5836 39.2391 97.8494 40.056 97.7895C40.873 97.7295 41.633 97.3487 42.17 96.7301C42.6998 96.1121 42.9653 95.3106 42.9091 94.4986C42.853 93.6866 42.4798 92.9293 41.87 92.3901L41.85 92.3701ZM42.61 84.0101C42.4197 83.6515 42.1606 83.3339 41.8475 83.0754C41.5344 82.817 41.1734 82.6228 40.7853 82.5039C40.3971 82.385 39.9893 82.3438 39.5851 82.3826C39.181 82.4215 38.7885 82.5395 38.43 82.7301C38.0714 82.9204 37.7538 83.1795 37.4953 83.4926C37.2369 83.8057 37.0427 84.1667 36.9238 84.5548C36.805 84.943 36.7638 85.3509 36.8026 85.755C36.8414 86.1591 36.9594 86.5516 37.15 86.9101C37.3403 87.2687 37.5994 87.5863 37.9125 87.8447C38.2256 88.1032 38.5866 88.2974 38.9748 88.4163C39.363 88.5351 39.7708 88.5763 40.1749 88.5375C40.579 88.4987 40.9715 88.3807 41.33 88.1901C41.6903 87.9988 42.0093 87.7383 42.2687 87.4236C42.5281 87.1088 42.7228 86.7459 42.8417 86.3558C42.9606 85.9656 43.0014 85.5558 42.9616 85.1498C42.9219 84.7439 42.8024 84.3498 42.61 83.9901V84.0101ZM44.61 76.0801C44.5582 75.6776 44.4276 75.2892 44.2256 74.9372C44.0237 74.5851 43.7544 74.2763 43.4331 74.0284C43.1118 73.7804 42.7448 73.5982 42.353 73.4921C41.9613 73.3861 41.5525 73.3582 41.15 73.4101C40.747 73.4607 40.3579 73.5904 40.0052 73.792C39.6525 73.9936 39.3432 74.2629 39.095 74.5845C38.8469 74.9061 38.6647 75.2736 38.5592 75.6658C38.4536 76.0581 38.4267 76.4674 38.48 76.8701C38.5873 77.6707 39.0049 78.3972 39.6428 78.8929C40.2806 79.3885 41.0877 79.6138 41.89 79.5201H41.96C42.7673 79.4105 43.4987 78.9866 43.995 78.3404C44.4913 77.6943 44.7123 76.8784 44.61 76.0701V76.0801ZM47.82 68.6901C48.0135 67.8946 47.8845 67.0549 47.461 66.3542C47.0376 65.6535 46.3542 65.1487 45.56 64.9501C44.7631 64.7536 43.9208 64.8812 43.2178 65.3049C42.5148 65.7285 42.0086 66.4137 41.81 67.2101C41.6165 68.0056 41.7456 68.8453 42.169 69.546C42.5924 70.2467 43.2758 70.7514 44.07 70.9501V70.9501C44.4673 71.0612 44.883 71.0913 45.2921 71.0387C45.7013 70.9861 46.0958 70.8518 46.4521 70.6438C46.8084 70.4358 47.1193 70.1583 47.3663 69.8279C47.6133 69.4974 47.7914 69.1207 47.89 68.7201V68.7201L47.82 68.6901ZM52.11 61.9101C52.3407 61.5759 52.5032 61.1996 52.5884 60.8026C52.6735 60.4056 52.6795 59.9957 52.6062 59.5964C52.5328 59.197 52.3814 58.8161 52.1608 58.4752C51.9401 58.1344 51.6544 57.8404 51.32 57.6101C50.9873 57.3792 50.6122 57.2162 50.2164 57.1305C49.8206 57.0447 49.4117 57.0378 49.0132 57.1103C48.6148 57.1827 48.2345 57.3331 47.8942 57.5527C47.5539 57.7723 47.2602 58.0569 47.03 58.3901C46.7976 58.7232 46.6333 59.099 46.5467 59.4958C46.4601 59.8927 46.4528 60.3027 46.5253 60.7024C46.5978 61.1021 46.7486 61.4834 46.9691 61.8246C47.1896 62.1657 47.4754 62.4599 47.81 62.6901C48.1401 62.925 48.5133 63.0925 48.9082 63.183C49.3031 63.2735 49.712 63.2851 50.1115 63.2173C50.5109 63.1495 50.8931 63.0035 51.236 62.7878C51.579 62.5721 51.876 62.2908 52.11 61.9601V61.9101V61.9101ZM57.44 55.8401C58.1157 55.3781 58.5805 54.6669 58.7323 53.8626C58.8842 53.0583 58.7107 52.2266 58.25 51.5501C57.7877 50.8721 57.0755 50.4051 56.2695 50.2514C55.4635 50.0977 54.6293 50.2698 53.95 50.7301C53.2743 51.1921 52.8096 51.9033 52.6577 52.7076C52.5059 53.5119 52.6793 54.3435 53.14 55.0201C53.3655 55.3567 53.6552 55.6455 53.9925 55.87C54.3299 56.0945 54.7081 56.2502 55.1057 56.3282C55.5033 56.4062 55.9124 56.405 56.3095 56.3247C56.7066 56.2444 57.084 56.0865 57.42 55.8601H57.47L57.44 55.8401ZM63.81 50.5801C64.6081 50.3966 65.3006 49.9039 65.7356 49.2102C66.1707 48.5164 66.3125 47.6784 66.13 46.8801C65.9464 46.0816 65.4541 45.3883 64.7608 44.9516C64.0675 44.515 63.2295 44.3707 62.43 44.5501C61.632 44.7336 60.9394 45.2263 60.5044 45.92C60.0694 46.6138 59.9276 47.4518 60.11 48.2501C60.1986 48.6457 60.3645 49.02 60.598 49.3514C60.8316 49.6829 61.1283 49.9649 61.4712 50.1814C61.814 50.3978 62.1962 50.5445 62.5958 50.6129C62.9955 50.6813 63.4047 50.6702 63.8 50.5801V50.5801H63.81ZM71.27 46.2701C71.6706 46.3311 72.0793 46.3125 72.4727 46.2153C72.8661 46.118 73.2365 45.9441 73.5625 45.7035C73.8886 45.4629 74.164 45.1604 74.3729 44.8131C74.5818 44.4659 74.7202 44.0809 74.78 43.6801C74.8411 43.2789 74.8226 42.8696 74.7255 42.4756C74.6284 42.0815 74.4546 41.7105 74.2141 41.3836C73.9736 41.0568 73.671 40.7805 73.3238 40.5705C72.9765 40.3606 72.5912 40.2211 72.19 40.1601C71.7894 40.0991 71.3807 40.1177 70.9873 40.2149C70.5939 40.3121 70.2236 40.486 69.8975 40.7266C69.5714 40.9672 69.2961 41.2698 69.0871 41.6171C68.8782 41.9643 68.7399 42.3493 68.68 42.7501C68.5597 43.5603 68.766 44.3851 69.2535 45.0432C69.741 45.7014 70.4699 46.1391 71.28 46.2601L71.27 46.2701Z" fill="#007DC1"/>
</g>
<defs>
<clipPath id="clip0_349_2738">
<rect width="252.32" height="180.64" fill="white"/>
</clipPath>
</defs>
</svg>
