<svg id="Layer_1" data-name="Layer 1" xmlns="http://www.w3.org/2000/svg" viewBox="0 0 16.79 16.13"><title>search</title><path d="M12.54,9.65a.65.65,0,0,0,.1.78l3.78,3.63a1.18,1.18,0,0,1,0,1.71,1.3,1.3,0,0,1-1.78,0l-3.78-3.63a.73.73,0,0,0-.82-.09,2.85,2.85,0,0,1-.38.2,6.91,6.91,0,0,1-2.94.65A6.59,6.59,0,0,1,0,6.45,6.59,6.59,0,0,1,6.71,0a6.59,6.59,0,0,1,6.71,6.45,6.22,6.22,0,0,1-.68,2.83A2.68,2.68,0,0,1,12.54,9.65Zm-5.83.84a4.12,4.12,0,0,0,4.2-4,4.12,4.12,0,0,0-4.2-4,4.12,4.12,0,0,0-4.2,4A4.12,4.12,0,0,0,6.71,10.48Z"/></svg>