<svg id="Layer_1" data-name="Layer 1" xmlns="http://www.w3.org/2000/svg" viewBox="0 0 15.34 12.46"><title>twitter</title><path d="M13.78,3.09a6.67,6.67,0,0,0,1.56-1.62,5.91,5.91,0,0,1-1.8.48A3.08,3.08,0,0,0,14.92.21a6.66,6.66,0,0,1-2,.78A3.16,3.16,0,0,0,7.47,3.15a3,3,0,0,0,.09.72A9.14,9.14,0,0,1,1.05.57,3.07,3.07,0,0,0,.63,2.16,3.1,3.1,0,0,0,2,4.77,3.32,3.32,0,0,1,.6,4.38v0A3.16,3.16,0,0,0,3.12,7.5a3.52,3.52,0,0,1-.81.12,4.07,4.07,0,0,1-.6-.06A3.14,3.14,0,0,0,4.65,9.75,6.34,6.34,0,0,1,.75,11.1,5.85,5.85,0,0,1,0,11a8.78,8.78,0,0,0,4.83,1.41,8.87,8.87,0,0,0,8.94-8.94Z"/></svg>